<?xml version="1.0" encoding="UTF-8"?>
<svg width="37px" height="37px" viewBox="0 0 37 37" version="1.1" xmlns="http://www.w3.org/2000/svg" xmlns:xlink="http://www.w3.org/1999/xlink">
    <!-- Generator: Sketch 46.2 (44496) - http://www.bohemiancoding.com/sketch -->
    <title>download</title>
    <desc>Created with Sketch.</desc>
    <defs></defs>
    <g id="All-Pages" stroke="none" stroke-width="1" fill="none" fill-rule="evenodd">
        <g id="News-Article" transform="translate(-537.000000, -572.000000)" fill="#FFFFFF">
            <g id="button" transform="translate(477.000000, 540.000000)">
                <path d="M76.6354815,58.3933391 C78.0033107,59.7611682 78.7831794,59.8139752 80.2057475,58.3933391 L90.6661952,47.6719155 C91.6477929,46.0173509 90.8447407,44.6646555 88.8813842,44.6646555 L84.1778615,44.6646555 L84.1778615,34.3022548 C84.1785055,33.0313458 83.1465158,32 81.8754457,32 L74.9677153,32 C73.6966452,32 72.6646555,33.0313458 72.6646555,34.3022548 L72.6646555,44.6646555 L67.9604888,44.6646555 C65.9977763,44.6646555 65.1940801,46.0186389 66.1756778,47.6719155 L76.6354815,58.3933391 Z M94.5401012,63.086236 L62.3024158,63.086236 C61.0313458,63.086236 60,64.1175817 60,65.3891348 L60,66.5401012 C60,67.8122982 61.0313458,68.843 62.3024158,68.843 L94.5401012,68.843 C95.8111712,68.843 96.843161,67.8122982 96.843161,66.5401012 L96.843161,65.3891348 C96.843161,64.1175817 95.8111712,63.086236 94.5401012,63.086236 Z" id="download"></path>
            </g>
        </g>
    </g>
</svg>