<?xml version="1.0" encoding="UTF-8"?>
<svg width="61px" height="48px" viewBox="0 0 61 48" version="1.1" xmlns="http://www.w3.org/2000/svg" xmlns:xlink="http://www.w3.org/1999/xlink">
    <!-- Generator: Sketch 46.2 (44496) - http://www.bohemiancoding.com/sketch -->
    <title>“</title>
    <desc>Created with Sketch.</desc>
    <defs></defs>
    <g id="All-Pages" stroke="none" stroke-width="1" fill="none" fill-rule="evenodd" fill-opacity="0.0399999991">
        <g id="BSSelected" transform="translate(-303.000000, -1021.000000)" fill="#4A4A4A">
            <path d="M326.855263,1021 L326.855263,1024.82136 C321.451727,1027.67963 317.583345,1030.66212 315.25,1033.76893 C312.916655,1036.87574 311.75,1040.26212 311.75,1043.92816 C311.75,1046.10292 312.057014,1047.59417 312.671053,1048.40194 C313.223687,1049.27185 313.899119,1049.7068 314.697368,1049.7068 C315.495618,1049.7068 316.570169,1049.47379 317.921053,1049.00777 C319.271937,1048.54175 320.499994,1048.30874 321.605263,1048.30874 C324.12282,1048.30874 326.317973,1049.2563 328.190789,1051.15146 C330.063606,1053.04661 331,1055.36115 331,1058.09515 C331,1061.07768 329.864046,1063.64077 327.592105,1065.78447 C325.320164,1067.92817 322.495631,1069 319.118421,1069 C315.004365,1069 311.28949,1067.19808 307.973684,1063.59417 C304.657878,1059.99027 303,1055.5476 303,1050.26602 C303,1044.0524 305.041646,1038.25828 309.125,1032.8835 C313.208354,1027.50871 319.118382,1023.54759 326.855263,1021 Z M359.593443,1021 L359.593443,1024.55556 C353.411991,1028.17351 349.342086,1031.41714 347.383607,1034.28655 C345.425127,1037.15596 344.445902,1040.52435 344.445902,1044.39181 C344.445902,1046.13841 344.78251,1047.44834 345.455738,1048.32164 C346.128965,1049.19494 346.832783,1049.63158 347.567213,1049.63158 C348.240441,1049.63158 349.250266,1049.38207 350.596721,1048.88304 C351.943176,1048.38401 353.289611,1048.1345 354.636066,1048.1345 C357.145368,1048.1345 359.333324,1049.05457 361.2,1050.89474 C363.066676,1052.7349 364,1054.99609 364,1057.67836 C364,1060.73491 362.82187,1063.38595 360.465574,1065.63158 C358.109278,1067.8772 355.217503,1069 351.790164,1069 C347.750799,1069 344.109306,1067.22224 340.865574,1063.66667 C337.621842,1060.11109 336,1055.68229 336,1050.38012 C336,1043.83038 338.050253,1037.85773 342.15082,1032.46199 C346.251387,1027.06625 352.065536,1023.24563 359.593443,1021 Z" id="“"></path>
        </g>
    </g>
</svg>