<?xml version="1.0" encoding="UTF-8"?>
<svg width="122px" height="122px" viewBox="0 0 122 122" version="1.1" xmlns="http://www.w3.org/2000/svg" xmlns:xlink="http://www.w3.org/1999/xlink">
    <!-- Generator: Sketch 46.2 (44496) - http://www.bohemiancoding.com/sketch -->
    <title>contact icon</title>
    <desc>Created with Sketch.</desc>
    <defs>
        <polygon id="path-1" points="22.4503615 0.0216959064 0.0122846274 0.0216959064 0.0122846274 62.8317544 44.8884383 62.8317544 44.8884383 0.0216959064"></polygon>
    </defs>
    <g id="Symbols" stroke="none" stroke-width="1" fill="none" fill-rule="evenodd">
        <g id="footer" transform="translate(-830.000000, -63.000000)">
            <g transform="translate(-88.000000, 0.000000)" id="contact-icon">
                <g transform="translate(919.000000, 64.000000)">
                    <circle id="Oval-2" stroke="#FFFFFF" stroke-width="2" fill="#FFFFFF" cx="60" cy="60" r="60"></circle>
                    <g id="users-linked" transform="translate(26.000000, 24.000000)">
                        <g id="Group-4">
                            <mask id="mask-2" fill="white">
                                <use xlink:href="#path-1"></use>
                            </mask>
                            <g id="Clip-2"></g>
                        </g>
                        <path d="M37.043232,15.6069131 C39.1274017,14.1569144 40.5318392,11.4718541 40.5318392,8.40259371 C40.5318392,4.24728099 39.6960356,0 33.4999999,0 C27.3047857,0 26.4689821,4.24728099 26.4689821,8.40259371 C26.4689821,11.4718541 27.8728035,14.1569144 29.9575892,15.6069131 C25.3450625,16.9994575 22,21.0328347 22,25.7814978 C22,28.2299207 23.2393303,29.9680178 25.6820535,30.9482549 C27.4709196,31.6658142 29.9551249,32 33.4999999,32 C37.0456963,32 39.5299017,31.6658142 41.3179463,30.9482549 C43.7614909,29.9680178 44.9999998,28.2299207 44.9999998,25.7814978 C45.0008213,21.0336614 41.6557588,16.9994575 37.043232,15.6069131 Z" id="Fill-1" fill="#0F78D1"></path>
                        <path d="M15.0432321,46.6075331 C17.1271964,45.1575344 18.5310179,42.4716474 18.5310179,39.402387 C18.5310179,35.247901 17.6960357,31 11.5,31 C5.30396429,31 4.46816071,35.247901 4.46816071,39.402387 C4.46816071,42.4716474 5.87280357,45.1575344 7.95676786,46.6075331 C3.3450625,48.0000775 0,52.0334548 0,56.7812912 C0,59.229714 1.23850893,60.9678111 3.68205357,61.9480483 C5.47009821,62.6656075 7.95430357,63 11.5,63 C15.0456964,63 17.5299018,62.6656075 19.3179464,61.9480483 C21.7614911,60.9678111 23,59.229714 23,56.7812912 C23,52.0334548 19.6549375,48.0000775 15.0432321,46.6075331 Z" id="Fill-3" fill="#0F78D1"></path>
                        <path d="M59.0432321,46.6075331 C61.1282232,45.1575344 62.5318393,42.4716474 62.5318393,39.402387 C62.5318393,35.247901 61.6960357,31 55.5,31 C49.3039643,31 48.4689821,35.247901 48.4689821,39.402387 C48.4689821,42.4716474 49.8728036,45.1575344 51.9567679,46.6075331 C47.3450625,48.0000775 44,52.0334548 44,56.7812912 C44,59.229714 45.2387143,60.9678111 47.6820536,61.9480483 C49.4700982,62.6656075 51.9545089,63 55.5,63 C59.0456964,63 61.5292857,62.6656075 63.3181518,61.9480483 C65.7614911,60.9678111 67,59.229714 67,56.7812912 C67,52.0334548 63.6549375,48.0000775 59.0432321,46.6075331 Z" id="Fill-5" fill="#0F78D1"></path>
                        <path d="M41.3271947,61.4704555 C41.2456825,61.2864517 41.0863818,61.138912 40.8850837,61.0607478 C40.6831649,60.9825836 40.4551788,60.9795917 40.251605,61.053268 C38.4719891,61.6954113 36.2641234,62.0080682 33.5003604,62.0080682 C30.7365975,62.0080682 28.5279043,61.6961593 26.7482884,61.053268 C26.5447145,60.9795917 26.3167284,60.9825836 26.1156372,61.0607478 C25.9135115,61.138912 25.7544178,61.2864517 25.6726986,61.4704555 L25.0592876,62.8598338 C24.8896428,63.2431751 25.0965268,63.6786881 25.5208458,63.8312766 C27.6978858,64.6172197 30.3073133,65 33.5003604,65 C36.6925801,65 39.3028351,64.6172197 41.4790476,63.8312766 C41.9041941,63.6786881 42.1102506,63.2431751 41.9406057,62.8598338 L41.3271947,61.4704555 Z" id="Fill-6" fill="#0F78D1"></path>
                        <path d="M9.49534704,27.2895226 L10.9978715,27.933776 C11.1033405,27.9785385 11.212693,28 11.3195928,28 C11.636613,28 11.9385077,27.814818 12.0717748,27.5043419 C12.8182336,25.7653484 14.1198355,23.9807748 16.0503679,22.0502631 C17.9817178,20.1197514 19.7654929,18.8183678 21.5043005,18.0717125 C21.7039967,17.9862754 21.8613826,17.8250077 21.9419151,17.6238829 C22.0218344,17.4225537 22.0193817,17.1975147 21.9339436,16.9978207 L21.2888658,15.4953123 C21.1108358,15.0801859 20.6300934,14.8884633 20.2149625,15.0664914 C18.0863692,15.9799331 15.9682002,17.5073777 13.7380214,19.7373282 C11.5072295,21.9680963 9.97997299,24.0870603 9.06652154,26.2156308 C8.88849151,26.6299397 9.08001176,27.1114945 9.49534704,27.2895226 Z" id="Fill-7" fill="#0F78D1"></path>
                        <path d="M45.4951278,18.0717125 C47.2341707,18.8183678 49.0185906,20.1197514 50.9499748,22.0502631 C52.8807458,23.9807748 54.1821663,25.7653484 54.9278208,27.5043419 C55.0612946,27.814818 55.3629904,28 55.6800162,28 C55.7877355,28 55.8970899,27.9785385 56.0017432,27.933776 L57.5044987,27.2895226 C57.9196369,27.1114945 58.1119782,26.6299397 57.9331274,26.2156308 C57.0204773,24.0870603 55.4923761,21.9680963 53.2623623,19.7381458 C51.0315308,17.5073777 48.9131198,15.9799331 46.7844887,15.0664914 C46.3701681,14.8884633 45.8894172,15.0801859 45.7105664,15.4953123 L45.0662947,16.9978207 C44.9808551,17.1975147 44.9777891,17.4225537 45.0583231,17.6238829 C45.1390614,17.8250077 45.2962457,17.9862754 45.4951278,18.0717125 Z" id="Fill-8" fill="#0F78D1"></path>
                    </g>
                </g>
            </g>
        </g>
    </g>
</svg>