<?xml version="1.0" encoding="UTF-8"?>
<svg width="260px" height="187px" viewBox="0 0 260 187" version="1.1" xmlns="http://www.w3.org/2000/svg" xmlns:xlink="http://www.w3.org/1999/xlink">
    <!-- Generator: Sketch 46.2 (44496) - http://www.bohemiancoding.com/sketch -->
    <title>box 1</title>
    <desc>Created with Sketch.</desc>
    <defs>
        <filter x="-6.1%" y="-8.1%" width="112.3%" height="117.3%" filterUnits="objectBoundingBox" id="filter-1">
            <feOffset dx="0" dy="2" in="SourceAlpha" result="shadowOffsetOuter1"></feOffset>
            <feGaussianBlur stdDeviation="10" in="shadowOffsetOuter1" result="shadowBlurOuter1"></feGaussianBlur>
            <feColorMatrix values="0 0 0 0 0   0 0 0 0 0   0 0 0 0 0  0 0 0 0.5 0" type="matrix" in="shadowBlurOuter1" result="shadowMatrixOuter1"></feColorMatrix>
            <feMerge>
                <feMergeNode in="shadowMatrixOuter1"></feMergeNode>
                <feMergeNode in="SourceGraphic"></feMergeNode>
            </feMerge>
        </filter>
    </defs>
    <g id="diagram-final" stroke="none" stroke-width="1" fill="none" fill-rule="evenodd">
        <g id="diagram-flat" filter="url(#filter-1)" transform="translate(-122.000000, 17.000000)" fill="#FFFFFF">
            <g id="pyramid">
                <g id="bg-triangle">
                    <g id="box-1" transform="translate(134.541033, 0.173363)">
                        <path d="M211.422954,143.213675 C217.398532,143.213675 225.562954,145.636158 231.319033,150.895355 L132.302195,8.51810256 C128.590675,3.25737179 123.586723,0.360824786 118.214383,0.360824786 C112.166663,0.360824786 106.151176,3.96923504 101.712088,10.2609402 L2.97921581,151.910987 C8.70306079,146.756115 16.9043222,143.213675 23.5706292,143.213675 L97.8992614,143.213675 L115.795295,123.924329 C115.941116,123.769376 116.139125,123.718748 116.355553,123.681927 C116.562772,123.681927 116.760781,123.766308 116.905067,123.91359 L135.933897,143.213675 L211.422954,143.213675 Z" id="Fill-1"></path>
                        <path d="M23.5709362,144.747863 C23.1181246,144.747863 22.6576383,144.764739 22.1910122,144.800026 C22.6561033,144.766274 23.1181246,144.747863 23.5709362,144.747863" id="Fill-7"></path>
                    </g>
                </g>
            </g>
        </g>
    </g>
</svg>