<?xml version="1.0" encoding="UTF-8"?>
<svg width="344px" height="222px" viewBox="0 0 344 222" version="1.1" xmlns="http://www.w3.org/2000/svg" xmlns:xlink="http://www.w3.org/1999/xlink">
    <!-- Generator: Sketch 46.2 (44496) - http://www.bohemiancoding.com/sketch -->
    <title>home graphic cs</title>
    <desc>Created with Sketch.</desc>
    <defs>
        <linearGradient x1="6.07950805%" y1="22.5827211%" x2="87.3309755%" y2="50%" id="linearGradient-1">
            <stop stop-color="#01459B" offset="0%"></stop>
            <stop stop-color="#8697CB" offset="29.422433%"></stop>
            <stop stop-color="#6FC4D5" offset="53.0373087%"></stop>
            <stop stop-color="#FFD24C" offset="100%"></stop>
        </linearGradient>
    </defs>
    <g id="All-Pages" stroke="none" stroke-width="1" fill="none" fill-rule="evenodd">
        <g id="Home" transform="translate(-189.000000, -1207.000000)">
            <g id="home-graphic-cs" transform="translate(189.000000, 1207.000000)">
                <path d="M344,111.1568 C344,171.762802 266.788461,213.587687 172.173016,220.891454 C42.6606644,230.890236 5.33021422,171.556668 0.346032739,111.1568 C-6.06620074,33.4696534 77.5906635,9.15854137 172.173016,1.42214647 C313.224334,-10.1162793 344,50.550799 344,111.1568" id="Page-1" fill="#E5F3FB"></path>
                <g id="Page-1" transform="translate(42.686995, 16.807133)">
                    <g id="right-lines" transform="translate(29.285870, 17.189298)" stroke="url(#linearGradient-1)" fill="url(#linearGradient-1)">
                        <path d="M204.242643,96.7704006 L173.206536,88.8297402 L159.349554,104.263577 L204.242643,96.7704006 Z M158.364821,105.360367 L122.106096,145.74515 L202.595675,97.9777252 L158.364821,105.360367 Z M204.912051,96.9416704 L204.941298,97.1186746 L205.174446,97.5155346 L119.992832,148.067499 L119.760948,147.67279 L119.420176,147.36372 L156.914807,105.602391 L119.834862,111.791463 L119.759749,111.336865 L119.50189,110.957838 L157.534591,84.8200361 L117.941569,74.6900688 L118.054186,74.2454236 L117.944856,73.798003 L157.610051,64.0068913 L117.799429,37.1213705 L118.054407,36.7399696 L118.137205,36.2873879 L202.572283,51.8916148 L119.460497,1.26596141 L119.934833,0.479322206 L205.178679,52.4036712 L204.942216,52.7958213 L204.941983,52.7970969 L204.942555,52.7979375 L205.281232,53.1051078 L181.813052,79.243847 L207.717774,96.7382216 L207.462122,97.1206299 L207.349499,97.5652971 L204.912051,96.9416704 Z M121.726476,110.543304 L157.89954,104.505601 L172.204093,88.5732627 L158.716125,85.1223346 L121.726476,110.543304 Z M202.025898,55.3578889 L174.477876,74.2901428 L181.045644,78.7255888 L202.025898,55.3578889 Z M173.899535,88.0578815 L205.009555,96.0174528 L181.193652,79.9337314 L173.899535,88.0578815 Z M172.897092,87.801404 L180.426244,79.4154732 L173.664576,74.8490796 L159.722558,84.4306685 L172.897092,87.801404 Z M172.846787,74.2967981 L158.637144,64.7005236 L119.940934,74.2524471 L158.541023,84.1283701 L172.846787,74.2967981 Z M173.660087,73.7378614 L202.601082,53.8482935 L159.838848,64.4038902 L173.660087,73.7378614 Z M120.137787,37.5923596 L158.811755,63.7102578 L202.760801,52.8617037 L120.137787,37.5923596 Z M87.8080067,111.337486 L87.8077512,111.338094 L87.8439982,111.796322 L64.537844,113.658663 L90.2440852,147.391815 L89.8808057,147.671469 L89.7387164,148.108649 L0.330786021,118.754145 L0.472751479,118.317346 L0.472692244,118.316597 L0.106163281,118.04126 L20.1910097,91.0321681 L0.183154878,74.6005093 L0.472692244,74.2443685 L0.472114893,74.2429762 L0.17949896,73.8911247 L20.2384983,57.039349 L0.109595786,30.6250895 L0.472430234,30.3457784 L0.472692244,30.3452519 L0.472752945,30.3445197 L0.327317518,29.9091648 L87.6623574,0.436922644 L87.8080067,0.872917754 L87.80826,0.87322224 L88.1742611,1.14816289 L62.9164971,35.1135342 L87.8457311,37.2014063 L87.807769,37.6592883 L88.1176162,37.9982041 L62.954374,61.2373627 L88.0124094,73.8327506 L87.8080067,74.2435408 L87.8080067,74.245378 L88.0130536,74.6558459 L62.7015618,87.4287514 L88.1183111,110.999474 L87.8080067,111.337486 Z M50.2242609,94.8755877 L85.56972,109.887546 L61.8275672,87.8697942 L49.5910714,94.0446813 L50.2242609,94.8755877 Z M51.3493832,96.3520354 L63.8750398,112.788895 L85.9049995,111.028531 L51.3493832,96.3520354 Z M49.6449554,95.6281291 L47.9118734,94.8920528 L34.548531,101.635579 L49.5254592,113.935537 L62.7884298,112.875723 L49.6449554,95.6281291 Z M33.9947818,87.9825871 L47.8788691,93.8794505 L48.1919753,93.7214481 L39.7607412,82.6575163 L33.9947818,87.9825871 Z M33.2541332,88.6666027 L26.4304493,94.9685201 L33.772254,100.998053 L46.8043708,94.4216732 L33.2541332,88.6666027 Z M26.0960447,84.6278275 L33.0682653,87.589076 L39.2020207,81.9243324 L33.7000051,74.704283 L33.4755179,74.704283 L26.0960447,84.6278275 Z M25.5317039,85.3867247 L21.448763,90.8772584 L25.7145019,94.3805408 L32.3276167,88.2730916 L25.5317039,85.3867247 Z M2.73119009,74.704283 L25.2277322,84.2590369 L32.3329605,74.704283 L2.73119009,74.704283 Z M3.22952809,75.9145223 L20.7394156,90.2946994 L24.6633913,85.0179342 L3.22952809,75.9145223 Z M47.0104264,54.2516042 L33.2292579,47.3245183 L26.0028613,53.3954899 L33.175375,60.0470616 L47.0104264,54.2516042 Z M46.7065322,55.3754264 L33.9155866,60.7335113 L39.1276964,65.5670638 L46.7065322,55.3754264 Z M25.9801464,63.0611191 L32.2457232,60.4364896 L25.2947577,53.9903751 L21.4983124,57.1798086 L25.9801464,63.0611191 Z M26.5557873,63.816507 L33.5774631,73.0307385 L38.5768631,66.3077967 L32.9859348,61.1229394 L26.5557873,63.816507 Z M49.2077868,54.3276591 L62.0784829,60.7970972 L85.5822641,39.0905105 L49.2077868,54.3276591 Z M49.4423613,53.2328747 L85.898857,37.9613688 L62.2703537,35.9824354 L49.4423613,53.2328747 Z M25.681954,64.1825528 L2.76007116,73.784454 L32.9990523,73.784454 L25.681954,64.1825528 Z M25.1063131,63.427165 L20.7954866,57.7702599 L3.07836441,72.6546001 L25.1063131,63.427165 Z M48.0009383,75.0473981 L40.437342,82.0326512 L49.0245756,93.3012941 L61.1088113,87.2032418 L48.0009383,75.0473981 Z M48.9805303,74.704283 L61.982806,86.762199 L85.8774353,74.704283 L48.9805303,74.704283 Z M39.8039169,66.1941702 L47.9886615,73.784454 L48.0158394,73.784454 L61.3573663,61.4630743 L48.2292292,54.8642338 L39.8039169,66.1941702 Z M39.2530836,66.9349031 L34.1595329,73.784454 L46.6390821,73.784454 L39.2530836,66.9349031 Z M25.3245834,52.7664756 L32.3364375,46.8757434 L3.15654552,32.2085098 L25.3245834,52.7664756 Z M24.6164798,53.3613608 L4.06419544,34.3017957 L20.941324,56.4488977 L24.6164798,53.3613608 Z M48.2073337,114.040865 L33.6526396,102.087672 L2.77065812,117.671606 L48.2073337,114.040865 Z M49.231262,114.881777 L2.78729902,118.593008 L87.6939247,146.469639 L49.231262,114.881777 Z M63.4512341,113.745492 L50.5493875,114.776449 L87.1311783,144.819625 L63.4512341,113.745492 Z M32.8763626,101.450146 L25.749652,95.5972608 L3.19280128,116.429323 L32.8763626,101.450146 Z M39.8786215,81.2994672 L47.0198533,74.704283 L34.8527824,74.704283 L39.8786215,81.2994672 Z M25.0337046,95.0092816 L20.9003571,91.614727 L3.7787675,114.63898 L25.0337046,95.0092816 Z M62.2332574,61.9033398 L49.3684477,73.784454 L85.870273,73.784454 L62.2332574,61.9033398 Z M48.1387626,34.798887 L33.9951773,46.6810613 L47.9542434,53.6975672 L61.1947836,35.8923543 L48.1387626,34.798887 Z M49.1378475,33.9595453 L61.840927,35.0234531 L85.0969426,3.74993253 L49.1378475,33.9595453 Z M2.72013856,30.0719714 L47.8402056,33.8508653 L85.6503017,2.08620701 L2.72013856,30.0719714 Z M46.8411207,34.690207 L2.80198059,31.0018428 L33.102357,46.2322864 L46.8411207,34.690207 Z" id="Combined-Shape"></path>
                    </g>
                    <path d="M32.0314202,48.7631262 C32.0314202,57.6081432 24.8605217,64.7788363 16.0152514,64.7788363 C7.16998106,64.7788363 0,57.6081432 0,48.7631262 C0,39.9181092 7.16998106,32.7474161 16.0152514,32.7474161 C24.8605217,32.7474161 32.0314202,39.9181092 32.0314202,48.7631262" id="Fill-1" fill="#01459B"></path>
                    <path d="M32.0314202,89.9463807 C32.0314202,98.7913977 24.8605217,105.962091 16.0152514,105.962091 C7.16998106,105.962091 0,98.7913977 0,89.9463807 C0,81.1013638 7.16998106,73.9306706 16.0152514,73.9306706 C24.8605217,73.9306706 32.0314202,81.1013638 32.0314202,89.9463807" id="Fill-3" fill="#01459B"></path>
                    <path d="M32.0314202,135.705552 C32.0314202,144.550569 24.8605217,151.721263 16.0152514,151.721263 C7.16998106,151.721263 0,144.550569 0,135.705552 C0,126.860535 7.16998106,119.689842 16.0152514,119.689842 C24.8605217,119.689842 32.0314202,126.860535 32.0314202,135.705552" id="Fill-5" fill="#01459B"></path>
                    <g id="Group-10" transform="translate(117.143480, -0.000000)" fill="#4A90E2">
                        <path d="M31.9032283,16.6919871 C31.9032283,25.5152705 24.7871214,32.6683443 16.0094362,32.6683443 C7.23175112,32.6683443 0.116554641,25.5152705 0.116554641,16.6919871 C0.116554641,7.86870356 7.23175112,0.715629844 16.0094362,0.715629844 C24.7871214,0.715629844 31.9032283,7.86870356 31.9032283,16.6919871" id="Fill-7"></path>
                        <path d="M31.9032283,54.6586464 C31.9032283,63.4819299 24.7871214,70.6350036 16.0094362,70.6350036 C7.23175112,70.6350036 0.116554641,63.4819299 0.116554641,54.6586464 C0.116554641,45.8353629 7.23175112,38.6822892 16.0094362,38.6822892 C24.7871214,38.6822892 31.9032283,45.8353629 31.9032283,54.6586464" id="Fill-10"></path>
                        <path d="M31.9032283,91.0586947 C31.9032283,99.8819782 24.7871214,107.035052 16.0094362,107.035052 C7.23175112,107.035052 0.116554641,99.8819782 0.116554641,91.0586947 C0.116554641,82.2354112 7.23175112,75.0823375 16.0094362,75.0823375 C24.7871214,75.0823375 31.9032283,82.2354112 31.9032283,91.0586947" id="Fill-12"></path>
                        <path d="M31.9032283,127.964473 C31.9032283,136.787757 24.7871214,143.940831 16.0094362,143.940831 C7.23175112,143.940831 0.116554641,136.787757 0.116554641,127.964473 C0.116554641,119.14119 7.23175112,111.988116 16.0094362,111.988116 C24.7871214,111.988116 31.9032283,119.14119 31.9032283,127.964473" id="Fill-14"></path>
                        <path d="M31.9032283,164.114951 C31.9032283,172.938235 24.7871214,180.091308 16.0094362,180.091308 C7.23175112,180.091308 0.116554641,172.938235 0.116554641,164.114951 C0.116554641,155.291668 7.23175112,148.138594 16.0094362,148.138594 C24.7871214,148.138594 31.9032283,155.291668 31.9032283,164.114951" id="Fill-16"></path>
                    </g>
                    <g id="Group-24" transform="translate(234.286959, 53.796635)" fill="#6FC4D5">
                        <path d="M31.8933954,16.2136071 C31.8933954,25.1040574 24.7772885,32.3115836 15.9996033,32.3115836 C7.22191822,32.3115836 0.10672174,25.1040574 0.10672174,16.2136071 C0.10672174,7.32315673 7.22191822,0.115630545 15.9996033,0.115630545 C24.7772885,0.115630545 31.8933954,7.32315673 31.8933954,16.2136071" id="Fill-19"></path>
                        <path d="M31.8933954,60.6484302 C31.8933954,69.5388806 24.7772885,76.7464067 15.9996033,76.7464067 C7.22191822,76.7464067 0.10672174,69.5388806 0.10672174,60.6484302 C0.10672174,51.7579799 7.22191822,44.5504537 15.9996033,44.5504537 C24.7772885,44.5504537 31.8933954,51.7579799 31.8933954,60.6484302" id="Fill-22"></path>
                    </g>
                    <g id="left-lines" transform="translate(29.285870, 90.403972)"></g>
                </g>
            </g>
        </g>
    </g>
</svg>