<?xml version="1.0" encoding="UTF-8"?>
<svg width="167px" height="106px" viewBox="0 0 167 106" version="1.1" xmlns="http://www.w3.org/2000/svg" xmlns:xlink="http://www.w3.org/1999/xlink">
    <!-- Generator: Sketch 47 (45396) - http://www.bohemiancoding.com/sketch -->
    <title>Intervention</title>
    <desc>Created with Sketch.</desc>
    <defs></defs>
    <g id="diagram-vector-2" stroke="none" stroke-width="1" fill="none" fill-rule="evenodd">
        <g id="Pixel-Perfect-Export" transform="translate(0.000000, -255.000000)">
            <g id="diagram-vector-copy-3">
                <g id="Intervention" transform="translate(0.000000, 255.000000)">
                    <path d="M68.0906968,0 L2.39196457,93.1381471 C-2.5541247,100.145059 0.421330264,106 9.00287317,106 L167,106 L167,0 L68.0906968,0 Z" id="Fill-1" fill="#D3B43D"></path>
                    <g transform="translate(43.000000, 20.000000)" fill="#FFFFFF">
                        <path d="M2.37304688,64.234375 L0,64.234375 L0,50.015625 L2.37304688,50.015625 L2.37304688,64.234375 Z M7.4609375,53.6679688 L7.59765625,55.1914062 C7.94271006,54.651039 8.37727603,54.2294937 8.90136719,53.9267578 C9.42545835,53.6240219 10.0162728,53.4726562 10.6738281,53.4726562 C11.774094,53.4726562 12.6318329,53.8063118 13.2470703,54.4736328 C13.8623078,55.1409539 14.1699219,56.1809825 14.1699219,57.59375 L14.1699219,64.234375 L11.796875,64.234375 L11.796875,57.6132812 C11.796875,56.8190064 11.6324886,56.2542334 11.3037109,55.9189453 C10.9749333,55.5836572 10.4752638,55.4160156 9.8046875,55.4160156 C9.34244561,55.4160156 8.92903828,55.5185537 8.56445312,55.7236328 C8.19986797,55.928712 7.9003918,56.2102847 7.66601562,56.5683594 L7.66601562,64.234375 L5.29296875,64.234375 L5.29296875,53.6679688 L7.4609375,53.6679688 Z M19.5898438,51.0996094 L19.5898438,53.6679688 L21.484375,53.6679688 L21.484375,55.4257812 L19.5898438,55.4257812 L19.5898438,61.265625 C19.5898438,61.7018251 19.6842438,62.0126944 19.8730469,62.1982422 C20.0618499,62.38379 20.3124984,62.4765625 20.625,62.4765625 C20.755209,62.4765625 20.8821608,62.4651694 21.0058594,62.4423828 C21.1295579,62.4195962 21.2467442,62.3886721 21.3574219,62.3496094 L21.6113281,64.0878906 C21.4095042,64.1985683 21.1686212,64.2848304 20.8886719,64.3466797 C20.6087226,64.408529 20.3190119,64.4394531 20.0195312,64.4394531 C19.1471311,64.4394531 18.4635441,64.1839218 17.96875,63.6728516 C17.4739559,63.1617813 17.2265625,62.3593805 17.2265625,61.265625 L17.2265625,55.4257812 L15.6152344,55.4257812 L15.6152344,53.6679688 L17.2265625,53.6679688 L17.2265625,51.0996094 L19.5898438,51.0996094 Z M28.125,64.4394531 C26.6275967,64.4394531 25.4345748,63.9495492 24.5458984,62.9697266 C23.6572221,61.989904 23.2128906,60.7317785 23.2128906,59.1953125 L23.2128906,58.8046875 C23.2128906,57.2682215 23.6539669,55.9938202 24.5361328,54.9814453 C25.4182987,53.9690705 26.5234309,53.4661458 27.8515625,53.4726562 C29.2773509,53.4726562 30.3694624,53.903967 31.1279297,54.7666016 C31.886397,55.6292361 32.265625,56.7864511 32.265625,58.2382812 L32.265625,59.6347656 L25.6738281,59.6347656 L25.6542969,59.6835938 C25.6933596,60.5234417 25.9391253,61.2102838 26.3916016,61.7441406 C26.8440778,62.2779975 27.4706991,62.5449219 28.2714844,62.5449219 C28.9095084,62.5449219 29.4563779,62.4667977 29.9121094,62.3105469 C30.3678408,62.1542961 30.8072896,61.929689 31.2304688,61.6367188 L31.9921875,63.1894531 C31.5950501,63.5410174 31.0677116,63.8372384 30.4101562,64.078125 C29.7526009,64.3190116 28.9908897,64.4394531 28.125,64.4394531 Z M27.8515625,55.3769531 C27.2656221,55.3769531 26.7838561,55.6096982 26.40625,56.0751953 C26.0286439,56.5406924 25.7942713,57.1315068 25.703125,57.8476562 L25.7226562,57.8964844 L29.9121094,57.8964844 L29.9121094,57.6523438 C29.9121094,56.9817675 29.7412126,56.4348979 29.3994141,56.0117188 C29.0576155,55.5885396 28.5416701,55.3769531 27.8515625,55.3769531 Z M39.4433594,55.8066406 L38.4277344,55.7675781 C37.9654925,55.7675781 37.5797542,55.8652334 37.2705078,56.0605469 C36.9612615,56.2558604 36.7220061,56.5325503 36.5527344,56.890625 L36.5527344,64.234375 L34.1796875,64.234375 L34.1796875,53.6679688 L36.3476562,53.6679688 L36.5039062,55.2011719 C36.7708347,54.6608046 37.1142557,54.2376317 37.5341797,53.9316406 C37.9541037,53.6256495 38.4374973,53.4726562 38.984375,53.4726562 C39.1276049,53.4726562 39.2610671,53.4840494 39.3847656,53.5068359 C39.5084642,53.5296225 39.6223953,53.5572915 39.7265625,53.5898438 L39.4433594,55.8066406 Z M44.9902344,60.6601562 L45.1660156,61.5195312 L45.2246094,61.5195312 L45.4101562,60.6601562 L47.5097656,53.6679688 L49.9609375,53.6679688 L46.2109375,64.234375 L44.1503906,64.234375 L40.3808594,53.6679688 L42.8320312,53.6679688 L44.9902344,60.6601562 Z M55.8496094,64.4394531 C54.3522061,64.4394531 53.1591841,63.9495492 52.2705078,62.9697266 C51.3818315,61.989904 50.9375,60.7317785 50.9375,59.1953125 L50.9375,58.8046875 C50.9375,57.2682215 51.3785763,55.9938202 52.2607422,54.9814453 C53.1429081,53.9690705 54.2480402,53.4661458 55.5761719,53.4726562 C57.0019603,53.4726562 58.0940717,53.903967 58.8525391,54.7666016 C59.6110064,55.6292361 59.9902344,56.7864511 59.9902344,58.2382812 L59.9902344,59.6347656 L53.3984375,59.6347656 L53.3789062,59.6835938 C53.4179689,60.5234417 53.6637347,61.2102838 54.1162109,61.7441406 C54.5686872,62.2779975 55.1953085,62.5449219 55.9960938,62.5449219 C56.6341178,62.5449219 57.1809873,62.4667977 57.6367188,62.3105469 C58.0924502,62.1542961 58.5318989,61.929689 58.9550781,61.6367188 L59.7167969,63.1894531 C59.3196595,63.5410174 58.792321,63.8372384 58.1347656,64.078125 C57.4772103,64.3190116 56.7154991,64.4394531 55.8496094,64.4394531 Z M55.5761719,55.3769531 C54.9902314,55.3769531 54.5084654,55.6096982 54.1308594,56.0751953 C53.7532533,56.5406924 53.5188807,57.1315068 53.4277344,57.8476562 L53.4472656,57.8964844 L57.6367188,57.8964844 L57.6367188,57.6523438 C57.6367188,56.9817675 57.465822,56.4348979 57.1240234,56.0117188 C56.7822249,55.5885396 56.2662795,55.3769531 55.5761719,55.3769531 Z M64.0527344,53.6679688 L64.1894531,55.1914062 C64.5345069,54.651039 64.9690729,54.2294937 65.4931641,53.9267578 C66.0172552,53.6240219 66.6080696,53.4726562 67.265625,53.4726562 C68.3658909,53.4726562 69.2236297,53.8063118 69.8388672,54.4736328 C70.4541046,55.1409539 70.7617188,56.1809825 70.7617188,57.59375 L70.7617188,64.234375 L68.3886719,64.234375 L68.3886719,57.6132812 C68.3886719,56.8190064 68.2242855,56.2542334 67.8955078,55.9189453 C67.5667301,55.5836572 67.0670606,55.4160156 66.3964844,55.4160156 C65.9342425,55.4160156 65.5208352,55.5185537 65.15625,55.7236328 C64.7916648,55.928712 64.4921887,56.2102847 64.2578125,56.5683594 L64.2578125,64.234375 L61.8847656,64.234375 L61.8847656,53.6679688 L64.0527344,53.6679688 Z M76.1816406,51.0996094 L76.1816406,53.6679688 L78.0761719,53.6679688 L78.0761719,55.4257812 L76.1816406,55.4257812 L76.1816406,61.265625 C76.1816406,61.7018251 76.2760407,62.0126944 76.4648438,62.1982422 C76.6536468,62.38379 76.9042953,62.4765625 77.2167969,62.4765625 C77.3470059,62.4765625 77.4739577,62.4651694 77.5976562,62.4423828 C77.7213548,62.4195962 77.8385411,62.3886721 77.9492188,62.3496094 L78.203125,64.0878906 C78.0013011,64.1985683 77.7604181,64.2848304 77.4804688,64.3466797 C77.2005194,64.408529 76.9108088,64.4394531 76.6113281,64.4394531 C75.7389279,64.4394531 75.055341,64.1839218 74.5605469,63.6728516 C74.0657527,63.1617813 73.8183594,62.3593805 73.8183594,61.265625 L73.8183594,55.4257812 L72.2070312,55.4257812 L72.2070312,53.6679688 L73.8183594,53.6679688 L73.8183594,51.0996094 L76.1816406,51.0996094 Z M82.7148438,64.234375 L80.3417969,64.234375 L80.3417969,53.6679688 L82.7148438,53.6679688 L82.7148438,64.234375 Z M82.7148438,51.0800781 L80.3417969,51.0800781 L80.3417969,49 L82.7148438,49 L82.7148438,51.0800781 Z M84.9316406,58.8535156 C84.9316406,57.2844974 85.3613238,55.9954478 86.2207031,54.9863281 C87.0931033,53.9772085 88.2747321,53.4726562 89.765625,53.4726562 C91.2825597,53.4726562 92.4706988,53.9772085 93.3300781,54.9863281 C94.1959679,55.9889373 94.6289062,57.2779869 94.6289062,58.8535156 L94.6289062,59.0585938 C94.6289062,60.6471434 94.1959679,61.9427033 93.3300781,62.9453125 C92.4706988,63.9414112 91.28907,64.4394531 89.7851562,64.4394531 C88.274732,64.4394531 87.0865929,63.9381561 86.2207031,62.9355469 C85.3613238,61.9329377 84.9316406,60.6406329 84.9316406,59.0585938 L84.9316406,58.8535156 Z M87.3046875,59.0585938 C87.3046875,60.0872447 87.5065084,60.9270801 87.9101562,61.578125 C88.3072937,62.2226595 88.9322874,62.5449219 89.7851562,62.5449219 C90.6119833,62.5449219 91.2304667,62.2226595 91.640625,61.578125 C92.0572937,60.9270801 92.265625,60.0872447 92.265625,59.0585938 L92.265625,58.8535156 C92.265625,57.844396 92.0572937,57.0143262 91.640625,56.3632812 C91.2304667,55.7057259 90.6054729,55.3769531 89.765625,55.3769531 C88.9387979,55.3769531 88.3203146,55.7057259 87.9101562,56.3632812 C87.5065084,57.0208366 87.3046875,57.8509064 87.3046875,58.8535156 L87.3046875,59.0585938 Z M98.8476562,53.6679688 L98.984375,55.1914062 C99.3294288,54.651039 99.7639948,54.2294937 100.288086,53.9267578 C100.812177,53.6240219 101.402992,53.4726562 102.060547,53.4726562 C103.160813,53.4726562 104.018552,53.8063118 104.633789,54.4736328 C105.249027,55.1409539 105.556641,56.1809825 105.556641,57.59375 L105.556641,64.234375 L103.183594,64.234375 L103.183594,57.6132812 C103.183594,56.8190064 103.019207,56.2542334 102.69043,55.9189453 C102.361652,55.5836572 101.861983,55.4160156 101.191406,55.4160156 C100.729164,55.4160156 100.315757,55.5185537 99.9511719,55.7236328 C99.5865867,55.928712 99.2871105,56.2102847 99.0527344,56.5683594 L99.0527344,64.234375 L96.6796875,64.234375 L96.6796875,53.6679688 L98.8476562,53.6679688 Z"></path>
                        <path d="M72.2769136,4.18104676 L72.2769136,20.4953757 C72.2769136,21.5296754 71.4331694,22.3729984 70.398353,22.3729984 L68.1187301,22.3729984 C67.5020022,22.3729984 67.0025662,22.8721851 67.0025662,23.4886051 L67.0025662,27.9623768 L62.5000744,22.7625153 C62.2919761,22.5185945 61.9836122,22.3824527 61.6563302,22.3824527 L42.7647829,22.3824527 C41.7299666,22.3824527 40.8862223,21.5372389 40.8862223,20.5029391 L40.8862223,4.18104676 C40.8862223,3.14674705 41.7299666,2.30342407 42.7647829,2.30342407 L70.398353,2.30342407 C71.4331694,2.30342407 72.2769136,3.14674705 72.2769136,4.18104676 L72.2769136,4.18104676 Z M42.7647829,0.0797742229 C40.504078,0.0797742229 38.6614617,1.92147061 38.6614617,4.18104676 L38.6614617,20.4953757 C38.6614617,22.7549519 40.504078,24.5966483 42.7647829,24.5966483 L61.1568941,24.5966483 L66.340435,30.5925612 C66.658258,30.9556061 67.1028318,31.1654914 67.5833498,31.1654914 C68.4914153,31.1654914 69.2367858,30.4299474 69.2367858,29.5223352 L69.2367858,24.6042117 L70.407812,24.6042117 C72.6666251,24.6042117 74.5111333,22.7625153 74.5111333,20.5029391 L74.5111333,4.18104676 C74.5111333,1.92147061 72.6666251,0.0797742229 70.407812,0.0797742229 L42.7647829,0.0797742229 Z" id="Fill-57"></path>
                        <path d="M36.4017027,37.7702609 C36.5927748,37.8421135 36.7914142,37.8799307 36.9824863,37.8799307 C37.4459781,37.8799307 37.9000109,37.6794997 38.2178338,37.3070005 L43.4013747,31.3091967 L59.5952106,31.3091967 C60.2119384,31.3091967 60.7113745,30.8119008 60.7113745,30.19359 C60.7113745,29.5771701 60.2119384,29.0779834 59.5952106,29.0779834 L42.8924796,29.0779834 C42.5651977,29.0779834 42.2662928,29.2141252 42.0487354,29.4599369 L37.5538109,34.676816 L37.5538109,30.2030443 C37.5538109,29.5866244 37.0543748,29.0874377 36.437647,29.0874377 L34.1599158,29.0874377 C33.1250995,29.0874377 32.2794634,28.2441147 32.2794634,27.2079241 L32.2794634,10.895486 C32.2794634,9.86118633 33.1250995,9.01786335 34.1599158,9.01786335 C34.7766437,9.01786335 35.2760798,8.51678579 35.2760798,7.90036585 C35.2760798,7.28394591 34.7766437,6.7942135 34.1599158,6.7942135 C31.899211,6.7942135 30.0565946,8.63590989 30.0565946,10.895486 L30.0565946,27.2079241 C30.0565946,29.4675003 31.899211,31.3091967 34.1599158,31.3091967 L35.3309421,31.3091967 L35.3309421,36.2273202 C35.3309421,36.9269379 35.7471388,37.5339036 36.4017027,37.7702609" id="Fill-58"></path>
                        <path d="M57.9069653,12.7281063 C57.9069653,13.4598686 57.3129391,14.0535983 56.5808113,14.0535983 C55.8486834,14.0535983 55.256549,13.4598686 55.256549,12.7281063 C55.256549,11.996344 55.8486834,11.4026144 56.5808113,11.4026144 C57.3129391,11.4026144 57.9069653,11.996344 57.9069653,12.7281063" id="Fill-59"></path>
                        <path d="M53.467849,12.7281063 C53.467849,13.4598686 52.8738228,14.0535983 52.1416949,14.0535983 C51.4095671,14.0535983 50.8174326,13.4598686 50.8174326,12.7281063 C50.8174326,11.996344 51.4095671,11.4026144 52.1416949,11.4026144 C52.8738228,11.4026144 53.467849,11.996344 53.467849,12.7281063" id="Fill-60"></path>
                        <path d="M62.3458925,12.7281063 C62.3458925,13.4598686 61.7518663,14.0535983 61.0197384,14.0535983 C60.2895023,14.0535983 59.6954761,13.4598686 59.6954761,12.7281063 C59.6954761,11.996344 60.2895023,11.4026144 61.0197384,11.4026144 C61.7518663,11.4026144 62.3458925,11.996344 62.3458925,12.7281063" id="Fill-61"></path>
                    </g>
                </g>
            </g>
        </g>
    </g>
</svg>