<?xml version="1.0" encoding="UTF-8"?>
<svg width="183px" height="127px" viewBox="0 0 183 127" version="1.1" xmlns="http://www.w3.org/2000/svg" xmlns:xlink="http://www.w3.org/1999/xlink">
    <!-- Generator: Sketch 47 (45396) - http://www.bohemiancoding.com/sketch -->
    <title>Context</title>
    <desc>Created with Sketch.</desc>
    <defs>
        <path d="M0,126.045588 L78.4207927,126.045588 L80.1971175,126.045588 L183,126.045588 L117.194681,31.4651276 C112.33203,24.4812072 101.451657,18.8396911 93.0148812,18.8396911 L17.2510988,18.8396911 C17.2510988,18.8396911 11.5007325,12.5749901 0,0.0455880827 L0,126.045588 Z" id="path-1"></path>
    </defs>
    <g id="diagram-vector-2" stroke="none" stroke-width="1" fill="none" fill-rule="evenodd">
        <g id="Pixel-Perfect" transform="translate(-254.000000, -128.000000)">
            <g id="diagram-vector-copy-3">
                <g id="Context" transform="translate(254.000000, 128.000000)">
                    <g id="box-3">
                        <use fill="#FFFFFF" fill-rule="evenodd" xlink:href="#path-1"></use>
                        <path stroke="#979797" stroke-width="1" d="M0.5,125.545588 L182.043005,125.545588 L116.784346,31.7508289 C112.03022,24.922776 101.31448,19.3396911 93.0148812,19.3396911 L17.0313477,19.3396911 L12.5699733,14.4792743 C7.8760948,9.36555739 7.56106691,9.0223522 1.12069212,2.00592568 L0.5,125.545588 Z"></path>
                    </g>
                    <g transform="translate(36.000000, 37.000000)" fill="#A2B86C">
                        <path d="M42.2541239,20.5959091 L42.2541239,15.6148016 C42.2541239,16.9899666 38.9540008,18.1053554 34.8819763,18.1053554 C30.8123945,18.1053554 27.5220423,16.9899666 27.5220423,15.6148016 L27.5220423,20.5959091 C27.5220423,21.9710741 30.8123945,23.0782159 34.8819763,23.0782159 C38.9540008,23.0782159 42.2541239,21.9710741 42.2541239,20.5959091" id="Fill-96"></path>
                        <path d="M34.8827091,1.32174473 C38.9351918,1.32174473 41.5147107,2.42063971 41.5147107,3.18553659 C41.5147107,3.94424832 38.9351918,5.05345188 34.8827091,5.05345188 C30.8399973,5.05345188 28.2604785,3.94424832 28.2604785,3.18553659 C28.2604785,2.42063971 30.8399973,1.32174473 34.8827091,1.32174473 M34.8827091,10.6427657 C38.9522909,10.6427657 42.2548567,9.53356218 42.2548567,8.16045888 L42.2548567,3.17935144 C42.2548567,1.81243329 38.9522909,0.697044579 34.8827091,0.697044579 C30.8131273,0.697044579 27.5203324,1.81243329 27.5203324,3.18553659 L27.5203324,8.16045888 C27.5203324,9.53356218 30.8131273,10.6427657 34.8827091,10.6427657" id="Fill-97"></path>
                        <path d="M20.1567344,40.4875576 C16.0895953,40.4875576 12.7845868,39.3804157 12.7845868,38.0052507 L12.7845868,42.9781113 C12.7845868,44.3532763 16.0895953,45.4707267 20.1567344,45.4707267 C24.2263162,45.4707267 27.5215538,44.3532763 27.5215538,42.9781113 L27.5215538,38.0052507 C27.5215538,39.3804157 24.2263162,40.4875576 20.1567344,40.4875576" id="Fill-98"></path>
                        <path d="M49.6182105,34.2739559 C45.5486287,34.2739559 42.2533911,33.1565055 42.2533911,31.7834022 L42.2533911,34.7192867 L27.5213095,34.7192867 L27.5213095,31.7834022 C27.5213095,33.1565055 24.2187437,34.2739559 20.1467192,34.2739559 C16.089351,34.2739559 12.7867852,33.1565055 12.7867852,31.7834022 L12.7867852,36.7562628 C12.7867852,38.1314278 16.089351,39.2468165 20.1467192,39.2468165 C24.2187437,39.2468165 27.5213095,38.1314278 27.5213095,36.7562628 L27.5213095,36.3129937 L42.2533911,36.3129937 L42.2533911,36.7562628 C42.2533911,38.1314278 45.5486287,39.2468165 49.6182105,39.2468165 C53.6853496,39.2468165 56.9903581,38.1314278 56.9903581,36.7562628 L56.9903581,31.7834022 C56.9903581,33.1565055 53.6853496,34.2739559 49.6182105,34.2739559" id="Fill-99"></path>
                        <path d="M49.6182105,40.4875576 C45.5486287,40.4875576 42.2533911,39.3804157 42.2533911,38.0052507 L42.2533911,42.9781113 C42.2533911,44.3532763 45.5486287,45.4707267 49.6182105,45.4707267 C53.6853496,45.4707267 56.9903581,44.3532763 56.9903581,42.9781113 L56.9903581,38.0052507 C56.9903581,39.3804157 53.6853496,40.4875576 49.6182105,40.4875576" id="Fill-100"></path>
                        <path d="M49.6182105,27.4348294 C45.5657278,27.4348294 42.9862089,26.3256258 42.9862089,25.5710376 C42.9862089,24.804079 45.5657278,23.7031223 49.6182105,23.7031223 C53.6706932,23.7031223 56.2477693,24.804079 56.2477693,25.5710376 C56.2477693,26.3256258 53.6706932,27.4348294 49.6182105,27.4348294 M26.7787208,25.5710376 C26.7787208,26.3256258 24.1992019,27.4348294 20.1564901,27.4348294 C16.1064501,27.4348294 13.5244885,26.3256258 13.5244885,25.5710376 C13.5244885,24.804079 16.1064501,23.7031223 20.1564901,23.7031223 C24.1992019,23.7031223 26.7787208,24.804079 26.7787208,25.5710376 M50.7638491,23.1175947 L42.2533911,11.6255861 L42.2533911,9.4009938 C42.2533911,10.7740971 38.953268,11.8915475 34.8836862,11.8915475 C30.8116617,11.8915475 27.5213095,10.7740971 27.5213095,9.4009938 L27.5213095,11.6255861 L19.0108515,23.1175947 C15.4884404,23.3052109 12.7867852,24.3278224 12.7867852,25.5710376 L12.7867852,30.5418364 C12.7867852,31.9149397 16.089351,33.0241433 20.1467192,33.0241433 C24.2187437,33.0241433 27.5213095,31.9149397 27.5213095,30.5418364 L27.5213095,25.5710376 C27.5213095,24.3216373 24.7903417,23.2969641 21.2386178,23.1175947 L27.5750495,14.5614706 C27.8632912,15.8500435 31.0070798,16.8644081 34.8836862,16.8644081 C38.7676208,16.8644081 41.9040812,15.8500435 42.1996511,14.5614706 L48.5263119,23.1175947 C44.9843589,23.2969641 42.2533911,24.3216373 42.2533911,25.5710376 L42.2533911,30.5418364 C42.2533911,31.9149397 45.5486287,33.0241433 49.6182105,33.0241433 C53.6853496,33.0241433 56.9903581,31.9149397 56.9903581,30.5418364 L56.9903581,25.5710376 C56.9903581,24.3278224 54.2887029,23.3052109 50.7638491,23.1175947" id="Fill-101"></path>
                        <path d="M10.8886719,64.7070312 L10.9082031,64.765625 C10.9342449,66.2044343 10.4671272,67.37467 9.50683594,68.2763672 C8.54654468,69.1780644 7.24610195,69.6289062 5.60546875,69.6289062 C3.9453042,69.6289062 2.59603384,69.0706436 1.55761719,67.9541016 C0.519200537,66.8375595 0,65.4101649 0,63.671875 L0,60.9667969 C0,59.2350174 0.512690186,57.8076228 1.53808594,56.6845703 C2.56348169,55.5615178 3.89647617,55 5.53710937,55 C7.21680527,55 8.54003423,55.4410763 9.50683594,56.3232422 C10.4736376,57.2054081 10.9440105,58.3919196 10.9179687,59.8828125 L10.8984375,59.9414062 L8.60351562,59.9414062 C8.60351562,58.9843702 8.34472915,58.238935 7.82714844,57.7050781 C7.30956772,57.1712213 6.546229,56.9042969 5.53710937,56.9042969 C4.56705244,56.9042969 3.79720337,57.2884076 3.22753906,58.0566406 C2.65787476,58.8248736 2.37304687,59.7884057 2.37304687,60.9472656 L2.37304687,63.671875 C2.37304687,64.8437559 2.66438511,65.8137982 3.24707031,66.5820312 C3.82975552,67.3502643 4.61588047,67.734375 5.60546875,67.734375 C6.58854658,67.734375 7.33398184,67.4707058 7.84179687,66.9433594 C8.34961191,66.416013 8.60351562,65.6705777 8.60351562,64.7070312 L10.8886719,64.7070312 Z M12.4902344,64.0429688 C12.4902344,62.4739505 12.9199176,61.1849009 13.7792969,60.1757812 C14.6516971,59.1666616 15.8333259,58.6621094 17.3242188,58.6621094 C18.8411534,58.6621094 20.0292926,59.1666616 20.8886719,60.1757812 C21.7545616,61.1783904 22.1875,62.46744 22.1875,64.0429688 L22.1875,64.2480469 C22.1875,65.8365965 21.7545616,67.1321564 20.8886719,68.1347656 C20.0292926,69.1308644 18.8476638,69.6289062 17.34375,69.6289062 C15.8333258,69.6289062 14.6451866,69.1276092 13.7792969,68.125 C12.9199176,67.1223908 12.4902344,65.830086 12.4902344,64.2480469 L12.4902344,64.0429688 Z M14.8632812,64.2480469 C14.8632812,65.2766979 15.0651021,66.1165332 15.46875,66.7675781 C15.8658874,67.4121126 16.4908812,67.734375 17.34375,67.734375 C18.1705771,67.734375 18.7890604,67.4121126 19.1992188,66.7675781 C19.6158875,66.1165332 19.8242188,65.2766979 19.8242188,64.2480469 L19.8242188,64.0429688 C19.8242188,63.0338491 19.6158875,62.2037793 19.1992188,61.5527344 C18.7890604,60.895179 18.1640667,60.5664062 17.3242188,60.5664062 C16.4973917,60.5664062 15.8789083,60.895179 15.46875,61.5527344 C15.0651021,62.2102897 14.8632812,63.0403596 14.8632812,64.0429688 L14.8632812,64.2480469 Z M26.40625,58.8574219 L26.5429688,60.3808594 C26.8880226,59.8404921 27.3225885,59.4189468 27.8466797,59.1162109 C28.3707708,58.813475 28.9615853,58.6621094 29.6191406,58.6621094 C30.7194065,58.6621094 31.5771454,58.9957649 32.1923828,59.6630859 C32.8076203,60.330407 33.1152344,61.3704356 33.1152344,62.7832031 L33.1152344,69.4238281 L30.7421875,69.4238281 L30.7421875,62.8027344 C30.7421875,62.0084596 30.5778011,61.4436866 30.2490234,61.1083984 C29.9202458,60.7731103 29.4205763,60.6054688 28.75,60.6054688 C28.2877581,60.6054688 27.8743508,60.7080068 27.5097656,60.9130859 C27.1451805,61.1181651 26.8457043,61.3997378 26.6113281,61.7578125 L26.6113281,69.4238281 L24.2382812,69.4238281 L24.2382812,58.8574219 L26.40625,58.8574219 Z M38.5351562,56.2890625 L38.5351562,58.8574219 L40.4296875,58.8574219 L40.4296875,60.6152344 L38.5351562,60.6152344 L38.5351562,66.4550781 C38.5351562,66.8912782 38.6295563,67.2021475 38.8183594,67.3876953 C39.0071624,67.5732431 39.2578109,67.6660156 39.5703125,67.6660156 C39.7005215,67.6660156 39.8274733,67.6546225 39.9511719,67.6318359 C40.0748704,67.6090494 40.1920567,67.5781252 40.3027344,67.5390625 L40.5566406,69.2773438 C40.3548167,69.3880214 40.1139337,69.4742835 39.8339844,69.5361328 C39.5540351,69.5979821 39.2643244,69.6289062 38.9648438,69.6289062 C38.0924436,69.6289062 37.4088566,69.373375 36.9140625,68.8623047 C36.4192684,68.3512344 36.171875,67.5488336 36.171875,66.4550781 L36.171875,60.6152344 L34.5605469,60.6152344 L34.5605469,58.8574219 L36.171875,58.8574219 L36.171875,56.2890625 L38.5351562,56.2890625 Z M47.0703125,69.6289062 C45.5729092,69.6289062 44.3798873,69.1390023 43.4912109,68.1591797 C42.6025346,67.1793571 42.1582031,65.9212316 42.1582031,64.3847656 L42.1582031,63.9941406 C42.1582031,62.4576746 42.5992794,61.1832733 43.4814453,60.1708984 C44.3636112,59.1585236 45.4687434,58.6555989 46.796875,58.6621094 C48.2226634,58.6621094 49.3147749,59.0934202 50.0732422,59.9560547 C50.8317095,60.8186892 51.2109375,61.9759042 51.2109375,63.4277344 L51.2109375,64.8242188 L44.6191406,64.8242188 L44.5996094,64.8730469 C44.6386721,65.7128948 44.8844378,66.3997369 45.3369141,66.9335938 C45.7893903,67.4674506 46.4160116,67.734375 47.2167969,67.734375 C47.8548209,67.734375 48.4016904,67.6562508 48.8574219,67.5 C49.3131533,67.3437492 49.7526021,67.1191421 50.1757812,66.8261719 L50.9375,68.3789062 C50.5403626,68.7304705 50.0130241,69.0266915 49.3554688,69.2675781 C48.6979134,69.5084647 47.9362022,69.6289062 47.0703125,69.6289062 Z M46.796875,60.5664062 C46.2109346,60.5664062 45.7291686,60.7991513 45.3515625,61.2646484 C44.9739564,61.7301456 44.7395838,62.32096 44.6484375,63.0371094 L44.6679688,63.0859375 L48.8574219,63.0859375 L48.8574219,62.8417969 C48.8574219,62.1712206 48.6865251,61.6243511 48.3447266,61.2011719 C48.002928,60.7779927 47.4869826,60.5664062 46.796875,60.5664062 Z M56.9140625,62.4804688 L58.8671875,58.8574219 L61.5917969,58.8574219 L58.2714844,64.0820312 L61.6894531,69.4238281 L58.9941406,69.4238281 L56.953125,65.7128906 L54.9121094,69.4238281 L52.1972656,69.4238281 L55.6152344,64.0820312 L52.2949219,58.8574219 L54.9902344,58.8574219 L56.9140625,62.4804688 Z M66.2109375,56.2890625 L66.2109375,58.8574219 L68.1054688,58.8574219 L68.1054688,60.6152344 L66.2109375,60.6152344 L66.2109375,66.4550781 C66.2109375,66.8912782 66.3053376,67.2021475 66.4941406,67.3876953 C66.6829437,67.5732431 66.9335922,67.6660156 67.2460938,67.6660156 C67.3763027,67.6660156 67.5032546,67.6546225 67.6269531,67.6318359 C67.7506517,67.6090494 67.867838,67.5781252 67.9785156,67.5390625 L68.2324219,69.2773438 C68.0305979,69.3880214 67.7897149,69.4742835 67.5097656,69.5361328 C67.2298163,69.5979821 66.9401057,69.6289062 66.640625,69.6289062 C65.7682248,69.6289062 65.0846379,69.373375 64.5898438,68.8623047 C64.0950496,68.3512344 63.8476562,67.5488336 63.8476562,66.4550781 L63.8476562,60.6152344 L62.2363281,60.6152344 L62.2363281,58.8574219 L63.8476562,58.8574219 L63.8476562,56.2890625 L66.2109375,56.2890625 Z"></path>
                    </g>
                </g>
            </g>
        </g>
    </g>
</svg>