<?xml version="1.0" encoding="UTF-8"?>
<svg width="582px" height="582px" viewBox="0 0 582 582" version="1.1" xmlns="http://www.w3.org/2000/svg" xmlns:xlink="http://www.w3.org/1999/xlink">
    <!-- Generator: Sketch 46.2 (44496) - http://www.bohemiancoding.com/sketch -->
    <title>team</title>
    <desc>Created with Sketch.</desc>
    <defs>
        <polygon id="path-1" points="0 612 582 612 582 0 0 0"></polygon>
    </defs>
    <g id="All-Pages" stroke="none" stroke-width="1" fill="none" fill-rule="evenodd" opacity="0.03">
        <g id="Home" transform="translate(-86.000000, -1979.000000)">
            <g id="Group-8" transform="translate(86.000000, 1949.000000)">
                <g id="team">
                    <mask id="mask-2" fill="white">
                        <use xlink:href="#path-1"></use>
                    </mask>
                    <g id="Clip-2"></g>
                    <path d="M531.708152,593.621531 L412.219688,593.621531 L412.219688,561.617215 C412.219688,549.622559 409.57227,539.550094 405.522141,531.225902 L426.978844,522.823277 L445.392551,540.760699 C447.108996,542.432813 449.410852,543.368332 451.804781,543.368332 C451.852523,543.368332 451.901402,543.368332 451.949145,543.367195 C454.395363,543.328547 456.7245,542.316867 458.421621,540.554953 L475.819102,522.501586 L510.40377,536.369555 C510.56632,536.435484 510.654984,536.469586 510.822082,536.526422 C511.674621,536.828789 531.708152,544.254973 531.708152,569.875477 L531.708152,593.621531 Z M372.367465,500.432191 L324.83898,481.370555 L324.83898,471.944883 C337.878281,464.692617 347.81093,452.519496 352.122504,437.949035 C368.385539,437.498895 381.480539,424.139039 381.480539,407.771426 C381.480539,397.961543 376.774523,389.231543 369.506344,383.711637 L369.506344,362.171953 C369.506344,350.739973 366.929402,339.900223 362.340469,330.188098 L444.164895,330.188098 C444.046676,336.405949 443.802281,342.614707 443.448762,348.774586 C412.182176,351.876691 387.680203,378.325863 387.680203,410.393836 L387.680203,426.656871 C381.78859,431.425406 378.010137,438.704953 378.010137,446.856363 C378.010137,460.594746 388.731668,471.845988 402.243844,472.7565 C405.900668,483.965684 413.592844,493.362938 423.599379,499.232953 L423.599379,504.408434 L394.82107,515.677863 C387.198234,507.52759 378.592137,502.581727 372.367465,500.432191 Z M291.403535,503.948063 L277.016086,489.934594 L277.016086,478.371891 C280.102277,478.885688 283.266902,479.166457 286.498594,479.166457 L296.981414,479.166457 C300.211969,479.166457 303.375457,478.885688 306.460512,478.373027 L306.460512,487.731633 C306.460512,487.743 306.460512,487.755504 306.460512,487.765734 L306.460512,488.322727 L291.403535,503.948063 Z M209.863289,500.418551 C203.652258,502.555582 195.055254,507.486668 187.431281,515.615344 L159.619184,504.461859 L159.619184,499.235227 C169.631402,493.362938 177.324715,483.958863 180.981539,472.740586 C194.351625,471.684574 204.912879,460.491305 204.912879,446.856363 C204.912879,438.748148 201.174211,431.499293 195.33716,426.728484 L195.33716,410.394973 C195.33716,377.976891 170.295246,351.315152 138.544418,348.696152 C138.193172,342.565828 137.952188,336.382078 137.835105,330.189234 L220.882641,330.189234 C216.29598,339.901359 213.717902,350.739973 213.717902,362.174227 L213.717902,383.617289 C206.378109,389.130375 201.620941,397.905844 201.620941,407.773699 C201.620941,424.266352 214.917141,437.708051 231.354094,437.960402 C235.666805,452.526316 245.60059,464.694891 258.637617,471.94602 L258.637617,481.318266 L209.863289,500.418551 Z M112.19073,593.621531 L50.4896367,593.621531 L50.4896367,569.87434 C50.4896367,544.253836 70.5186211,536.828789 71.2972734,536.55143 C71.4393633,536.503688 71.5814531,536.452535 71.7212695,536.397973 L106.380961,522.824414 L124.798078,540.761836 C126.514523,542.433949 128.815242,543.368332 131.208035,543.368332 C131.255777,543.368332 131.305793,543.368332 131.354672,543.367195 C133.799754,543.328547 136.128891,542.316867 137.824875,540.554953 L155.221219,522.501586 L176.724527,531.123598 C172.647117,539.46825 169.975828,549.574816 169.975828,561.618352 L169.975828,593.621531 L112.19073,593.621531 Z M18.5501133,330.189234 L119.450953,330.189234 C119.565762,336.519621 119.810156,342.839777 120.159129,349.109918 C90.1940859,353.419219 67.0868672,379.254563 67.0868672,410.394973 L67.0868672,426.655734 C61.1929805,431.425406 57.4133906,438.704953 57.4133906,446.856363 C57.4133906,460.592473 68.1360586,471.844852 81.6482344,472.7565 C85.3039219,483.965684 92.9949609,493.362938 103.001496,499.232953 L103.001496,504.408434 L92.9631328,508.339207 C46.9714922,459.743344 20.7598945,396.849832 18.5501133,330.189234 Z M215.763996,58.9431328 C198.238066,73.3339922 182.154633,92.8775977 168.168445,117.140859 C157.775426,135.170355 148.935164,155.149324 141.740871,176.582156 C115.708875,171.50216 92.3981836,165.077426 72.9830273,157.505742 C108.178113,110.68998 158.080066,75.5289961 215.763996,58.9431328 Z M397.908398,126.318727 C407.292012,142.597676 415.350211,160.583977 421.994332,179.87523 C384.942984,185.941898 343.364086,189.433898 300.189234,189.866988 L300.189234,48.8888555 C336.758613,52.7946211 371.164816,79.9280977 397.908398,126.318727 Z M519.915832,172.940109 C546.534375,214.063184 561.776637,261.93382 563.44875,311.810766 L462.545637,311.810766 C461.798813,270.446707 456.019734,230.551289 445.713105,194.218348 C473.96625,188.60523 499.157074,181.433672 519.915832,172.940109 Z M441.978984,505.429207 C443.862527,505.655414 445.776762,505.786137 447.719414,505.786137 L456.100441,505.786137 C458.04423,505.786137 459.955055,505.655414 461.839734,505.429207 L461.839734,510.52398 L451.600172,521.147754 L441.978984,511.777781 L441.978984,505.429207 Z M418.270441,433.647691 C430.241227,432.349559 451.444441,428.165297 467.780227,414.522398 C471.438188,420.798223 477.100184,427.58557 485.546004,431.549309 L485.546004,457.962105 C485.546004,474.197859 472.336195,487.407668 456.099305,487.407668 L447.718277,487.407668 C431.48025,487.407668 418.270441,474.197859 418.270441,457.962105 L418.270441,433.647691 Z M503.924473,440.665793 C505.859168,442.04577 507.127746,444.305566 507.127746,446.8575 C507.127746,449.41057 505.859168,451.668094 503.924473,453.049207 L503.924473,440.665793 Z M449.612051,366.846141 L454.006605,366.846141 C478.019789,366.846141 497.553164,386.381789 497.553164,410.394973 L497.553164,416.30932 C497.380383,416.254758 497.205328,416.210426 497.028,416.166094 C496.943883,416.143359 496.859766,416.114941 496.774512,416.093344 C483.962555,413.179934 479.773746,396.082547 479.743055,395.952961 C478.946215,392.431406 476.160117,389.703281 472.621512,388.980328 C469.082906,388.255102 465.452227,389.671453 463.33452,392.597367 C446.692957,415.602281 409.597277,415.866 409.110762,415.866 C409.100531,415.866 409.089164,415.866 409.08007,415.866 C408.764063,415.866 408.450328,415.883051 408.142277,415.913742 C408.043383,415.923973 407.946762,415.944434 407.847867,415.958074 C407.640984,415.985355 407.434102,416.010363 407.231766,416.052422 C407.094223,416.079703 406.96009,416.121762 406.823684,416.155863 C406.66568,416.195648 406.506539,416.22975 406.353082,416.277492 C406.253051,416.308184 406.158703,416.350242 406.060945,416.384344 L406.060945,410.394973 C406.060945,386.381789 425.59773,366.846141 449.612051,366.846141 Z M350.08323,311.811902 C337.546359,297.953027 319.922672,288.796758 300.189234,287.273555 L300.189234,208.248867 C345.284004,207.799863 388.802145,204.049828 427.572211,197.53302 C437.717426,232.67127 443.41125,271.472027 444.164895,311.811902 L350.111648,311.811902 C350.101418,311.810766 350.092324,311.811902 350.08323,311.811902 Z M354.486879,396.405375 C359.45093,397.808086 363.10207,402.366328 363.10207,407.771426 C363.10207,413.176523 359.45093,417.734766 354.486879,419.13634 L354.486879,396.405375 Z M281.810766,48.8888555 L281.810766,189.866988 C238.737082,189.431625 197.125219,185.925984 160.015898,179.846813 C166.657746,160.566926 174.712535,142.591992 184.091602,126.318727 C210.835184,79.9280977 245.241387,52.7946211 281.810766,48.8888555 Z M351.127875,362.174227 L351.127875,373.402734 C351.066492,373.353855 351.000563,373.311797 350.93918,373.262918 C350.805047,373.15834 350.669777,373.054898 350.531098,372.958277 C350.423109,372.883254 350.311711,372.813914 350.200313,372.744574 C350.06277,372.657047 349.925227,372.570656 349.783137,372.489949 C349.652414,372.417199 349.517145,372.352406 349.383012,372.284203 C349.253426,372.220547 349.126113,372.155754 348.995391,372.096645 C348.833977,372.026168 348.666879,371.965922 348.502055,371.903402 C348.386109,371.860207 348.273574,371.817012 348.157629,371.777227 C347.972344,371.715844 347.781375,371.666965 347.591543,371.618086 C347.506289,371.595352 347.424445,371.565797 347.338055,371.545336 C329.881465,367.575914 324.350191,344.815395 324.303586,344.618742 C323.507883,341.097188 320.720648,338.367926 317.182043,337.644973 C313.645711,336.917473 310.012758,338.336098 307.895051,341.262012 C286.375828,371.013352 238.839387,371.316855 238.211918,371.316855 C238.210781,371.316855 238.209645,371.316855 238.209645,371.316855 C238.197141,371.316855 238.18691,371.316855 238.17668,371.316855 C237.860672,371.316855 237.546938,371.33277 237.238887,371.363461 C237.142266,371.374828 237.049055,371.394152 236.952434,371.407793 C236.744414,371.435074 236.532984,371.461219 236.328375,371.502141 C236.197652,371.528285 236.07034,371.570344 235.940754,371.602172 C235.77593,371.643094 235.609969,371.679469 235.449691,371.728348 C235.300781,371.774953 235.158691,371.835199 235.013191,371.888625 C234.879059,371.937504 234.740379,371.980699 234.609656,372.036398 C234.441422,372.106875 234.281145,372.192129 234.120867,372.270563 C234.016289,372.321715 233.910574,372.366047 233.80827,372.420609 C233.643445,372.509273 233.487715,372.611578 233.328574,372.709336 C233.237637,372.767309 233.142152,372.818461 233.051215,372.878707 C232.903441,372.979875 232.763625,373.091273 232.620398,373.200398 C232.528324,373.269738 232.43284,373.333395 232.343039,373.407281 C232.258922,373.476621 232.180488,373.555055 232.097508,373.627805 L232.097508,362.17309 C232.097508,330.868992 257.562281,305.404219 288.864105,305.404219 L294.361277,305.404219 C325.663102,305.403082 351.127875,330.871266 351.127875,362.174227 Z M18.55125,311.810766 C20.2506445,260.765273 36.0453516,213.231105 62.1671484,172.983305 C82.8747539,181.445039 108.068988,188.589316 136.294852,194.195613 C125.981402,230.533102 120.201188,270.437613 119.453227,311.810766 L18.55125,311.810766 Z M176.958691,416.311594 C176.7825,416.254758 176.599488,416.210426 176.419887,416.16382 C176.33918,416.143359 176.260746,416.114941 176.177766,416.095617 C163.370355,413.182207 159.18041,396.08141 159.149719,395.952961 C158.352879,392.431406 155.566781,389.703281 152.028176,388.980328 C148.48957,388.255102 144.856617,389.671453 142.74232,392.597367 C126.089391,415.614785 88.9641562,415.867137 88.5151523,415.867137 C88.5049219,415.867137 88.4946914,415.867137 88.4844609,415.867137 C88.1684531,415.867137 87.8547187,415.883051 87.5478047,415.913742 C87.4511836,415.925109 87.3579727,415.944434 87.2613516,415.958074 C87.0521953,415.985355 86.8419023,416.0115 86.637293,416.052422 C86.5065703,416.079703 86.3781211,416.120625 86.2485352,416.152453 C86.0848477,416.193375 85.9188867,416.22975 85.7586094,416.278629 C85.6597148,416.30932 85.5665039,416.351379 85.4687461,416.38548 L85.4687461,410.396109 C85.4687461,386.382926 105.003258,366.846141 129.017578,366.846141 L133.414406,366.846141 C157.426453,366.846141 176.960965,386.382926 176.960965,410.396109 L176.960965,416.311594 L176.958691,416.311594 Z M183.328863,440.662383 C185.264695,442.044633 186.53441,444.30443 186.53441,446.8575 C186.53441,449.411707 185.264695,451.66923 183.328863,453.050344 L183.328863,440.662383 Z M75.7918594,446.8575 C75.7918594,444.17598 77.1911602,441.818426 79.2940898,440.461184 L79.2940898,453.251543 C77.1911602,451.896574 75.7918594,449.53902 75.7918594,446.8575 Z M135.504832,487.407668 L127.122668,487.407668 C110.883504,487.407668 97.674832,474.197859 97.674832,457.960969 L97.674832,433.657922 C109.642207,432.363199 130.838602,428.172117 147.18348,414.522398 C150.843715,420.799359 156.504574,427.586707 164.949258,431.550445 L164.949258,457.962105 C164.949258,474.197859 151.740586,487.407668 135.504832,487.407668 Z M121.381102,505.430344 C123.264645,505.656551 125.177742,505.787273 127.122668,505.787273 L135.504832,505.787273 C137.446348,505.787273 139.359445,505.656551 141.240715,505.430344 L141.240715,510.52398 L131.003426,521.147754 L121.382238,511.778918 L121.382238,505.430344 L121.381102,505.430344 Z M232.073637,311.810766 L137.835105,311.810766 C138.58875,271.46407 144.284848,232.655355 154.432336,197.512559 C193.258102,204.038461 236.821711,207.796453 281.810766,208.248867 L281.810766,287.366766 C262.546793,289.169602 245.373246,298.266762 233.092137,311.871012 C232.756805,311.8335 232.418063,311.810766 232.073637,311.810766 Z M220.000547,407.771426 C220.000547,402.232195 223.835836,397.585289 228.988582,396.309891 L228.988582,419.232961 C223.835836,417.958699 220.000547,413.311793 220.000547,407.771426 Z M296.981414,460.789125 L286.498594,460.789125 C264.921398,460.789125 247.367051,443.235914 247.367051,421.658719 L247.367051,389.215629 C262.032996,387.865207 291.032965,382.767023 312.215719,363.750855 C316.686434,372.211453 324.179684,382.03384 336.109547,387.128613 L336.109547,421.658719 C336.10841,443.235914 318.556336,460.789125 296.981414,460.789125 Z M396.389742,446.8575 C396.389742,444.17598 397.789043,441.817289 399.891973,440.461184 L399.891973,453.251543 C397.787906,451.896574 396.389742,449.53902 396.389742,446.8575 Z M480.217066,504.461859 L480.217066,499.232953 C490.229285,493.361801 497.922598,483.957727 501.578285,472.740586 C514.947234,471.684574 525.508488,460.491305 525.508488,446.856363 C525.508488,438.748148 521.770957,431.499293 515.933906,426.728484 L515.933906,410.394973 C515.933906,378.90559 492.303797,352.848586 461.847691,348.981469 C462.194391,342.751113 462.435375,336.474152 462.550184,330.189234 L563.451023,330.189234 C561.242379,396.706605 535.113762,459.536461 489.275578,508.094813 L480.217066,504.461859 Z M517.080855,519.244887 L507.518777,515.410734 C555.605391,461.919023 582,393.211195 582,321 C582,261.92359 564.139875,205.080832 531.599027,157.296586 C531.204586,156.51907 530.715797,155.821125 530.146301,155.210707 C515.890711,134.664516 498.920637,115.819992 479.446371,99.2545898 C475.580391,95.9660625 469.781988,96.4332539 466.493461,100.300371 C463.204934,104.166352 463.672125,109.967027 467.538105,113.254418 C483.161168,126.543797 497.066648,141.398438 509.129508,157.475051 C489.679113,165.077426 466.329773,171.515801 440.264813,176.602617 C433.069383,155.164102 424.226848,135.176039 413.830418,117.141996 C399.818086,92.8332656 383.699414,73.2589687 366.134836,58.8624258 C393.474059,66.6785039 419.516285,78.7891055 443.416934,94.9339219 C447.622793,97.7734453 453.333668,96.6685547 456.175465,92.4626953 C459.014988,88.2579727 457.910098,82.5448242 453.704238,79.7041641 C405.576703,47.1871875 349.313672,30 291,30 C213.270035,30 140.194934,60.2685469 85.2334453,115.233445 C30.2685469,170.194934 0,243.271172 0,321 C0,393.304406 26.4309844,462.021328 74.5960312,515.532363 L65.1544453,519.230109 C61.6772227,520.486184 32.1100312,532.279641 32.1100312,569.87434 L32.1100312,602.801672 C32.1100312,607.878258 36.2238164,612 41.3004023,612 L176.563113,612 C177.006434,612 177.438387,611.957941 177.865793,611.896559 C178.293199,611.957941 178.724016,612 179.167336,612 L216.558562,612 C221.635148,612 225.748934,607.887352 225.748934,602.810766 C225.748934,597.73418 221.635148,593.621531 216.558562,593.621531 L188.357707,593.621531 L188.357707,561.617215 C188.357707,527.852121 214.879629,518.139996 215.950418,517.762605 C216.092508,517.714863 216.233461,517.663711 216.374414,517.608012 L261.124758,500.082082 C261.221379,500.18666 261.312316,500.294648 261.414621,500.395816 L285.197051,523.559871 C286.914633,525.230848 289.216488,526.16523 291.609281,526.16523 C291.657023,526.16523 291.705902,526.16523 291.753645,526.164094 C294.198727,526.126582 296.530137,525.113766 298.224984,523.351852 L321.060527,499.658086 L365.750625,517.579594 C365.914312,517.64666 366.020027,517.686445 366.185988,517.742145 C367.31475,518.138859 393.840082,527.853258 393.840082,561.617215 L393.840082,593.621531 L245.277762,593.621531 C240.202313,593.621531 236.088527,597.73418 236.088527,602.810766 C236.088527,607.887352 240.202313,612 245.277762,612 L540.89625,612 C545.972836,612 550.085484,607.821422 550.085484,602.745973 L550.085484,569.87434 C550.086621,532.424004 520.742227,520.575984 517.080855,519.244887 L517.080855,519.244887 Z" id="Fill-1" fill="#008AFF" mask="url(#mask-2)"></path>
                </g>
            </g>
        </g>
    </g>
</svg>