<?xml version="1.0" encoding="UTF-8"?>
<svg width="388px" height="223px" viewBox="0 0 388 223" version="1.1" xmlns="http://www.w3.org/2000/svg" xmlns:xlink="http://www.w3.org/1999/xlink">
    <!-- Generator: Sketch 46.2 (44496) - http://www.bohemiancoding.com/sketch -->
    <title>home graphic sa</title>
    <desc>Created with Sketch.</desc>
    <defs>
        <polygon id="path-1" points="104.7485 34.4865298 104.7485 0.195838235 0 0.195838235 0 34.4865298 0 68.7772213 104.7485 68.7772213"></polygon>
    </defs>
    <g id="All-Pages" stroke="none" stroke-width="1" fill="none" fill-rule="evenodd">
        <g id="Home" transform="translate(-747.000000, -1622.000000)">
            <g id="home-graphic-sa" transform="translate(747.000000, 1622.000000)">
                <path d="M372,112.1568 C372,172.762802 294.788461,214.587687 200.173016,221.891454 C70.6606644,231.890236 33.3302142,172.556668 28.3460327,112.1568 C21.9337993,34.4696534 105.590663,10.1585414 200.173016,2.42214647 C341.224334,-9.11627935 372,51.550799 372,112.1568" id="Page-1" fill="#E5F3FB"></path>
                <g id="Group" transform="translate(313.000000, 0.000000)" fill="#327EC1">
                    <path d="M39,49 C50.0442621,49 59,38.030979 59,24.5 C59,10.969021 56.0586448,0 39,0 C21.9393295,0 19,10.969021 19,24.5 C19,38.030979 27.9537121,49 39,49" id="Fill-15"></path>
                    <path d="M74.9597801,85.3225339 C74.5917683,61.8994904 71.5612012,55.226623 48.374447,51 C48.374447,51 45.1085936,55.200232 37.5010055,55.200232 C29.8934173,55.200232 26.627564,51 26.627564,51 C3.69419493,55.1799312 0.478616437,61.7553548 0.0563078161,84.5612545 C0.0221209277,86.4228363 0.00603298029,86.5202801 0,86.3050918 C0.00201099343,86.7090774 0.00402198686,87.4602063 0.00402198686,88.7655467 C0.00402198686,88.7655467 5.52218796,100 37.5010055,100 C69.479823,100 75,88.7655467 75,88.7655467 C75,87.9271243 75,87.3424618 75,86.9465965 C74.995978,87.0785516 74.9839121,86.8207317 74.9597801,85.3225339" id="Fill-17"></path>
                </g>
                <g id="Page-1" transform="translate(149.000000, 66.000000)">
                    <polygon id="Fill-1" fill="#D7D8DC" points="70 90 34 90 38.5006888 69 65.5003131 69"></polygon>
                    <polygon id="Fill-2" fill="#D7D8DC" points="30 91 74 91 74 86 30 86"></polygon>
                    <g id="Group-8">
                        <g id="Group-5">
                            <mask id="mask-2" fill="white">
                                <use xlink:href="#path-1"></use>
                            </mask>
                            <g id="Clip-4"></g>
                            <path d="M104.7485,34.485236 L104.7485,4.91975074 C104.7485,2.41291985 102.5455,0.1957875 100.075,0.1957875 L4.6575,0.1957875 C2.187,0.1957875 0,2.41291985 0,4.91975074 L0,64.0527507 C0,66.560089 2.187,68.7772213 4.6575,68.7772213 L100.075,68.7772213 C102.5455,68.7772213 104.7485,66.560089 104.7485,64.0527507 L104.7485,34.485236 Z M100.0675,4.89286103 C100.0695,4.89286103 100.1185,4.92533162 100.1185,4.92786838 L100.1185,64.0791331 L4.6285,64.0791331 L4.6285,4.92786838 C4.6285,4.92533162 4.663,4.89286103 4.6655,4.89286103 L100.0675,4.89286103 Z" id="Fill-3" fill="#59595A" mask="url(#mask-2)"></path>
                        </g>
                        <path d="M100.0673,4.89270882 C100.0698,4.89270882 100.1183,4.92517941 100.1183,4.92771618 L100.1183,64.0789809 L4.6288,64.0789809 L4.6288,4.92771618 C4.6288,4.92517941 4.6628,4.89270882 4.6653,4.89270882 L100.0673,4.89270882 Z" id="Fill-6" fill="#97C1E6"></path>
                    </g>
                </g>
                <g id="Page-1" transform="translate(0.000000, 128.000000)">
                    <path d="M80.926168,13.4303977 C79.6900099,5.94480872 62.0737018,0 40.5,0 C18.9368457,0 1.3099901,5.94480872 0.0738319704,13.4303977 L0,13.4303977 L0,75.5696023 L0.0738319704,75.5696023 C1.3099901,83.0635879 18.9368457,89 40.5,89 C62.0737018,89 79.6900099,83.0635879 80.926168,75.5696023 L81,75.5696023 L81,13.4303977 L80.926168,13.4303977 Z" id="Fill-1" fill="#545E73"></path>
                    <path d="M40.5,69.5160995 C18.1373509,69.5160995 0,63.0125625 0,55 L0,76.3440663 L0.0738319704,76.3440663 C1.3099901,83.963898 18.9368457,90 40.5,90 C62.0737018,90 79.6900099,83.963898 80.926168,76.3440663 L81,76.3440663 L81,55 C81,63.0125625 62.8731965,69.5160995 40.5,69.5160995" id="Fill-3" fill="#38454F"></path>
                    <path d="M0,54 L0,54.796 C0,54.53 0.032,54.264 0.07,54 L0,54 Z" id="Fill-5" fill="#38454F"></path>
                    <path d="M81,54 C81.048,54.264 81.07,54.53 81.07,54.796 L81.07,54 L81,54 Z" id="Fill-7" fill="#38454F"></path>
                    <path d="M40.5,49.5116747 C18.1373509,49.5116747 0,43.0186551 0,35 L0,56.3375602 L0.0738319704,56.3375602 C1.3099901,63.957203 18.9368457,70 40.5,70 C62.0737018,70 79.6900099,63.957203 80.926168,56.3375602 L81,56.3375602 L81,35 C81,43.0186551 62.8731965,49.5116747 40.5,49.5116747" id="Fill-9" fill="#556080"></path>
                    <path d="M0,34 L0,34.796 C0,34.532 0.032,34.266 0.07,34 L0,34 Z" id="Fill-11" fill="#556080"></path>
                    <path d="M81,34 C81.048,34.266 81.07,34.532 81.07,34.796 L81.07,34 L81,34 Z" id="Fill-13" fill="#556080"></path>
                    <path d="M81,14.5 C81,22.5036759 62.8731965,29 40.5,29 C18.1373509,29 0,22.5036759 0,14.5 C0,6.48779591 18.1373509,0 40.5,0 C62.8731965,0 81,6.48779591 81,14.5" id="Fill-15" fill="#91BAE1"></path>
                    <path d="M40.5,29.5160995 C18.1373509,29.5160995 0,23.0125625 0,15 L0,36.3440663 L0.0738319704,36.3440663 C1.3099901,43.9553604 18.9368457,50 40.5,50 C62.0737018,50 79.6900099,43.9553604 80.926168,36.3440663 L81,36.3440663 L81,15 C81,23.0125625 62.8731965,29.5160995 40.5,29.5160995" id="Fill-17" fill="#8697CB"></path>
                    <path d="M0,14 L0,14.806 C0,14.532 0.032,14.266 0.07,14 L0,14 Z" id="Fill-19" fill="#8697CB"></path>
                    <path d="M81,14 C81.048,14.266 81.07,14.532 81.07,14.806 L81.07,14 L81,14 Z" id="Fill-21" fill="#8697CB"></path>
                    <path d="M81.3317649,77.1355683 C81.241141,70.4217762 75.9954909,65 69.5253639,65 C65.1943832,65 61.4240063,67.432657 59.3670539,71.0549919 C58.6589227,70.8140715 57.9002108,70.681885 57.1098858,70.681885 C53.6366711,70.681885 50.7303828,73.2211439 50.0222516,76.6196148 C47.0590599,78.092854 45,81.233348 45,84.855683 C45,89.8851639 48.9516248,94 53.7841984,94 L71.9532422,94 C72.0522962,94 72.1513503,93.9914718 72.2504044,93.9829437 C72.3578885,93.9914718 72.4569426,94 72.5538891,94 L79.8248787,94 C84.3181395,94 88,90.1687252 88,85.4888987 C88,81.3484782 85.1084644,77.877518 81.3317649,77.1355683" id="Fill-23" fill="#48A0DC"></path>
                    <path d="M80.0125,95 L72.6420455,95 C72.5352273,95 72.4262727,94.9915784 72.3173182,94.9831568 C72.2425455,94.9915784 72.1335909,95 72.0246364,95 L53.6155909,95 C47.7662273,95 43,90.1975788 43,84.2919271 C43,80.4748339 45.0701364,76.9230213 48.3345,75.0239489 C49.5009545,71.25528 53.0238182,68.6003684 56.9867727,68.6003684 C57.4973636,68.6003684 57.9972727,68.6403711 58.4971818,68.7224817 C61.0522727,65.1622475 65.1904091,63 69.5720909,63 C76.5815,63 82.4308636,68.4277255 83.1657727,75.34397 C87.1970909,76.6998487 90,80.5337851 90,84.9088098 C90,90.4754918 85.5200455,95 80.0125,95 L80.0125,95 Z M72.2510909,91.6103033 L72.5672727,91.6271465 L80.0125,91.6271465 C83.6336364,91.6271465 86.5882273,88.6185275 86.5882273,84.9088098 C86.5882273,81.6854398 84.3258182,78.9042042 81.2045909,78.3125864 L79.8458636,78.0494111 L79.8287727,76.6766893 C79.754,70.9921047 75.1544091,66.3623265 69.5720909,66.3623265 C65.9253182,66.3623265 62.6289091,68.278242 60.7595909,71.4952957 L60.0588636,72.6869531 L58.7321818,72.2511349 C58.1639091,72.0616488 57.5806818,71.9626949 56.9867727,71.9626949 C54.3590455,71.9626949 52.0389545,73.8722942 51.4706818,76.5040463 L51.2955,77.3019936 L50.5541818,77.6620172 C48.0418182,78.8810448 46.4224545,81.4791105 46.4224545,84.2919271 C46.4224545,88.3385091 49.6526364,91.6271465 53.6155909,91.6271465 L72.2510909,91.6103033 Z" id="Fill-25" fill="#B1D3EF"></path>
                </g>
                <g id="Page-1" transform="translate(286.931724, 80.735572) scale(1, -1) rotate(30.000000) translate(-286.931724, -80.735572) translate(258.431724, 58.235572)">
                    <polygon id="Fill-1" fill="#FFD24C" points="46.2681639 25.2637376 17 25.2637376 17 40.7370155 46.2681639 40.7370155 46.2681639 45 57 33.0003766 46.2681639 21"></polygon>
                    <polygon id="Fill-2" fill="#6FC4D5" points="11.9425764 0 0 11.9996234 11.9425764 24 11.9425764 19.7362624 41 19.7362624 41 4.26298447 11.9425764 4.26298447"></polygon>
                </g>
                <g id="Page-1-Copy" transform="translate(115.931724, 143.735572) scale(1, -1) rotate(30.000000) translate(-115.931724, -143.735572) translate(87.431724, 121.235572)">
                    <polygon id="Fill-1" fill="#FFD24C" points="46.2681639 25.2637376 17 25.2637376 17 40.7370155 46.2681639 40.7370155 46.2681639 45 57 33.0003766 46.2681639 21"></polygon>
                    <polygon id="Fill-2" fill="#6FC4D5" points="11.9425764 0 0 11.9996234 11.9425764 24 11.9425764 19.7362624 41 19.7362624 41 4.26298447 11.9425764 4.26298447"></polygon>
                </g>
            </g>
        </g>
    </g>
</svg>