<?xml version="1.0" encoding="utf-8"?>
<!-- Generator: Adobe Illustrator 19.0.0, SVG Export Plug-In . SVG Version: 6.00 Build 0)  -->
<svg version="1.1" id="Layer_1" opacity="0.1" xmlns="http://www.w3.org/2000/svg" xmlns:xlink="http://www.w3.org/1999/xlink"
	 x="0px" y="0px" viewBox="-254 377.9 87 87" style="enable-background:new -254 377.9 87 87;" xml:space="preserve">
<style type="text/css">
	.st0{filter:url(#Adobe_OpacityMaskFilter);}
	.st1{fill:#FFFFFF;}
	.st2{mask:url(#mask-2);fill:#0F78D1;}
</style>
<title>team</title>
<desc>Created with Sketch.</desc>
<g id="All-Pages">
	<g id="Home" transform="translate(-668.000000, -2024.000000)">
		<g id="Group-8" transform="translate(-64.000000, 1946.000000)">
			<g id="team" transform="translate(732.000000, 78.000000)">
				<g id="Clip-2">
				</g>
				<defs>
					<filter id="Adobe_OpacityMaskFilter" filterUnits="userSpaceOnUse" x="-254" y="377.9" width="87" height="87">
						<feColorMatrix  type="matrix" values="1 0 0 0 0  0 1 0 0 0  0 0 1 0 0  0 0 0 1 0"/>
					</filter>
				</defs>
				<mask maskUnits="userSpaceOnUse" x="-254" y="377.9" width="87" height="87" id="mask-2">
					<g class="st0">
						<polygon id="path-1" class="st1" points="-254,464.9 -167,464.9 -167,377.9 -254,377.9 						"/>
					</g>
				</mask>
				<path id="Fill-1" class="st2" d="M-174.5,462.1h-17.9v-4.8c0-1.8-0.4-3.3-1-4.5l3.2-1.3l2.8,2.7c0.3,0.2,0.6,0.4,1,0.4
					c0,0,0,0,0,0c0.4,0,0.7-0.2,1-0.4l2.6-2.7l5.2,2.1c0,0,0,0,0.1,0c0.1,0,3.1,1.2,3.1,5V462.1z M-198.3,448.2l-7.1-2.8V444
					c1.9-1.1,3.4-2.9,4.1-5.1c2.4-0.1,4.4-2.1,4.4-4.5c0-1.5-0.7-2.8-1.8-3.6v-3.2c0-1.7-0.4-3.3-1.1-4.8h12.2
					c0,0.9-0.1,1.9-0.1,2.8c-4.7,0.5-8.3,4.4-8.3,9.2v2.4c-0.9,0.7-1.4,1.8-1.4,3c0,2.1,1.6,3.7,3.6,3.9c0.5,1.7,1.7,3.1,3.2,4v0.8
					l-4.3,1.7C-196.1,449.3-197.4,448.5-198.3,448.2z M-210.4,448.7l-2.2-2.1v-1.7c0.5,0.1,0.9,0.1,1.4,0.1h1.6c0.5,0,1,0,1.4-0.1
					v1.4c0,0,0,0,0,0v0.1L-210.4,448.7z M-222.6,448.2c-0.9,0.3-2.2,1.1-3.4,2.3l-4.2-1.7V448c1.5-0.9,2.6-2.3,3.2-4
					c2-0.2,3.6-1.8,3.6-3.9c0-1.2-0.6-2.3-1.4-3v-2.4c0-4.8-3.7-8.8-8.5-9.2c-0.1-0.9-0.1-1.8-0.1-2.8h12.4
					c-0.7,1.5-1.1,3.1-1.1,4.8v3.2c-1.1,0.8-1.8,2.1-1.8,3.6c0,2.5,2,4.5,4.4,4.5c0.6,2.2,2.1,4,4.1,5.1v1.4L-222.6,448.2z
					 M-237.2,462.1h-9.2v-3.5c0-3.8,3-4.9,3.1-5c0,0,0,0,0.1,0l5.2-2l2.8,2.7c0.3,0.2,0.6,0.4,1,0.4c0,0,0,0,0,0
					c0.4,0,0.7-0.2,1-0.4l2.6-2.7l3.2,1.3c-0.6,1.2-1,2.8-1,4.6v4.8H-237.2z M-251.2,422.8h15.1c0,0.9,0.1,1.9,0.1,2.8
					c-4.5,0.6-7.9,4.5-7.9,9.2v2.4c-0.9,0.7-1.4,1.8-1.4,3c0,2.1,1.6,3.7,3.6,3.9c0.5,1.7,1.7,3.1,3.2,4v0.8l-1.5,0.6
					C-247,442.1-250.9,432.7-251.2,422.8z M-221.7,382.2c-2.6,2.2-5,5.1-7.1,8.7c-1.6,2.7-2.9,5.7-4,8.9c-3.9-0.8-7.4-1.7-10.3-2.9
					C-237.8,390-230.4,384.7-221.7,382.2z M-194.5,392.3c1.4,2.4,2.6,5.1,3.6,8c-5.5,0.9-11.8,1.4-18.2,1.5v-21.1
					C-203.7,381.3-198.5,385.4-194.5,392.3z M-176.3,399.3c4,6.1,6.3,13.3,6.5,20.8h-15.1c-0.1-6.2-1-12.1-2.5-17.6
					C-183.1,401.6-179.4,400.5-176.3,399.3z M-187.9,449c0.3,0,0.6,0.1,0.9,0.1h1.3c0.3,0,0.6,0,0.9-0.1v0.8l-1.5,1.6l-1.4-1.4V449z
					 M-191.5,438.2c1.8-0.2,5-0.8,7.4-2.9c0.5,0.9,1.4,2,2.7,2.5v3.9c0,2.4-2,4.4-4.4,4.4h-1.3c-2.4,0-4.4-2-4.4-4.4V438.2z
					 M-178.7,439.3c0.3,0.2,0.5,0.5,0.5,0.9c0,0.4-0.2,0.7-0.5,0.9V439.3z M-186.8,428.2h0.7c3.6,0,6.5,2.9,6.5,6.5v0.9
					c0,0-0.1,0-0.1,0c0,0,0,0,0,0c-1.9-0.4-2.5-3-2.5-3c-0.1-0.5-0.5-0.9-1.1-1c-0.5-0.1-1.1,0.1-1.4,0.5c-2.5,3.4-8,3.5-8.1,3.5
					c0,0,0,0,0,0c0,0-0.1,0-0.1,0c0,0,0,0,0,0c0,0-0.1,0-0.1,0c0,0,0,0-0.1,0c0,0,0,0-0.1,0c0,0,0,0,0,0v-0.9
					C-193.3,431.2-190.4,428.2-186.8,428.2z M-201.7,420c-1.9-2.1-4.5-3.4-7.5-3.7v-11.8c6.7-0.1,13.2-0.6,19-1.6
					c1.5,5.3,2.4,11.1,2.5,17.1H-201.7C-201.7,420-201.7,420-201.7,420z M-201,432.7c0.7,0.2,1.3,0.9,1.3,1.7s-0.5,1.5-1.3,1.7
					V432.7z M-211.9,380.7v21.1c-6.4-0.1-12.7-0.6-18.2-1.5c1-2.9,2.2-5.6,3.6-8C-222.5,385.4-217.3,381.3-211.9,380.7z
					 M-201.5,427.5v1.7c0,0,0,0,0,0c0,0,0,0-0.1,0c0,0,0,0,0,0c0,0,0,0-0.1,0c0,0,0,0-0.1,0c0,0,0,0-0.1,0c0,0,0,0-0.1,0
					c0,0,0,0-0.1,0c0,0-0.1,0-0.1,0c0,0,0,0,0,0c-2.6-0.6-3.4-4-3.4-4c-0.1-0.5-0.5-0.9-1.1-1c-0.5-0.1-1.1,0.1-1.4,0.5
					c-3.2,4.4-10.3,4.5-10.4,4.5c0,0,0,0,0,0c0,0,0,0,0,0c0,0-0.1,0-0.1,0c0,0,0,0,0,0c0,0-0.1,0-0.1,0c0,0,0,0-0.1,0c0,0,0,0-0.1,0
					c0,0,0,0-0.1,0c0,0,0,0-0.1,0c0,0,0,0-0.1,0c0,0,0,0,0,0c0,0,0,0-0.1,0c0,0,0,0,0,0c0,0,0,0-0.1,0c0,0,0,0,0,0c0,0,0,0,0,0v-1.7
					c0-4.7,3.8-8.5,8.5-8.5h0.8C-205.3,419.1-201.5,422.9-201.5,427.5z M-251.2,420c0.3-7.6,2.6-14.7,6.5-20.8
					c3.1,1.3,6.9,2.3,11.1,3.2c-1.5,5.4-2.4,11.4-2.5,17.6H-251.2z M-227.5,435.6C-227.6,435.6-227.6,435.6-227.5,435.6
					c-0.1,0-0.1,0-0.1,0c-1.9-0.4-2.5-3-2.5-3c-0.1-0.5-0.5-0.9-1.1-1c-0.5-0.1-1.1,0.1-1.4,0.5c-2.5,3.4-8,3.5-8.1,3.5c0,0,0,0,0,0
					c0,0-0.1,0-0.1,0c0,0,0,0,0,0c0,0-0.1,0-0.1,0c0,0,0,0-0.1,0c0,0,0,0-0.1,0c0,0,0,0,0,0v-0.9c0-3.6,2.9-6.5,6.5-6.5h0.7
					c3.6,0,6.5,2.9,6.5,6.5L-227.5,435.6L-227.5,435.6z M-226.6,439.3c0.3,0.2,0.5,0.5,0.5,0.9c0,0.4-0.2,0.7-0.5,0.9V439.3z
					 M-242.7,440.2c0-0.4,0.2-0.8,0.5-1v1.9C-242.5,441-242.7,440.6-242.7,440.2z M-233.7,446.3h-1.3c-2.4,0-4.4-2-4.4-4.4v-3.6
					c1.8-0.2,5-0.8,7.4-2.9c0.5,0.9,1.4,2,2.7,2.5v3.9C-229.3,444.3-231.3,446.3-233.7,446.3z M-235.9,449c0.3,0,0.6,0.1,0.9,0.1
					h1.3c0.3,0,0.6,0,0.9-0.1v0.8l-1.5,1.6l-1.4-1.4L-235.9,449L-235.9,449z M-219.3,420h-14.1c0.1-6,1-11.8,2.5-17.1
					c5.8,1,12.3,1.5,19,1.6v11.8c-2.9,0.3-5.4,1.6-7.3,3.7C-219.2,420-219.3,420-219.3,420z M-221.1,434.4c0-0.8,0.6-1.5,1.3-1.7
					v3.4C-220.5,435.9-221.1,435.2-221.1,434.4z M-209.6,442.3h-1.6c-3.2,0-5.8-2.6-5.8-5.8v-4.8c2.2-0.2,6.5-1,9.7-3.8
					c0.7,1.3,1.8,2.7,3.6,3.5v5.2C-203.8,439.7-206.4,442.3-209.6,442.3z M-194.7,440.2c0-0.4,0.2-0.8,0.5-1v1.9
					C-194.5,441-194.7,440.6-194.7,440.2z M-182.2,448.8V448c1.5-0.9,2.6-2.3,3.2-4c2-0.2,3.6-1.8,3.6-3.9c0-1.2-0.6-2.3-1.4-3v-2.4
					c0-4.7-3.5-8.6-8.1-9.2c0.1-0.9,0.1-1.9,0.1-2.8h15.1c-0.3,9.9-4.2,19.3-11.1,26.6L-182.2,448.8z M-176.7,451l-1.4-0.6
					c7.2-8,11.1-18.3,11.1-29.1c0-8.8-2.7-17.3-7.5-24.5c-0.1-0.1-0.1-0.2-0.2-0.3c-2.1-3.1-4.7-5.9-7.6-8.4
					c-0.6-0.5-1.4-0.4-1.9,0.2c-0.5,0.6-0.4,1.4,0.2,1.9c2.3,2,4.4,4.2,6.2,6.6c-2.9,1.1-6.4,2.1-10.3,2.9c-1.1-3.2-2.4-6.2-4-8.9
					c-2.1-3.6-4.5-6.6-7.1-8.7c4.1,1.2,8,3,11.6,5.4c0.6,0.4,1.5,0.3,1.9-0.4c0.4-0.6,0.3-1.5-0.4-1.9c-7.2-4.9-15.6-7.4-24.3-7.4
					c-11.6,0-22.5,4.5-30.8,12.7c-8.2,8.2-12.7,19.1-12.7,30.8c0,10.8,4,21.1,11.2,29.1l-1.4,0.6c-0.5,0.2-4.9,2-4.9,7.6v4.9
					c0,0.8,0.6,1.4,1.4,1.4h20.2c0.1,0,0.1,0,0.2,0c0.1,0,0.1,0,0.2,0h5.6c0.8,0,1.4-0.6,1.4-1.4s-0.6-1.4-1.4-1.4h-4.2v-4.8
					c0-5,4-6.5,4.1-6.6c0,0,0,0,0.1,0l6.7-2.6c0,0,0,0,0,0l3.6,3.5c0.3,0.2,0.6,0.4,1,0.4c0,0,0,0,0,0c0.4,0,0.7-0.2,1-0.4l3.4-3.5
					l6.7,2.7c0,0,0,0,0.1,0c0.2,0.1,4.1,1.5,4.1,6.6v4.8h-22.2c-0.8,0-1.4,0.6-1.4,1.4s0.6,1.4,1.4,1.4h44.2c0.8,0,1.4-0.6,1.4-1.4
					v-4.9C-171.8,453-176.2,451.2-176.7,451L-176.7,451z"/>
			</g>
		</g>
	</g>
</g>
</svg>
