<?xml version="1.0" encoding="UTF-8"?>
<svg width="173px" height="121px" viewBox="0 0 173 121" version="1.1" xmlns="http://www.w3.org/2000/svg" xmlns:xlink="http://www.w3.org/1999/xlink">
    <!-- Generator: Sketch 46.2 (44496) - http://www.bohemiancoding.com/sketch -->
    <title>news-logo</title>
    <desc>Created with Sketch.</desc>
    <defs>
        <polygon id="path-1" points="86.5832545 0.555595185 0.401635073 0.555595185 0.401635073 120.497216 172.764874 120.497216 172.764874 0.555595185"></polygon>
    </defs>
    <g id="All-Pages" stroke="none" stroke-width="1" fill="none" fill-rule="evenodd" opacity="0.1">
        <g id="Latest-News" transform="translate(-237.000000, -1153.000000)">
            <g id="news-logo" transform="translate(237.000000, 1153.000000)">
                <mask id="mask-2" fill="white">
                    <use xlink:href="#path-1"></use>
                </mask>
                <g id="Clip-2"></g>
                <path d="M56.7175663,91.633042 C61.4501662,101.700694 68.5323313,111.34663 77.8167955,120.31648 C59.4085213,117.618831 43.7983047,106.721133 34.728046,91.3987549 L56.7175663,91.633042 Z M77.44863,1.21159914 C59.7231354,3.90255413 44.5279418,14.3383721 35.4041317,29.0047462 L56.7175663,29.2122577 C61.3966149,19.3588105 68.3783712,9.94716198 77.44863,1.21159914 Z M84.617816,29.5268718 L84.9324302,0.555595185 L84.8521032,0.555595185 C74.677348,9.44511814 66.9124032,19.0709721 61.7380047,29.265809 L84.617816,29.5268718 Z M35.4041317,38.5234975 L31.1936574,38.4967218 L27.0367344,38.4431704 L26.6953445,68.5189435 L9.86014105,38.2624347 L5.15431677,38.2088833 L0.468574252,38.155332 L0,80.9629369 L4.18369868,81.0432639 L8.34062169,81.0700396 L8.6820115,50.1843024 L26.0192588,81.2507753 L30.490796,81.3043267 L34.9355575,81.357878 L35.4041317,38.5234975 Z M75.4404546,46.549505 L75.4605364,42.7339718 L75.5140877,38.9452143 L43.9790405,38.6306001 L43.5372419,81.4582868 L76.0362133,81.7996766 L76.0897646,77.9841434 L76.1165403,74.188692 L52.5606433,73.9276292 L52.6878277,62.7621741 L73.6330968,62.9964613 L73.6598725,59.3148064 L73.7134238,55.6264577 L52.7681547,55.3921705 L52.8685635,46.3152179 L75.4404546,46.549505 Z M118.187814,70.5003432 L112.30386,39.3602372 L107.544485,39.3066858 L102.785109,39.2330527 L96.3321723,70.5271189 L89.5043761,39.0991744 L80.1931363,38.9920717 L91.6732055,81.9536367 L95.9104555,82.0071881 L100.174481,82.0607394 L107.256646,48.4104142 L113.769828,82.1946178 L118.06063,82.2682509 L122.29788,82.2950265 L134.661546,39.5945243 L125.618063,39.4941155 L118.187814,70.5003432 Z M89.5311518,0.609146528 L89.4508248,0.609146528 L89.1362106,29.5804232 L112.016022,29.8147103 C107.075911,19.5127706 99.5184773,9.73295661 89.5311518,0.609146528 Z M138.376671,30.1025487 C129.560781,15.2554389 114.579793,4.47823107 96.9078493,1.41911059 C105.797372,10.3354092 112.591699,19.8809361 117.063236,29.8682616 L138.376671,30.1025487 Z M94.0026889,120.497216 C112.437739,118.194508 128.282242,107.631506 137.720667,92.4965574 L115.731146,92.2555763 C110.764259,102.249596 103.467889,111.714796 94.0026889,120.497216 Z M110.657157,92.2087189 L88.4869006,91.9677379 L88.1722864,119.633701 C97.9253248,111.139119 105.482758,101.908206 110.657157,92.2087189 Z M169.704206,62.1329458 C167.60901,60.3055063 163.478863,58.6320268 157.280295,57.1928344 C152.989493,56.1753589 150.19813,55.3118435 148.886122,54.6022882 C147.554032,53.8994268 146.871252,52.908727 146.898028,51.5967191 C146.898028,49.8429126 147.554032,48.4104142 148.859346,47.4397961 C150.144578,46.4758719 151.918466,46.0006037 154.194399,46.0273794 C156.81172,46.0541551 158.926999,46.6833834 160.573702,47.8882886 C162.173549,49.0864999 163.057146,50.6796523 163.164249,52.748073 L171.899811,52.8551757 C171.611973,48.5375986 169.992045,45.1370883 166.979782,42.5800117 C164.027764,40.0162411 160.131904,38.7042332 155.318977,38.6573758 C150.19813,38.6038245 146.11484,39.781954 143.082495,42.1582949 C140.05015,44.5614114 138.503855,47.8882886 138.483773,52.0184359 C138.430222,55.7268664 139.528024,58.4780667 141.777181,60.2519549 C144.053113,62.0325371 148.571508,63.7327922 155.345752,65.299169 C159.034101,66.1626844 161.437218,66.9994242 162.561796,67.7558369 C163.686374,68.5189435 164.262051,69.6903791 164.235275,71.3170012 C164.235275,72.963705 163.398536,74.2154676 161.805383,75.1325344 C160.185455,76.0228255 157.963074,76.464624 155.08469,76.4378484 C152.313408,76.384297 150.144578,75.7617627 148.625059,74.5300818 C147.058682,73.2984009 146.275494,71.5512883 146.195167,69.2485806 L137.593482,69.1682535 C137.747442,73.8004447 139.340595,77.3816908 142.352858,79.9186857 C145.385203,82.4757623 149.622453,83.7609945 155.004363,83.8145459 C160.419742,83.8680972 164.70385,82.7636008 167.896848,80.4140356 C171.109929,78.0845522 172.709775,74.9250229 172.763327,70.8952844 C172.810184,66.8923215 171.792709,63.9670793 169.704206,62.1329458 Z M83.6471979,119.560067 L83.9350364,91.9208805 L61.7647804,91.6798994 C66.7584431,101.486489 74.0748954,110.85128 83.6471979,119.560067 Z" id="Fill-1" fill="#000000" mask="url(#mask-2)"></path>
            </g>
        </g>
    </g>
</svg>