<?xml version="1.0" encoding="UTF-8"?>
<svg width="52px" height="66px" viewBox="0 0 52 66" version="1.1" xmlns="http://www.w3.org/2000/svg" xmlns:xlink="http://www.w3.org/1999/xlink">
    <!-- Generator: Sketch 49.2 (51160) - http://www.bohemiancoding.com/sketch -->
    <title>about header</title>
    <desc>Created with Sketch.</desc>
    <defs></defs>
    <g id="All-Pages" stroke="none" stroke-width="1" fill="none" fill-rule="evenodd">
        <g id="Contact" transform="translate(-220.000000, -90.000000)" fill="#FFFFFE">
            <g id="about-header" transform="translate(220.000000, 90.000000)">
                <path d="M0,65.3877444 L51.5082704,65.3877444 L51.5082704,-8.52651283e-14 L0,-8.52651283e-14 L0,65.3877444 Z M2.79803077,62.5134131 L48.7102396,62.5134131 L48.7102396,2.87490429 L2.79803077,2.87490429 L2.79803077,62.5134131 Z" id="Fill-1"></path>
                <path d="M12.0760223,46.1320445 C12.0760223,43.4827813 12.694984,41.3525341 13.9340537,39.7407326 C15.1908898,38.1477526 16.8477586,37.3509774 18.9063795,37.3509774 C20.5271422,37.3509774 21.929549,37.8785486 23.1135998,38.9348318 C24.3159903,40.0099365 24.9893977,41.3525341 25.1355415,42.9637652 L23.0591541,42.9637652 C22.9674561,41.9080524 22.5215744,41.0188809 21.7203629,40.2968212 C20.9185782,39.5924423 19.9803927,39.240538 18.9063795,39.240538 C17.4128478,39.240538 16.219054,39.963168 15.3272906,41.4078578 C14.5438456,42.7048276 14.1524096,44.2795565 14.1524096,46.1320445 C14.1524096,47.9480304 14.5530154,49.4942419 15.3542269,50.7723902 C16.2465634,52.1800074 17.4311874,52.8843863 18.9063795,52.8843863 C20.1265364,52.8843863 21.1099978,52.5136606 21.8567637,51.7727794 C22.6218691,51.0318983 23.0224749,50.0406346 23.0591541,48.7995589 L25.1355415,48.7995589 C25.1355415,50.6149744 24.5704523,52.0602345 23.4414203,53.1341985 C22.2940487,54.2269839 20.7821774,54.7733766 18.9063795,54.7733766 C16.8477586,54.7733766 15.1908898,53.9862973 13.9340537,52.4115684 C12.694984,50.8374098 12.0760223,48.7436649 12.0760223,46.1320445" id="Fill-2"></path>
                <path d="M29.9273368,45.7427255 L34.6813067,45.7427255 C35.6275157,45.7427255 36.3926212,45.4626849 36.9760499,44.9014632 C37.5399928,44.3225607 37.8225374,43.5657098 37.8225374,42.6303402 C37.8225374,41.7143624 37.5399928,40.976333 36.9760499,40.4151112 C36.3926212,39.8544598 35.6275157,39.5744193 34.6813067,39.5744193 L29.9273368,39.5744193 L29.9273368,45.7427255 Z M27.8503763,54.5791163 L27.8503763,37.6842883 L34.6813067,37.6842883 C36.2659633,37.6842883 37.5319692,38.1382848 38.4787514,39.0462777 C39.4255336,39.9348788 39.8989247,41.1303268 39.8989247,42.6309105 C39.8989247,44.1497454 39.4255336,45.3634445 38.4787514,46.2708671 C37.5319692,47.17886 36.2659633,47.6322861 34.6813067,47.6322861 L29.9273368,47.6322861 L29.9273368,54.5791163 L27.8503763,54.5791163 Z" id="Fill-4"></path>
                <polygon id="Fill-6" points="12.8133891 28.0274529 12.8133891 11.4651373 14.8490854 11.4651373 14.8490854 18.3030312 22.9912976 18.3030312 22.9912976 11.4651373 25.0269939 11.4651373 25.0269939 28.0274529 22.9912976 28.0274529 22.9912976 20.1549489 14.8490854 20.1549489 14.8490854 28.0274529"></polygon>
                <path d="M29.847846,26.1749078 L34.7227427,26.1749078 C35.5967396,26.1749078 36.3561139,25.9211032 36.9991464,25.4123534 C37.6599453,24.8676717 37.9900582,24.186677 37.9900582,23.3693693 C37.9900582,22.5343809 37.6599453,21.8351351 36.9991464,21.2716319 C36.3561139,20.7269503 35.5967396,20.4548946 34.7227427,20.4548946 L29.847846,20.4548946 L29.847846,26.1749078 Z M29.847846,18.6024065 L34.7227427,18.6024065 C35.4723741,18.6024065 36.1154066,18.3651421 36.651267,17.8906131 C37.2043207,17.4160841 37.480561,16.8229229 37.480561,16.1105591 C37.480561,15.3440124 37.2134905,14.6864019 36.6776301,14.1388685 C36.1423429,13.5919054 35.4901406,13.3175684 34.7227427,13.3175684 L29.847846,13.3175684 L29.847846,18.6024065 Z M27.8121497,28.0273958 L27.8121497,11.4650803 L34.7227427,11.4650803 C36.0254279,11.4650803 37.1504481,11.9105215 38.0978034,12.8002634 C39.0434394,13.7088266 39.5168305,14.8153004 39.5168305,16.1231068 C39.5168305,16.8685507 39.3385924,17.5495454 38.9815432,18.1660908 C38.6061544,18.783777 38.105827,19.246899 37.480561,19.5560272 C38.2485321,19.9193385 38.8560315,20.4366435 39.3024863,21.1085126 C39.7844741,21.7986329 40.0257546,22.5520616 40.0257546,23.3693693 C40.0257546,24.713678 39.4898942,25.830418 38.4181734,26.7201598 C37.3825588,27.5916505 36.1509396,28.0273958 34.7227427,28.0273958 L27.8121497,28.0273958 Z" id="Fill-8"></path>
                <polygon id="Fill-10" points="23.4171203 37.2175731 21.5659663 35.6451256 27.1354755 28.8614147 28.9872027 30.4332919"></polygon>
            </g>
        </g>
    </g>
</svg>