<svg width="58" height="54" viewBox="0 0 58 54" version="1.1" xmlns="http://www.w3.org/2000/svg" xmlns:xlink="http://www.w3.org/1999/xlink"><title>arrow-up (1)</title><desc>Created with Sketch.</desc><g id="All-Pages" stroke="none" stroke-width="1" fill="none" fill-rule="evenodd"><g id="BSdefault" transform="translate(-689.000000, -991.000000)" fill="#0F78D1"><path d="M745.623495,1016.2397 L721.386717,992.356459 C720.469999,991.452528 719.340808,991 717.999714,991 C716.636917,991 715.519149,991.452528 714.648695,992.356459 L690.414773,1016.2397 C689.470639,1017.17008 689,1018.28227 689,1019.57738 C689,1020.85053 689.472924,1021.94977 690.414773,1022.87959 L693.205481,1025.63022 C694.100495,1026.56004 695.218263,1027.02608 696.556501,1027.02608 C697.897594,1027.02608 699.013078,1026.56004 699.908092,1025.63022 L710.85388,1014.88099 L710.85388,1040.7083 C710.85388,1041.97921 711.317666,1043.01259 712.248092,1043.80846 C713.178518,1044.60432 714.30314,1045 715.617389,1045 L720.382611,1045 C721.699144,1045 722.821482,1044.60432 723.751908,1043.80846 C724.682334,1043.01484 725.148404,1041.97921 725.148404,1040.7083 L725.148404,1014.88099 L736.094193,1025.63022 C736.986922,1026.56004 738.102406,1027.02608 739.445213,1027.02608 C740.759461,1027.02608 741.888653,1026.56004 742.832216,1025.63022 L745.623495,1022.87959 C746.540213,1021.92557 747,1020.82633 747,1019.57738 C747,1018.30647 746.540213,1017.19429 745.623495,1016.2397 Z" id="arrow-up-(1)"/></g></g></svg>