<svg width="61" height="48" viewBox="0 0 61 48" version="1.1" xmlns="http://www.w3.org/2000/svg" xmlns:xlink="http://www.w3.org/1999/xlink"><title>“</title><desc>Created with Sketch.</desc><g id="All-Pages" stroke="none" stroke-width="1" fill="none" fill-rule="evenodd" fill-opacity=".04"><g id="BSSelected" transform="translate(-1026.000000, -1021.000000)" fill="#4A4A4A"><path d="M1049.85526,1021 L1049.85526,1024.82136 C1044.45173,1027.67963 1040.58335,1030.66212 1038.25,1033.76893 C1035.91665,1036.87574 1034.75,1040.26212 1034.75,1043.92816 C1034.75,1046.10292 1035.05701,1047.59417 1035.67105,1048.40194 C1036.22369,1049.27185 1036.89912,1049.7068 1037.69737,1049.7068 C1038.49562,1049.7068 1039.57017,1049.47379 1040.92105,1049.00777 C1042.27194,1048.54175 1043.49999,1048.30874 1044.60526,1048.30874 C1047.12282,1048.30874 1049.31797,1049.2563 1051.19079,1051.15146 C1053.06361,1053.04661 1054,1055.36115 1054,1058.09515 C1054,1061.07768 1052.86405,1063.64077 1050.59211,1065.78447 C1048.32016,1067.92817 1045.49563,1069 1042.11842,1069 C1038.00437,1069 1034.28949,1067.19808 1030.97368,1063.59417 C1027.65788,1059.99027 1026,1055.5476 1026,1050.26602 C1026,1044.0524 1028.04165,1038.25828 1032.125,1032.8835 C1036.20835,1027.50871 1042.11838,1023.54759 1049.85526,1021 Z M1082.59344,1021 L1082.59344,1024.55556 C1076.41199,1028.17351 1072.34209,1031.41714 1070.38361,1034.28655 C1068.42513,1037.15596 1067.4459,1040.52435 1067.4459,1044.39181 C1067.4459,1046.13841 1067.78251,1047.44834 1068.45574,1048.32164 C1069.12897,1049.19494 1069.83278,1049.63158 1070.56721,1049.63158 C1071.24044,1049.63158 1072.25027,1049.38207 1073.59672,1048.88304 C1074.94318,1048.38401 1076.28961,1048.1345 1077.63607,1048.1345 C1080.14537,1048.1345 1082.33332,1049.05457 1084.2,1050.89474 C1086.06668,1052.7349 1087,1054.99609 1087,1057.67836 C1087,1060.73491 1085.82187,1063.38595 1083.46557,1065.63158 C1081.10928,1067.8772 1078.2175,1069 1074.79016,1069 C1070.7508,1069 1067.10931,1067.22224 1063.86557,1063.66667 C1060.62184,1060.11109 1059,1055.68229 1059,1050.38012 C1059,1043.83038 1061.05025,1037.85773 1065.15082,1032.46199 C1069.25139,1027.06625 1075.06554,1023.24563 1082.59344,1021 Z" id="“" transform="translate(1056.500000, 1045.000000) rotate(180.000000) translate(-1056.500000, -1045.000000)"/></g></g></svg>