<svg width="53" height="53" viewBox="0 0 53 53" version="1.1" xmlns="http://www.w3.org/2000/svg" xmlns:xlink="http://www.w3.org/1999/xlink"><title>info</title><desc>Created with Sketch.</desc><g id="All-Pages" stroke="none" stroke-width="1" fill="none" fill-rule="evenodd"><g id="BSdefault" transform="translate(-259.000000, -614.000000)"><g id="info" transform="translate(259.000000, 614.000000)"><path d="M53,26.5005341 C53,11.8636508 41.1354006,0 26.5002671,0 C11.8644659,0 0,11.8636508 0,26.5005341 C0,41.1354145 11.8644659,53 26.5002671,53 C41.1354006,53 53,41.1354145 53,26.5005341 Z" id="Fill-1" fill="#E5F3FB"/><path d="M34.9016713,38.7374303 C34.7450409,38.5189738 34.44435,38.4412705 34.1933742,38.5547335 C31.4161152,39.8060523 28.263593,41.1294282 27.6445569,41.2449077 C27.6291622,41.2318675 27.6043047,41.2071315 27.5718205,41.1657256 C27.4879265,41.0575056 27.4471093,40.9162147 27.4471093,40.7340556 C27.4471093,39.2384687 28.6332068,34.6891961 30.971364,27.2127407 C32.9431557,20.9316793 33.1715338,19.6308885 33.1715338,19.1992184 C33.1715338,18.5322875 32.9034685,17.9694091 32.3958673,17.5702723 C31.9136886,17.1915695 31.2399943,17 30.3937099,17 C28.9857311,17 27.3544587,17.5088356 25.4058296,18.5554103 C23.517367,19.5699895 21.4115426,21.2882003 19.1466867,23.6623184 C18.9691535,23.8482417 18.950934,24.1265217 19.1020563,24.3324757 C19.2531785,24.5382954 19.5340963,24.6165364 19.7784341,24.5220288 C20.5734499,24.2132321 24.5694318,22.6551331 25.1514641,22.306947 C25.6286996,22.0223486 26.0413903,21.8779657 26.3789437,21.8779657 C26.3910899,21.8779657 26.4011177,21.8779657 26.4098743,21.8790412 C26.4142526,21.900013 26.4182072,21.9325462 26.4182072,21.9793295 C26.4182072,22.306947 26.3470244,22.6945225 26.2080485,23.13036 C22.8034205,33.6315977 21.1482792,40.0686035 21.1482792,42.8109384 C21.1482792,43.7787343 21.4307506,44.5575149 21.9880667,45.126174 C22.555693,45.7059912 23.321473,46 24.2637977,46 C25.2684073,46 26.4915085,45.6009976 28.0016007,44.7790634 C29.4635315,43.9840162 31.6940671,42.2354231 34.8222968,39.4321892 C35.0246876,39.2504334 35.0584429,38.9558869 34.9016713,38.7374303 Z" id="Fill-2" fill="#0F78D1"/><path d="M33.266257,8.82244689 C32.7751848,8.27644932 32.1474545,8 31.39951,8 C30.4686903,8 29.6579603,8.39958632 28.9903662,9.18779842 C28.333361,9.96261429 28,10.9140167 28,12.0145367 C28,12.8840734 28.2452869,13.6044925 28.7295075,14.1563086 C29.2199568,14.7161083 29.8394652,15 30.5708413,15 C31.4632921,15 32.269662,14.5780866 32.967403,13.7456264 C33.6525621,12.9279156 34,11.967041 34,10.8887128 C34,10.0599061 33.7533427,9.36479094 33.266257,8.82244689 Z" id="Fill-3" fill="#0F78D1"/></g></g></g></svg>