<svg width="88" height="85" viewBox="0 0 88 85" version="1.1" xmlns="http://www.w3.org/2000/svg" xmlns:xlink="http://www.w3.org/1999/xlink"><title>opened-email-envelope</title><desc>Created with Sketch.</desc><g id="All-Pages" stroke="none" stroke-width="1" fill="none" fill-rule="evenodd"><g id="Contact-Us" transform="translate(-676.000000, -2684.000000)" fill="#0F78D1"><path d="M720,2684 L676,2716.81794 L676,2769 L764,2769 L764,2716.81794 L720,2684 Z M707.933541,2707.06563 C709.212876,2704.725 710.971963,2702.96042 713.2108,2701.79375 C715.456906,2700.59792 718.015576,2700 720.879543,2700 C723.321911,2700 725.480789,2700.48125 727.385254,2701.42188 C729.253375,2702.39167 730.707165,2703.72604 731.724818,2705.49792 C732.720665,2707.23333 733.229491,2709.14375 733.229491,2711.22188 C733.229491,2713.70104 732.466251,2715.91771 730.932503,2717.94479 C729.028037,2720.44583 726.58567,2721.7 723.6054,2721.7 C722.813084,2721.7 722.21703,2721.59062 721.788162,2721.30625 C721.38837,2721.02187 721.104881,2720.59167 720.995846,2720.05208 C719.854621,2721.16042 718.524403,2721.72917 717.048806,2721.72917 C715.42783,2721.72917 714.119418,2721.16042 713.043614,2720.05208 C711.989616,2718.93646 711.451713,2717.45625 711.451713,2715.63333 C711.451713,2713.32917 712.105919,2711.28021 713.385254,2709.39896 C714.919003,2707.0875 716.903427,2705.95 719.316719,2705.95 C721.053998,2705.95 722.326064,2706.60625 723.125649,2707.91875 L723.489097,2706.32188 L727.327103,2706.32188 L725.139148,2716.74896 C725.001038,2717.39792 724.942887,2717.82812 724.942887,2718.025 C724.942887,2718.2875 725.001038,2718.45521 725.110073,2718.57188 C725.226376,2718.68125 725.33541,2718.73958 725.509865,2718.73958 C725.96054,2718.73958 726.556594,2718.48438 727.298027,2717.91563 C728.293873,2717.17188 729.086189,2716.18021 729.682243,2714.95521 C730.307373,2713.70104 730.619938,2712.41771 730.619938,2711.07604 C730.619938,2708.71354 729.76947,2706.69375 728.032191,2705.09688 C726.302181,2703.5 723.888889,2702.67604 720.821391,2702.67604 C718.211838,2702.67604 715.965732,2703.21562 714.148494,2704.30208 C712.331256,2705.35208 710.971963,2706.89062 710.034268,2708.83021 C709.096573,2710.7625 708.645898,2712.78958 708.645898,2714.89687 C708.645898,2716.94583 709.183801,2718.79792 710.201454,2720.475 C711.226376,2722.15938 712.672897,2723.38438 714.519211,2724.15 C716.3946,2724.92292 718.524403,2725.31667 720.937695,2725.31667 C723.234683,2725.31667 725.226376,2725.00313 726.869159,2724.35417 C728.548287,2723.69792 729.878505,2722.72813 730.903427,2721.44479 L734,2721.44479 C733.033229,2723.41354 731.528557,2724.95208 729.536864,2726.08958 C727.239875,2727.34375 724.455867,2728 721.163032,2728 C717.957425,2728 715.202492,2727.45312 712.898235,2726.37396 C710.57217,2725.29479 708.84216,2723.69792 707.708204,2721.59062 C706.566978,2719.48333 706,2717.17188 706,2714.69271 C706,2711.95833 706.654206,2709.42812 707.933541,2707.06563 Z M679,2718 L712,2739.35637 L679,2764 L679,2718 Z M682,2767 L720.5,2737 L759,2767 L682,2767 Z M761,2764 L728,2739.35637 L761,2718 L761,2764 Z M721.125,2709.84203 C721.615,2710.38483 721.86,2711.19903 721.86,2712.22895 C721.86,2713.18232 721.671,2714.19137 721.314,2715.27697 C720.957,2716.36256 720.523,2717.17676 720.026,2717.74739 C719.704,2718.13013 719.347,2718.42937 718.99,2718.61726 C718.528,2718.86778 718.031,2719 717.485,2719 C716.778,2719 716.204,2718.7286 715.707,2718.15797 C715.217,2717.61517 715,2716.7453 715,2715.5762 C715,2714.70633 715.161,2713.66945 715.518,2712.52818 C715.847,2711.38692 716.365,2710.54489 717.051,2709.91858 C717.73,2709.29923 718.472,2709 719.263,2709 C720.005,2709 720.628,2709.2714 721.125,2709.84203 Z" id="opened-email-envelope"/></g></g></svg>