<?xml version="1.0" encoding="UTF-8"?>
<svg width="59px" height="39px" viewBox="0 0 59 39" version="1.1" xmlns="http://www.w3.org/2000/svg" xmlns:xlink="http://www.w3.org/1999/xlink">
    <!-- Generator: Sketch 47 (45396) - http://www.bohemiancoding.com/sketch -->
    <title>Fill 1</title>
    <desc>Created with Sketch.</desc>
    <defs></defs>
    <g id="All-Pages" stroke="none" stroke-width="1" fill="none" fill-rule="evenodd">
        <g id="Contact-Us" transform="translate(-691.000000, -563.000000)" fill="#0F78D1">
            <g id="contact-module-copy-3" transform="translate(403.000000, 563.000000)">
                <g id="email-filled-closed-envelope" transform="translate(288.000000, 0.000000)">
                    <path d="M29.5767392,23.3898863 L29.5872335,23.3898863 C30.0332392,23.3898863 30.472686,23.2628167 30.8268671,23.0307201 L30.9239389,22.9697786 C30.9449274,22.954219 30.9646041,22.943846 30.9908398,22.9282865 L32.112413,22.0063834 L58.9383463,0.12577299 C58.8871868,0.0505685218 58.7888032,0 58.6864842,0 L0.312204015,0 C0.24136781,0 0.17446695,0.0246359465 0.118060342,0.0700179533 L28.1875625,22.933473 C28.5417436,23.2226212 29.0441559,23.3898863 29.5767392,23.3898863 Z M0,3.09894275 L0,35.5354079 L20.106988,19.4792539 L0,3.09894275 Z M38.9179358,19.590764 L59,35.545781 L59,3.20526631 L38.9179358,19.590764 Z M32.5334949,24.7980251 C31.7293728,25.4463395 30.6838829,25.8055057 29.5819863,25.8055057 C28.4800898,25.8055057 27.4345999,25.451526 26.6357249,24.8032116 L22.028748,21.0494714 L0,38.6356473 L0,38.6914024 C0,38.8586675 0.142984192,39 0.317451142,39 L58.6917313,39 C58.855704,39 59,38.8586675 59,38.6914024 L59,38.6408338 L36.9909287,21.1609814 L32.5334949,24.7980251 Z" id="Fill-1"></path>
                </g>
            </g>
        </g>
    </g>
</svg>