<svg width="63" height="53" viewBox="0 0 63 53" version="1.1" xmlns="http://www.w3.org/2000/svg" xmlns:xlink="http://www.w3.org/1999/xlink"><title>twitter</title><desc>Created with Sketch.</desc><g id="All-Pages" stroke="none" stroke-width="1" fill="none" fill-rule="evenodd"><g id="Contact-Us" transform="translate(-694.000000, -943.000000)" fill="#62CAFF"><g id="contact-module-copy-3" transform="translate(403.000000, 943.000000)"><path d="M352.998187,6.16534219 C351.597925,6.79333326 350.145248,7.28869666 348.65417,7.64677197 C350.297504,6.06825018 351.532645,4.09301047 352.229416,1.88863364 C352.428329,1.25986583 351.752486,0.715179693 351.190692,1.05208894 C349.116316,2.29680842 346.882003,3.22966839 344.549385,3.8267842 C344.414409,3.86154314 344.275016,3.8790197 344.134664,3.8790197 C343.709382,3.8790197 343.296964,3.71978882 342.971523,3.43006628 C340.490489,1.21811627 337.298477,0 333.984927,0 C332.550874,0 331.10338,0.226030183 329.68219,0.672070844 C325.278077,2.05330168 321.879855,5.72765144 320.813291,10.2604887 C320.413545,11.9603755 320.305641,13.6625925 320.49169,15.3183995 C320.512618,15.508894 320.424105,15.6415217 320.369385,15.7038547 C320.272617,15.8129861 320.136104,15.8759018 319.994408,15.8759018 C310.305857,14.9673148 301.612446,10.2703921 295.467846,2.64711637 C295.155077,2.2581658 294.553538,2.30593507 294.303745,2.7389654 C293.100669,4.8272202 292.464762,7.21510092 292.464762,9.64531375 C292.464762,13.3689862 293.944512,16.878668 296.514058,19.4372364 C295.433286,19.1778066 294.387074,18.769826 293.415742,18.2235864 C292.945532,17.9596903 292.367226,18.2995123 292.360506,18.8434217 C292.293689,24.3753357 295.496262,29.2982886 300.293977,31.5147049 C300.197209,31.5168409 300.10044,31.5176176 300.003864,31.5176176 C299.243349,31.5176176 298.473042,31.4440219 297.715599,31.2968304 C297.186061,31.1952722 296.741195,31.702675 296.905548,32.2215346 C298.46325,37.1390504 302.649059,40.7633007 307.658359,41.58567 C303.500966,44.4081345 298.659091,45.8971374 293.620415,45.8971374 L292.05004,45.8963607 C291.56543,45.8963607 291.155893,46.2157934 291.033012,46.6897965 C290.911476,47.1562265 291.134965,47.6492597 291.54815,47.8919897 C297.225805,51.2340907 303.702759,53 310.280321,53 C316.03804,53 321.423853,51.8447993 326.288385,49.5654675 C330.747986,47.476436 334.688418,44.4900801 338.001199,40.6891224 C341.08742,37.1481771 343.500293,33.0611863 345.173388,28.5403884 C346.767954,24.2320279 347.61103,19.6337506 347.61103,15.2448037 L347.61103,15.0354734 C347.61103,14.3307796 347.925911,13.6678354 348.475801,13.2157751 C350.562273,11.5022954 352.379561,9.48530613 353.876399,7.22112062 C354.271728,6.62342225 353.648494,5.87406618 352.998187,6.16534219 Z" id="twitter"/></g></g></g></svg>