<svg width="73" height="73" viewBox="0 0 73 73" version="1.1" xmlns="http://www.w3.org/2000/svg" xmlns:xlink="http://www.w3.org/1999/xlink"><title>linkedin</title><desc>Created with Sketch.</desc><defs><polygon id="path-1" points="0 73 73 73 73 0 0 0"/></defs><g id="All-Pages" stroke="none" stroke-width="1" fill="none" fill-rule="evenodd"><g id="Contact-Us" transform="translate(-684.000000, -2225.000000)"><g id="contact-module-copy" transform="translate(403.000000, 2225.000000)"><g id="linkedin" transform="translate(281.000000, 0.000000)"><mask id="mask-2" fill="#fff"><use xlink:href="#path-1"/></mask><path d="M65.338822,63.1878063 C65.338822,64.1635602 64.5476702,64.954712 63.5719162,64.954712 L54.7939529,64.954712 C53.818199,64.954712 53.0270471,64.1635602 53.0270471,63.1878063 L53.0270471,47.1033455 C53.0270471,44.7039005 53.7308665,36.5888613 46.7565,36.5888613 C41.3466649,36.5888613 40.2493717,42.1433586 40.029034,44.6360602 L40.029034,63.1878063 C40.029034,64.1635602 39.2380733,64.954712 38.2621283,64.954712 L29.7723429,64.954712 C28.796589,64.954712 28.0054372,64.1635602 28.0054372,63.1878063 L28.0054372,28.587144 C28.0054372,27.6113901 28.796589,26.8202382 29.7723429,26.8202382 L38.2621283,26.8202382 C39.2378822,26.8202382 40.029034,27.6113901 40.029034,28.587144 L40.029034,31.5788063 C42.0350052,28.5684162 45.0161571,26.2448377 51.3635262,26.2448377 C65.4192749,26.2448377 65.338822,39.3764293 65.338822,46.5915812 L65.338822,63.1878063 Z M16.5774974,23.5877906 C12.2855942,23.5877906 8.80624607,20.1084424 8.80624607,15.8165393 C8.80624607,11.5246361 12.2855942,8.04528796 16.5774974,8.04528796 C20.8694005,8.04528796 24.3487487,11.5246361 24.3487487,15.8165393 C24.3487487,20.1084424 20.8695916,23.5877906 16.5774974,23.5877906 Z M22.5892958,63.0330157 C22.5892958,64.0943822 21.728966,64.954712 20.6675995,64.954712 L12.4873953,64.954712 C11.4260288,64.954712 10.565699,64.0943822 10.565699,63.0330157 L10.565699,28.7419346 C10.565699,27.6805681 11.4260288,26.8202382 12.4873953,26.8202382 L20.6675995,26.8202382 C21.728966,26.8202382 22.5892958,27.6805681 22.5892958,28.7419346 L22.5892958,63.0330157 Z M66.3965576,0 L6.60344241,0 C2.9565,0 0,2.9565 0,6.60344241 L0,66.3963665 C0,70.0435 2.9565,73 6.60344241,73 L66.3963665,73 C70.0435,73 73,70.0435 73,66.3963665 L73,6.60344241 C73,2.9565 70.0435,0 66.3965576,0 L66.3965576,0 Z" id="Fill-1" fill="#1A6CA3" mask="url(#mask-2)"/></g></g></g></g></svg>