<?xml version="1.0" encoding="UTF-8"?>
<svg width="122px" height="54px" viewBox="0 0 122 54" version="1.1" xmlns="http://www.w3.org/2000/svg" xmlns:xlink="http://www.w3.org/1999/xlink">
    <!-- Generator: Sketch 46.2 (44496) - http://www.bohemiancoding.com/sketch -->
    <title>Outcome</title>
    <desc>Created with Sketch.</desc>
    <defs>
        <filter x="-6.1%" y="-8.1%" width="112.3%" height="117.3%" filterUnits="objectBoundingBox" id="filter-1">
            <feOffset dx="0" dy="2" in="SourceAlpha" result="shadowOffsetOuter1"></feOffset>
            <feGaussianBlur stdDeviation="10" in="shadowOffsetOuter1" result="shadowBlurOuter1"></feGaussianBlur>
            <feColorMatrix values="0 0 0 0 0   0 0 0 0 0   0 0 0 0 0  0 0 0 0.5 0" type="matrix" in="shadowBlurOuter1" result="shadowMatrixOuter1"></feColorMatrix>
            <feMerge>
                <feMergeNode in="shadowMatrixOuter1"></feMergeNode>
                <feMergeNode in="SourceGraphic"></feMergeNode>
            </feMerge>
        </filter>
    </defs>
    <g id="diagram-final" stroke="none" stroke-width="1" fill="none" fill-rule="evenodd">
        <g id="diagram-flat" filter="url(#filter-1)" transform="translate(-189.000000, -67.000000)" fill="#1A79D2">
            <path d="M220.268555,92.878418 C220.268555,94.7036224 219.696051,96.2160585 218.551025,97.4157715 C217.406,98.6154845 215.920908,99.215332 214.095703,99.215332 C212.304679,99.215332 210.850347,98.6154845 209.732666,97.4157715 C208.614985,96.2160585 208.056152,94.7036224 208.056152,92.878418 L208.056152,90.1918945 C208.056152,88.3735261 208.614985,86.862799 209.732666,85.659668 C210.850347,84.456537 212.301261,83.8549805 214.085449,83.8549805 C215.910654,83.8549805 217.397455,84.456537 218.545898,85.659668 C219.694342,86.862799 220.268555,88.3735261 220.268555,90.1918945 L220.268555,92.878418 Z M217.787109,90.1713867 C217.787109,88.9272399 217.453861,87.9052774 216.787354,87.1054688 C216.120846,86.3056601 215.220221,85.9057617 214.085449,85.9057617 C212.991694,85.9057617 212.126956,86.3056601 211.491211,87.1054688 C210.855466,87.9052774 210.537598,88.9272399 210.537598,90.1713867 L210.537598,92.878418 C210.537598,94.1362368 210.855466,95.166744 211.491211,95.9699707 C212.126956,96.7731974 212.995112,97.1748047 214.095703,97.1748047 C215.23731,97.1748047 216.137936,96.7749063 216.797607,95.9750977 C217.457279,95.175289 217.787109,94.1430727 217.787109,92.878418 L217.787109,90.1713867 Z M229.558594,97.3798828 C229.209959,97.9677764 228.769046,98.4206527 228.23584,98.7385254 C227.702634,99.0563981 227.087406,99.215332 226.390137,99.215332 C225.200678,99.215332 224.270999,98.8359413 223.601074,98.0771484 C222.931149,97.3183556 222.596191,96.1391682 222.596191,94.5395508 L222.596191,87.9052734 L225.077637,87.9052734 L225.077637,94.5600586 C225.077637,95.5307666 225.234862,96.2109356 225.549316,96.6005859 C225.863771,96.9902363 226.338864,97.1850586 226.974609,97.1850586 C227.576175,97.1850586 228.08032,97.0773937 228.487061,96.8620605 C228.893801,96.6467274 229.213378,96.3339864 229.445801,95.9238281 L229.445801,87.9052734 L231.9375,87.9052734 L231.9375,99 L229.763672,99 L229.558594,97.3798828 Z M237.638672,85.2084961 L237.638672,87.9052734 L239.62793,87.9052734 L239.62793,89.7509766 L237.638672,89.7509766 L237.638672,95.8828125 C237.638672,96.3408226 237.737792,96.6672354 237.936035,96.8620605 C238.134278,97.0568857 238.397459,97.1542969 238.725586,97.1542969 C238.862305,97.1542969 238.995605,97.1423341 239.125488,97.1184082 C239.255372,97.0944823 239.378417,97.0620119 239.494629,97.0209961 L239.76123,98.8461914 C239.549315,98.9624029 239.296388,99.0529782 239.002441,99.1179199 C238.708495,99.1828617 238.404298,99.215332 238.089844,99.215332 C237.173824,99.215332 236.456057,98.9470242 235.936523,98.4104004 C235.41699,97.8737766 235.157227,97.0312557 235.157227,95.8828125 L235.157227,89.7509766 L233.465332,89.7509766 L233.465332,87.9052734 L235.157227,87.9052734 L235.157227,85.2084961 L237.638672,85.2084961 Z M246.42627,97.2260742 C247.034671,97.2260742 247.547361,97.0466327 247.964355,96.6877441 C248.38135,96.3288556 248.589844,95.8793972 248.589844,95.3393555 L250.845703,95.3393555 L250.866211,95.4008789 C250.900391,96.4399466 250.478276,97.3354455 249.599854,98.0874023 C248.721431,98.8393592 247.66358,99.215332 246.42627,99.215332 C244.792472,99.215332 243.539799,98.6889701 242.668213,97.6362305 C241.796627,96.5834908 241.36084,95.2504963 241.36084,93.637207 L241.36084,93.2783203 C241.36084,91.671867 241.796627,90.3405815 242.668213,89.2844238 C243.539799,88.2282662 244.792472,87.7001953 246.42627,87.7001953 C247.759284,87.7001953 248.84106,88.0881309 249.671631,88.8640137 C250.502201,89.6398965 250.903809,90.6259706 250.876465,91.8222656 L250.855957,91.8837891 L248.589844,91.8837891 C248.589844,91.2753876 248.389895,90.7592795 247.98999,90.3354492 C247.590086,89.911619 247.068851,89.699707 246.42627,89.699707 C245.489741,89.699707 244.826662,90.0397915 244.437012,90.7199707 C244.047361,91.4001499 243.852539,92.2529246 243.852539,93.2783203 L243.852539,93.637207 C243.852539,94.6831107 244.047361,95.5427212 244.437012,96.2160645 C244.826662,96.8894077 245.489741,97.2260742 246.42627,97.2260742 Z M252.404297,93.3500977 C252.404297,91.7026285 252.855464,90.3491264 253.757812,89.2895508 C254.673833,88.2299752 255.914543,87.7001953 257.47998,87.7001953 C259.072762,87.7001953 260.320308,88.2299752 261.222656,89.2895508 C262.13184,90.3422904 262.586426,91.6957925 262.586426,93.3500977 L262.586426,93.5654297 C262.586426,95.2334068 262.13184,96.5937447 261.222656,97.6464844 C260.320308,98.692388 259.079598,99.215332 257.500488,99.215332 C255.914543,99.215332 254.666997,98.6889701 253.757812,97.6362305 C252.855464,96.5834908 252.404297,95.2265708 252.404297,93.5654297 L252.404297,93.3500977 Z M254.895996,93.5654297 C254.895996,94.6455132 255.107908,95.5273403 255.531738,96.2109375 C255.948733,96.8876987 256.604976,97.2260742 257.500488,97.2260742 C258.368657,97.2260742 259.018064,96.8876987 259.44873,96.2109375 C259.886233,95.5273403 260.10498,94.6455132 260.10498,93.5654297 L260.10498,93.3500977 C260.10498,92.290522 259.886233,91.4189487 259.44873,90.7353516 C259.018064,90.0449184 258.361821,89.699707 257.47998,89.699707 C256.611812,89.699707 255.962404,90.0449184 255.531738,90.7353516 C255.107908,91.4257847 254.895996,92.297358 254.895996,93.3500977 L254.895996,93.5654297 Z M267.036621,87.9052734 L267.169922,89.3510742 C267.532228,88.8247044 267.986814,88.4179702 268.533691,88.1308594 C269.080569,87.8437486 269.712887,87.7001953 270.430664,87.7001953 C271.155277,87.7001953 271.777341,87.8642562 272.296875,88.1923828 C272.816409,88.5205095 273.206053,89.012692 273.46582,89.6689453 C273.807619,89.0537079 274.258786,88.5717791 274.819336,88.2231445 C275.379886,87.87451 276.036129,87.7001953 276.788086,87.7001953 C277.902349,87.7001953 278.782467,88.081295 279.428467,88.8435059 C280.074466,89.6057167 280.397461,90.7626876 280.397461,92.3144531 L280.397461,99 L277.905762,99 L277.905762,92.3041992 C277.905762,91.3608351 277.74341,90.6977558 277.418701,90.3149414 C277.093993,89.932127 276.606937,89.7407227 275.95752,89.7407227 C275.424314,89.7407227 274.973146,89.8842759 274.604004,90.1713867 C274.234861,90.4584975 273.968263,90.8447241 273.804199,91.3300781 C273.804199,91.4326177 273.807617,91.521484 273.814453,91.5966797 C273.821289,91.6718754 273.824707,91.743652 273.824707,91.8120117 L273.824707,99 L271.333008,99 L271.333008,92.3041992 C271.333008,91.395015 271.167238,90.7404805 270.835693,90.3405762 C270.504149,89.9406718 270.017093,89.7407227 269.374512,89.7407227 C268.86865,89.7407227 268.439699,89.8381338 268.087646,90.032959 C267.735594,90.2277842 267.457032,90.5029279 267.251953,90.8583984 L267.251953,99 L264.760254,99 L264.760254,87.9052734 L267.036621,87.9052734 Z M287.780273,99.215332 C286.208,99.215332 284.955327,98.7009329 284.022217,97.6721191 C283.089107,96.6433054 282.622559,95.3222737 282.622559,93.7089844 L282.622559,93.2988281 C282.622559,91.6855388 283.085689,90.3474174 284.011963,89.2844238 C284.938237,88.2214302 286.098626,87.6933593 287.493164,87.7001953 C288.990242,87.7001953 290.136959,88.1530716 290.93335,89.0588379 C291.72974,89.9646041 292.12793,91.1796799 292.12793,92.7041016 L292.12793,94.1704102 L285.206543,94.1704102 L285.186035,94.2216797 C285.227051,95.10352 285.485105,95.8247042 285.960205,96.3852539 C286.435305,96.9458036 287.093258,97.2260742 287.934082,97.2260742 C288.604007,97.2260742 289.17822,97.1440438 289.656738,96.9799805 C290.135256,96.8159171 290.596677,96.5800797 291.041016,96.2724609 L291.84082,97.902832 C291.423826,98.2719745 290.870121,98.5830065 290.179688,98.8359375 C289.489254,99.0888685 288.689458,99.215332 287.780273,99.215332 Z M287.493164,89.699707 C286.877927,89.699707 286.372072,89.9440894 285.975586,90.4328613 C285.5791,90.9216333 285.333008,91.5419884 285.237305,92.2939453 L285.257812,92.3452148 L289.656738,92.3452148 L289.656738,92.0888672 C289.656738,91.3847621 289.477297,90.8105491 289.118408,90.3662109 C288.75952,89.9218728 288.217777,89.699707 287.493164,89.699707 Z" id="Outcome"></path>
        </g>
    </g>
</svg>