<svg width="29" height="24" viewBox="0 0 29 24" version="1.1" xmlns="http://www.w3.org/2000/svg" xmlns:xlink="http://www.w3.org/1999/xlink"><title>twitter-logo-silhouette</title><desc>Created with Sketch.</desc><g id="Symbols" stroke="none" stroke-width="1" fill="none" fill-rule="evenodd"><g id="footer" transform="translate(-878.000000, -625.000000)" fill="#0F78D1"><g id="twitter-logo-silhouette"><g><g><path d="M715,3.43859143 C713.937505,3.88657232 712.786657,4.19671293 711.583704,4.33239945 C712.813843,3.63242931 713.751738,2.52324587 714.202562,1.20084075 C713.051715,1.84912078 711.778533,2.32079297 710.414733,2.57278222 C709.33638,1.47867505 707.786814,0.789473684 706.078666,0.789473684 C702.796032,0.789473684 700.131865,3.3222887 700.131865,6.44307863 C700.131865,6.88890576 700.186235,7.31750286 700.28365,7.73102368 C695.335911,7.49411071 690.9568,5.24774501 688.018514,1.82327573 C687.504257,2.65677863 687.212015,3.63242931 687.212015,4.66838511 C687.212015,6.6283015 688.265448,8.36207368 689.858058,9.37003067 C688.883915,9.34633938 687.973205,9.08573511 687.168971,8.66359928 L687.168971,8.73251941 C687.168971,11.4742486 689.221467,13.7615356 691.937739,14.2848979 C691.441606,14.4098157 690.911491,14.476582 690.372315,14.476582 C689.991719,14.476582 689.620186,14.4442757 689.248652,14.3775093 C690.009843,16.623875 692.202797,18.254267 694.805796,18.3059571 C692.769159,19.8200464 690.202406,20.7203156 687.415905,20.7203156 C686.937895,20.7203156 686.468948,20.6944706 686,20.6449342 C688.636981,22.2516349 691.761034,23.1842105 695.122959,23.1842105 C706.060542,23.1842105 712.04359,14.5691935 712.04359,7.09997368 L712.025467,6.36769723 C713.194438,5.5686544 714.202562,4.57577368 715,3.43859143 Z" transform="translate(-88.000000, 0.000000) translate(0.000000, 545.000000) translate(280.000000, 80.000000)"/></g></g></g></g></g></svg>