<?xml version="1.0" encoding="UTF-8"?>
<svg width="340px" height="265px" viewBox="0 0 340 265" version="1.1" xmlns="http://www.w3.org/2000/svg" xmlns:xlink="http://www.w3.org/1999/xlink">
    <!-- Generator: Sketch 46.2 (44496) - http://www.bohemiancoding.com/sketch -->
    <title>BC home graphic</title>
    <desc>Created with Sketch.</desc>
    <defs>
        <path d="M121.771048,54.6471412 C120.23113,36.8273135 109.695321,20.3938365 94.9374836,10.5498761 C86.8491481,5.15586956 77.4789959,1.84544958 67.8608811,0.592513338 C41.350885,-2.85944203 13.4310354,8.79837564 3.43054809,34.8696006 C-5.16703795,57.2823678 3.30946349,79.5332974 18.7051678,96.5033327 C24.2599963,102.627059 25.0305346,114.141021 25.0305346,121.897044 L25.0305346,137.626614 C25.0305346,140.042287 26.9858482,142 29.3982706,142 L86.2440148,142 C88.5454912,142 90.4475044,140.211956 90.6024811,137.913456 C90.8119169,134.819399 91.156052,132.098033 91.156052,132.098033 C92.3440136,126.995218 96.6903135,122.902003 105.932719,124.388415 C115.630205,125.945014 121.746136,123.05253 122.290437,116.588017 C122.469167,114.455995 122.585907,96.2405641 122.585907,96.2405641 C123.048519,95.9754753 126.08896,95.3704695 130.518976,94.3623199 C133.964673,93.5769145 135.177547,89.2945988 132.665476,86.8067083 C122.592569,76.8299134 121.24152,72.1780976 120.99153,71.1766187 C119.743315,66.2031578 122.222653,59.8732195 121.771048,54.6471412 Z" id="path-1"></path>
    </defs>
    <g id="All-Pages" stroke="none" stroke-width="1" fill="none" fill-rule="evenodd">
        <g id="Home" transform="translate(-783.000000, -752.000000)">
            <g id="BC-home-graphic" transform="translate(762.000000, 695.000000)">
                <g id="Page-1" transform="translate(21.000000, 79.000000)" fill="#E5F3FB">
                    <path d="M340,109.654575 C340,169.440192 263.68608,210.700104 170.170417,217.906463 C42.164769,227.770037 5.26780919,169.23765 0.341986621,109.654575 C-5.99549758,33.0188297 76.6893531,9.03484396 170.170417,1.40268651 C309.582382,-9.97880282 340,49.8689578 340,109.654575" id="Fill-1"></path>
                </g>
                <g id="spiral" transform="translate(190.146447, 189.853553) rotate(-315.000000) translate(-190.146447, -189.853553) translate(56.646447, 55.853553)">
                    <path d="M138.766044,131.850186 L138.766044,131.393314 C107.742581,131.393314 82.5895601,106.099336 82.5895601,74.9020177 C82.5895601,45.6112807 104.786293,21.5318657 133.176484,18.6861166 L133.176484,29.2570504 L150.015385,15.6285252 L133.176484,2 L133.176484,13.036987 C101.654454,15.8756746 77,42.497198 77,74.9020177 C77,105.608996 99.1334191,131.120496 128.233956,136.149814 L128.233956,136.606686 C159.257419,136.606686 184.41044,161.900664 184.41044,193.097982 C184.41044,222.388719 162.213707,246.468134 133.823516,249.313883 L133.823516,238.74295 L116.984615,252.371475 L133.823516,266 L133.823516,254.963013 C165.345546,252.124325 190,225.502802 190,193.097982 C190,162.391004 167.866581,136.879504 138.766044,131.850186 Z" id="Combined-Shape" fill="#327EC1"></path>
                    <path d="M138.766044,131.850186 L138.766044,131.393314 C107.742581,131.393314 82.5895601,106.099336 82.5895601,74.9020177 C82.5895601,45.6112807 104.786293,21.5318657 133.176484,18.6861166 L133.176484,29.2570504 L150.015385,15.6285252 L133.176484,2 L133.176484,13.036987 C101.654454,15.8756746 77,42.497198 77,74.9020177 C77,105.608996 99.1334191,131.120496 128.233956,136.149814 L128.233956,136.606686 C159.257419,136.606686 184.41044,161.900664 184.41044,193.097982 C184.41044,222.388719 162.213707,246.468134 133.823516,249.313883 L133.823516,238.74295 L116.984615,252.371475 L133.823516,266 L133.823516,254.963013 C165.345546,252.124325 190,225.502802 190,193.097982 C190,162.391004 167.866581,136.879504 138.766044,131.850186 Z" id="Combined-Shape" fill="#8697CB" transform="translate(133.500000, 134.000000) rotate(45.000000) translate(-133.500000, -134.000000) "></path>
                    <path d="M138.766044,131.850186 L138.766044,131.393314 C107.742581,131.393314 82.5895601,106.099336 82.5895601,74.9020177 C82.5895601,45.6112807 104.786293,21.5318657 133.176484,18.6861166 L133.176484,29.2570504 L150.015385,15.6285252 L133.176484,2 L133.176484,13.036987 C101.654454,15.8756746 77,42.497198 77,74.9020177 C77,105.608996 99.1334191,131.120496 128.233956,136.149814 L128.233956,136.606686 C159.257419,136.606686 184.41044,161.900664 184.41044,193.097982 C184.41044,222.388719 162.213707,246.468134 133.823516,249.313883 L133.823516,238.74295 L116.984615,252.371475 L133.823516,266 L133.823516,254.963013 C165.345546,252.124325 190,225.502802 190,193.097982 C190,162.391004 167.866581,136.879504 138.766044,131.850186 Z" id="Combined-Shape" fill="#FFD24C" transform="translate(133.500000, 134.000000) rotate(90.000000) translate(-133.500000, -134.000000) "></path>
                    <path d="M138.766044,131.850186 L138.766044,131.393314 C107.742581,131.393314 82.5895601,106.099336 82.5895601,74.9020177 C82.5895601,45.6112807 104.786293,21.5318657 133.176484,18.6861166 L133.176484,29.2570504 L150.015385,15.6285252 L133.176484,2 L133.176484,13.036987 C101.654454,15.8756746 77,42.497198 77,74.9020177 C77,105.608996 99.1334191,131.120496 128.233956,136.149814 L128.233956,136.606686 C159.257419,136.606686 184.41044,161.900664 184.41044,193.097982 C184.41044,222.388719 162.213707,246.468134 133.823516,249.313883 L133.823516,238.74295 L116.984615,252.371475 L133.823516,266 L133.823516,254.963013 C165.345546,252.124325 190,225.502802 190,193.097982 C190,162.391004 167.866581,136.879504 138.766044,131.850186 Z" id="Combined-Shape" fill="#6FC4D5" transform="translate(133.500000, 134.000000) rotate(135.000000) translate(-133.500000, -134.000000) "></path>
                </g>
                <g id="head" transform="translate(124.000000, 109.000000)">
                    <g id="Path">
                        <use fill="#01459B" fill-rule="evenodd" xlink:href="#path-1"></use>
                        <path stroke="#E5F3FB" stroke-width="4" d="M124.575417,97.745729 C124.571461,98.2834152 124.567043,98.8598669 124.562173,99.4675837 C124.54286,101.877807 124.520453,104.288103 124.495204,106.538186 C124.431932,112.176645 124.363762,115.797026 124.283385,116.75582 C123.621693,124.614552 116.331524,128.083188 105.615149,126.363041 C98.3345675,125.19214 94.2920857,127.64909 93.1272296,132.453593 C93.1051562,132.633382 93.0725508,132.909345 93.0324747,133.266375 C92.9506003,133.995777 92.8686563,134.791417 92.7921989,135.625621 C92.7172017,136.443892 92.6515583,137.256036 92.5979503,138.048 C92.372172,141.396578 89.5977358,144 86.2440148,144 L29.3982706,144 C25.8806639,144 23.0305346,141.146243 23.0305346,137.626614 L23.0305346,121.897044 C23.0305346,110.867601 21.4156592,102.468208 17.2239155,97.8471674 C-0.221815369,78.6174742 -6.70705015,55.7127986 1.56321193,34.1533216 C11.3907638,8.5329386 38.9722282,-5.18605914 68.1192349,-1.39072978 C78.2507603,-0.0709123929 87.8636636,3.42849146 96.0473056,8.88605666 C111.631624,19.2813069 122.201918,36.4030216 123.763622,54.474951 C123.947427,56.6019875 123.788008,58.3298739 123.210475,62.2702489 C123.199812,62.3429975 123.199812,62.3429975 123.189169,62.4156453 C122.548901,66.7866758 122.442572,68.7421775 122.931987,70.6922391 C123.010445,71.0065443 123.123327,71.3464588 123.338151,71.8396513 C123.668019,72.5969598 124.152522,73.4937255 124.827771,74.54519 C126.696282,77.4547482 129.69392,81.0485402 134.072833,85.385672 C137.705387,88.9832599 135.947967,95.1761442 130.962774,96.3124592 C129.566204,96.6302801 125.830144,97.4574359 125.506093,97.5307668 C125.145392,97.6123917 124.838092,97.6833141 124.575417,97.745729 Z"></path>
                    </g>
                    <path d="M103.523156,48.2003836 C102.114239,49.9738903 100.510545,50.3201312 99.6617543,50.3664898 C99.3818369,50.3824255 99.187061,50.6460901 99.2631636,50.9132316 C99.6993682,52.4390095 100.142571,56.6411279 92.5716801,58.2778766 C85.4714007,59.8114774 81.1784594,65.2983089 78.3743286,68.0859101 C76.2204227,70.2239114 73.3069492,71.2130882 70.4013484,71.864137 C67.4318915,72.5273549 64.4901347,73.1079965 62.1469929,75.2051442 C59.6799294,77.4132628 56.200498,89.5722575 55.6091725,91.6864999 C55.5581459,91.8719343 55.3872796,92 55.1936701,92 L51.5500788,92 C51.3448061,92 51.1683998,91.8571575 51.1261206,91.6581052 L49.3597253,83.359624 C49.2856638,83.0110652 32.1690072,84.4099363 30.8510628,76.8178444 C30.8055763,76.5518619 30.5344063,76.3867093 30.2781069,76.4782676 C28.632426,77.0678912 23.3521927,78.5200747 20.5022838,74.1322321 C18.4816302,71.0207 19.0181385,68.1154638 19.2995138,67.112669 C19.3587047,66.905504 19.2528609,66.689357 19.0534198,66.6033038 C17.6013483,65.9832574 12.35523,63.0597674 13.0658119,53.4418042 C13.6399341,45.6889058 18.9181264,42.2525737 18.1798443,41.0597087 C16.0510142,37.6213484 17.9019679,31.9203982 22.2619728,30.6472748 C22.4375043,30.5962803 22.562884,30.4424277 22.5786293,30.2601804 L22.7631999,28.2398141 C23.3679381,21.113916 32.7909486,16.5980078 39.1975578,19.5600333 C39.4448182,19.6744811 39.7387314,19.5522103 39.8206656,19.2952097 C40.6225123,16.7689551 42.2410762,16.0729965 42.6726155,15.8319317 C44.6591542,14.7216429 47.2378932,14.8584008 49.2912038,15.696043 C49.45653,15.7638425 49.6466406,15.7232787 49.7685213,15.5920259 C50.3516825,14.9716897 52.7446846,13 56.7060987,13 C60.768983,13 62.8351232,14.9627077 63.5570768,15.5114778 C63.6891628,15.6134667 63.8681933,15.6305615 64.017191,15.5558082 C64.930713,15.0916426 68.2690194,13.6055594 71.6108248,14.7497479 C74.1338718,15.6146257 75.5666989,17.8974976 76.0177741,18.728186 C76.1145789,18.9046384 76.3160611,18.9964864 76.5143359,18.9501278 C77.7124407,18.6670505 81.8560927,17.876926 85.3381484,19.4389214 C89.0170209,21.0913162 90.1649738,23.4793642 90.4577207,24.2807887 C90.5169116,24.4436233 90.6708661,24.5522763 90.8449398,24.5592301 C91.6432875,24.5908119 93.8438464,24.7832001 95.2049446,25.9195656 C97.6084436,27.926314 97.3725549,29.5085914 97.0970112,30.1865861 C97.0127444,30.3925922 97.1048839,30.6290211 97.3063661,30.7275331 C98.4032924,31.2618161 101.479759,33.028369 103.388738,36.7793601 C106.015296,41.9483454 104.963856,46.3860235 103.523156,48.2003836 Z" id="brain-and-head" fill="#4A90E2"></path>
                </g>
            </g>
        </g>
    </g>
</svg>