<?xml version="1.0" encoding="UTF-8"?>
<svg width="718px" height="608px" viewBox="0 0 718 608" version="1.1" xmlns="http://www.w3.org/2000/svg" xmlns:xlink="http://www.w3.org/1999/xlink">
    <!-- Generator: Sketch 46.2 (44496) - http://www.bohemiancoding.com/sketch -->
    <title>press-realise</title>
    <desc>Created with Sketch.</desc>
    <defs>
        <polygon id="path-1" points="487.562584 0.144520809 0.125168792 0.144520809 0.125168792 659 975 659 975 0.144520809"></polygon>
    </defs>
    <g id="All-Pages" stroke="none" stroke-width="1" fill="none" fill-rule="evenodd">
        <g id="Home" transform="translate(-520.000000, -2183.000000)">
            <g id="Group-8" transform="translate(-64.000000, 1946.000000)">
                <g id="press-realise" transform="translate(444.000000, 237.000000)">
                    <mask id="mask-2" fill="white">
                        <use xlink:href="#path-1"></use>
                    </mask>
                    <g id="Clip-2"></g>
                    <path d="M736.654599,506.614929 C736.082994,505.875716 735.530166,505.138603 735.000284,504.374189 C729.67018,501.988545 724.650911,499.067392 719.996719,495.694731 L187.939647,495.694731 L187.939647,48.4033982 L682.128987,48.4033982 L682.128987,146.473081 C682.128987,156.374761 690.098066,164.399007 699.934247,164.399007 L794.495098,164.399007 L794.495098,197.957617 L797.430306,197.957617 C813.963017,197.957617 829.390071,202.756205 842.436831,211.034555 L842.436831,137.713822 C842.436831,133.872852 840.920203,130.197785 838.222815,127.476136 L715.939164,4.3844979 C713.250121,1.66914853 709.59102,0.144520809 705.769199,0.144520809 L183.149855,0.144520809 C159.353181,0.144520809 140,19.626575 140,43.5712104 L140,500.526919 C140,524.473654 159.353181,543.955708 183.149855,543.955708 L736.654599,543.955708 L736.654599,506.614929 Z" id="Fill-1" fill-opacity="0.03" fill="#0076FF" mask="url(#mask-2)"></path>
                    <path d="M525,243.5 C525,233.829931 517.124327,226 507.41385,226 L257.588237,226 C247.87776,226 240,233.829931 240,243.5 C240,253.161761 247.87776,261 257.588237,261 L507.41385,261 C517.124327,261 525,253.161761 525,243.5 Z" id="Fill-4" fill-opacity="0.03" fill="#0076FF" mask="url(#mask-2)"></path>
                    <path d="M257.55034,349 L394.451743,349 C404.149628,349 412,341.165233 412,331.505191 C412,321.834767 404.149628,314 394.451743,314 L257.55034,314 C247.860786,314 240,321.834767 240,331.505191 C240,341.165233 247.860786,349 257.55034,349 Z" id="Fill-5" fill-opacity="0.03" fill="#0076FF" mask="url(#mask-2)"></path>
                    <path d="M257.587045,438 L485.406693,438 C495.124861,438 503,430.165233 503,420.496885 C503,410.834767 495.124861,403 485.406693,403 L257.587045,403 C247.877226,403 240,410.834767 240,420.496885 C240,430.165233 247.877226,438 257.587045,438 Z" id="Fill-6" fill-opacity="0.03" fill="#0076FF" mask="url(#mask-2)"></path>
                    <path d="M819.454798,569.198455 L805.3727,569.198455 L805.3727,493.747155 C809.850331,491.128865 813.217426,486.818983 814.628558,481.681167 C839.319198,474.818137 857.461432,452.056245 857.461432,425.018093 L857.461432,391.854488 L820.473485,391.854488 L820.473485,356.583222 L857.461432,356.583222 L857.461432,320.139399 L820.473485,320.139399 L820.473485,288.387905 L857.461432,288.387905 L857.461432,281.789646 C857.461432,249.315285 831.319998,223 799.062267,223 L770.937733,223 C738.688352,223 712.544831,249.315285 712.544831,281.789646 L712.544831,288.387905 L749.524428,288.387905 L749.524428,320.139399 L712.544831,320.139399 L712.544831,356.583222 L749.524428,356.583222 L749.524428,391.854488 L712.544831,391.854488 L712.544831,425.018093 C712.544831,452.056245 730.680802,474.818137 755.371442,481.681167 C756.782574,486.818983 760.149669,491.128865 764.633563,493.747155 L764.633563,569.198455 L750.543115,569.198455 C729.26132,569.198455 712,586.568267 712,608 L858,608 C858,586.568267 840.744942,569.198455 819.454798,569.198455 Z" id="Fill-7" fill-opacity="0.03" fill="#0076FF" mask="url(#mask-2)"></path>
                    <path d="M251.725133,175 C257.032079,175 261.348258,170.648072 261.348258,165.307449 L261.348258,149.720354 L274.43388,149.720354 C297.607893,149.720354 312,136.639486 312,115.590533 C312,94.8676616 297.607893,82 274.43388,82 L249.631433,82 C244.316178,82 240,86.3435674 240,91.6841904 L240,165.307449 C240,170.648072 244.316178,175 249.631433,175 L251.725133,175 Z M261.348258,103.473276 L274.43388,103.473276 C290.662128,103.473276 290.662128,112.283736 290.662128,115.590533 C290.662128,119.052009 290.662128,128.238717 274.43388,128.238717 L261.348258,128.238717 L261.348258,103.473276 Z" id="Fill-8" fill-opacity="0.03" fill="#0076FF" mask="url(#mask-2)"></path>
                    <path d="M393.966782,115.590533 C393.966782,94.8676616 379.57301,82 356.409689,82 L331.618685,82 C326.314187,82 322,86.3435674 322,91.6841904 L322,165.307449 C322,170.648072 326.314187,175 331.618685,175 L333.711419,175 C339.013841,175 343.328028,170.648072 343.328028,165.307449 L343.328028,149.720354 L356.409689,149.720354 C357.098962,149.720354 357.779931,149.703632 358.494118,149.672278 L373.95917,171.024319 C375.761246,173.513823 378.671972,175 381.730104,175 L384.657439,175 L384.688581,174.991639 C389.847751,174.828598 394,170.549829 394,165.307449 C394,162.989346 393.179931,160.767396 391.687197,159.011575 L380.310035,143.319968 C389.158478,137.358536 393.966782,127.699429 393.966782,115.590533 Z M356.409689,128.230356 L343.328028,128.230356 L343.328028,103.473276 L356.409689,103.473276 C372.63045,103.473276 372.63045,112.275375 372.63045,115.590533 C372.63045,119.052009 372.63045,128.230356 356.409689,128.230356 Z" id="Fill-9" fill-opacity="0.03" fill="#0076FF" mask="url(#mask-2)"></path>
                    <path d="M458.818673,103.473276 C464.167448,103.473276 468.527726,99.1297087 468.527726,93.7890857 L468.527726,91.6841904 C468.527726,86.3435674 464.167448,82 458.818673,82 L412.702769,82 C407.3519,82 403,86.3435674 403,91.6841904 L403,165.307449 C403,170.648072 407.3519,175 412.702769,175 L460.299325,175 C465.6481,175 470,170.648072 470,165.307449 L470,163.200463 C470,157.86193 465.6481,153.510002 460.299325,153.510002 L424.516567,153.510002 L424.516567,138.125663 L453.966242,138.125663 C459.317111,138.125663 463.669011,133.782096 463.669011,128.441473 L463.669011,126.336577 C463.669011,120.995954 459.317111,116.644026 453.966242,116.644026 L424.516567,116.644026 L424.516567,103.473276 L458.818673,103.473276 Z" id="Fill-10" fill-opacity="0.03" fill="#0076FF" mask="url(#mask-2)"></path>
                    <path d="M544.998948,147.483769 C545.160812,126.173535 526.598424,120.521463 515.50042,117.141507 C502.514012,113.190909 501.289663,111.499886 501.289663,108.013327 C501.289663,105.18102 507.191443,103.481636 512.898158,103.481636 C517.58389,103.481636 523.006307,104.886293 526.094158,106.886675 C528.250259,108.291332 530.941753,108.757461 533.398753,108.201451 C535.895182,107.645441 538.101087,106.069382 539.462397,103.882967 L540.508283,102.200305 C543.272408,97.733412 541.958826,91.780342 537.565693,88.9229521 C530.999858,84.6525441 521.547463,82 512.898158,82 C493.200654,82 479.96315,92.4513166 479.96315,108.013327 C479.96315,128.761281 498.241239,134.338103 509.16908,137.669983 C522.529018,141.743906 523.703564,143.474644 523.670361,147.402249 C523.670361,152.243299 515.118589,153.518359 510.596796,153.518359 C504.541453,153.518359 497.739048,150.773844 494.051473,146.8546 C492.283429,144.969182 489.787001,143.865523 487.128709,143.825808 C484.509846,143.834169 482.077748,144.845857 480.270275,146.658115 L478.803131,148.135931 C475.090653,151.883773 475.059526,157.999884 478.747101,161.78117 C486.699149,169.937378 498.907369,174.999995 510.596796,174.999995 C530.852521,175.008356 544.998948,163.674949 544.998948,147.483769 Z" id="Fill-11" fill-opacity="0.03" fill="#0076FF" mask="url(#mask-2)"></path>
                    <path d="M587.596288,153.520294 C581.540855,153.520294 574.738351,150.776025 571.050721,146.857133 C569.282651,144.971885 566.786186,143.868325 564.127855,143.828614 C561.517254,143.836974 559.076819,144.848571 557.26932,146.660666 L555.810454,148.129989 C552.089621,151.877495 552.058493,158.001416 555.746123,161.782362 C563.706589,169.929477 575.906688,175 587.596288,175 C607.852312,175 621.998948,163.667611 621.998948,147.477886 C622.160814,126.169566 603.598153,120.518002 592.508286,117.13835 C579.513385,113.188107 578.289017,111.497236 578.289017,108.01099 C578.289017,105.178937 584.190885,103.479706 589.897685,103.479706 C594.575185,103.479706 600.005982,104.884237 603.085579,106.884439 C605.241711,108.28897 607.933245,108.761327 610.398582,108.199097 C612.895047,107.643136 615.098909,106.06722 616.462316,103.881001 L617.508216,102.19849 C620.272382,97.7319984 618.958781,91.7794633 614.565583,88.9223301 C607.999651,84.6523058 598.547117,82 589.897685,82 C570.199889,82 556.96219,92.4503776 556.96219,108.01099 C556.96219,128.757079 575.24885,134.333401 586.176851,137.664981 C599.528686,141.738538 600.703249,143.469121 600.670046,147.396373 C600.670046,152.236988 592.118148,153.520294 587.596288,153.520294 Z" id="Fill-12" fill-opacity="0.03" fill="#0076FF" mask="url(#mask-2)"></path>
                </g>
            </g>
        </g>
    </g>
</svg>