<svg width="338" height="78" viewBox="0 0 338 78" version="1.1" xmlns="http://www.w3.org/2000/svg" xmlns:xlink="http://www.w3.org/1999/xlink"><title>logo</title><desc>Created with Sketch.</desc><g id="Page-1" stroke="none" stroke-width="1" fill="none" fill-rule="evenodd"><g id="logo"><g id="Page-1"><polygon id="Fill-1" fill="#FEFEFE" points="2 77 61 77 61 2 2 2"/><path d="M0,78 L62,78 L62,0 L0,0 L0,78 Z M3.36918952,74.5727621 L58.6341023,74.5727621 L58.6341023,3.4305176 L3.36918952,3.4305176 L3.36918952,74.5727621 Z" id="Fill-2" fill="#1C75BB"/><g id="Group-13" transform="translate(14.000000, 13.000000)"><path d="M0.471581818,41.7385455 C0.471581818,38.5705455 1.20794545,36.0243636 2.68230909,34.0967273 C4.17794545,32.192 6.14976364,31.2396364 8.5994,31.2396364 C10.5286727,31.2396364 12.1977636,31.8712727 13.6066727,33.1329091 C15.0368545,34.4174545 15.8386727,36.0243636 16.0121273,37.9503636 L13.5412182,37.9503636 C13.4332182,36.6887273 12.9014,35.6250909 11.9490364,34.7610909 C10.9950364,33.92 9.87903636,33.4978182 8.5994,33.4978182 C6.82230909,33.4978182 5.40194545,34.3618182 4.34158182,36.0898182 C3.40885455,37.6410909 2.94249091,39.5229091 2.94249091,41.7385455 C2.94249091,43.91 3.41867273,45.7590909 4.37267273,47.2874545 C5.43467273,48.9712727 6.84521818,49.8123636 8.5994,49.8123636 C10.0508545,49.8123636 11.2224909,49.3705455 12.1110364,48.4836364 C13.0208545,47.5983636 13.4970364,46.412 13.5412182,44.9278182 L16.0121273,44.9278182 C16.0121273,47.0992727 15.3395818,48.8272727 13.9961273,50.1118182 C12.6314,51.4192727 10.8314,52.0721818 8.5994,52.0721818 C6.14976364,52.0721818 4.17794545,51.1312727 2.68230909,49.2478182 C1.20794545,47.3643636 0.471581818,44.8623636 0.471581818,41.7385455" id="Fill-3" fill="#939597"/><path d="M21.7138727,41.2734909 L27.3707818,41.2734909 C28.4982364,41.2734909 29.4080545,40.9380364 30.1018727,40.2671273 C30.7727818,39.5749455 31.1098727,38.6700364 31.1098727,37.5524 C31.1098727,36.4560364 30.7727818,35.5740364 30.1018727,34.9031273 C29.4080545,34.2322182 28.4982364,33.8967636 27.3707818,33.8967636 L21.7138727,33.8967636 L21.7138727,41.2734909 Z M19.2429636,51.8394909 L19.2429636,31.6369455 L27.3707818,31.6369455 C29.2558727,31.6369455 30.7629636,32.1802182 31.8904182,33.2651273 C33.0162364,34.3287636 33.5807818,35.7573091 33.5807818,37.5524 C33.5807818,39.3687636 33.0162364,40.8202182 31.8904182,41.9051273 C30.7629636,42.9900364 29.2558727,43.5316727 27.3707818,43.5316727 L21.7138727,43.5316727 L21.7138727,51.8394909 L19.2429636,51.8394909 Z" id="Fill-5" fill="#939597"/><polygon id="Fill-7" fill="#939597" points="1.34965455 20.0910909 1.34965455 0.286181818 3.77147273 0.286181818 3.77147273 8.46309091 13.4603818 8.46309091 13.4603818 0.286181818 15.8822 0.286181818 15.8822 20.0910909 13.4603818 20.0910909 13.4603818 10.6770909 3.77147273 10.6770909 3.77147273 20.0910909"/><path d="M21.6196182,17.8754545 L27.4205273,17.8754545 C28.4612545,17.8754545 29.3645273,17.5710909 30.1287091,16.964 C30.9158,16.3127273 31.3085273,15.4978182 31.3085273,14.5209091 C31.3085273,13.5227273 30.9158,12.6865455 30.1287091,12.0123636 C29.3645273,11.3627273 28.4612545,11.0354545 27.4205273,11.0354545 L21.6196182,11.0354545 L21.6196182,17.8754545 Z M21.6196182,8.82145455 L27.4205273,8.82145455 C28.3123455,8.82145455 29.0781636,8.53672727 29.7147091,7.96890909 C30.3741636,7.40272727 30.7030727,6.69418182 30.7030727,5.84163636 C30.7030727,4.92527273 30.3839818,4.13818182 29.7474364,3.48363636 C29.1092545,2.82909091 28.3336182,2.50181818 27.4205273,2.50181818 L21.6196182,2.50181818 L21.6196182,8.82145455 Z M19.1978,20.0910909 L19.1978,0.286181818 L27.4205273,0.286181818 C28.9718,0.286181818 30.3103455,0.819636364 31.4361636,1.88327273 C32.5619818,2.96981818 33.1248909,4.29363636 33.1248909,5.85636364 C33.1248909,6.74818182 32.9121636,7.56145455 32.4883455,8.29945455 C32.0416182,9.03909091 31.4459818,9.59218182 30.7030727,9.962 C31.6161636,10.3956364 32.3378,11.0141818 32.8696182,11.8176364 C33.4439818,12.6423636 33.7303455,13.544 33.7303455,14.5209091 C33.7303455,16.1294545 33.0938,17.4647273 31.8174364,18.5267273 C30.5852545,19.5690909 29.1190727,20.0910909 27.4205273,20.0910909 L19.1978,20.0910909 Z" id="Fill-9" fill="#939597"/><polygon id="Fill-11" fill="#1C75BB" points="13.9674909 31.0797636 11.7649455 29.1995818 18.3922182 21.0881273 20.5947636 22.9683091"/></g></g><path d="M91.7544749,29.5779828 L91.7544749,8 L93.3388723,8 L93.3388723,17.959069 L108.051133,17.959069 L108.051133,8 L109.635531,8 L109.635531,29.5779828 L108.051133,29.5779828 L108.051133,19.3171238 L93.3388723,19.3171238 L93.3388723,29.5779828 L91.7544749,29.5779828 Z M127.516586,13.7340094 L127.516586,29.5779828 L126.354695,29.5779828 L126.173621,27.55599 C124.352812,28.9039919 122.32078,29.5779828 120.077463,29.5779828 C116.335249,29.5779828 114.46417,27.6113378 114.46417,23.6779889 L114.46417,13.7340094 L116.048567,13.7340094 L116.048567,23.7232574 C116.048567,26.6808139 117.416668,28.1595699 120.152911,28.1595699 C122.154794,28.1595699 124.081201,27.4906088 125.932189,26.1526666 L125.932189,13.7340094 L127.516586,13.7340094 Z M132.345226,29.5779828 L132.345226,13.7340094 L133.476938,13.7340094 L133.642923,15.7258232 C135.262537,14.3979407 137.017931,13.7340094 138.909158,13.7340094 C141.403967,13.7340094 143.018527,14.4582981 143.752887,15.9068972 C145.573695,14.4582981 147.419625,13.7340094 149.290732,13.7340094 C152.831752,13.7340094 154.602236,15.4894035 154.602236,19.0002444 L154.602236,29.5779828 L153.017839,29.5779828 L153.017839,19.0002444 C153.017839,16.4350168 151.770453,15.1524223 149.275643,15.1524223 C147.283819,15.1524223 145.63908,15.8364727 144.341377,17.204594 L144.341377,29.5779828 L142.75698,29.5779828 L142.75698,18.7437229 C142.75698,16.3495105 141.469355,15.1524223 138.894068,15.1524223 C137.022961,15.1524223 135.368162,15.8364727 133.929623,17.204594 L133.929623,29.5779828 L132.345226,29.5779828 Z M158.525506,25.0964017 C158.525506,21.9477107 160.617895,20.3733887 164.802737,20.3733887 C166.281515,20.3733887 167.860867,20.4739844 169.540839,20.6751787 L169.540839,18.7286334 C169.540839,16.3042419 168.016815,15.0920643 164.968721,15.0920643 C163.23845,15.0920643 161.518265,15.3435534 159.808113,15.8465392 L159.808113,14.4884843 C161.518265,13.9854985 163.23845,13.7340094 164.968721,13.7340094 C169.073085,13.7340094 171.125237,15.3737185 171.125237,18.6531859 L171.125237,29.5779828 L170.159509,29.5779828 L169.797361,28.0086749 C167.815597,29.0548854 165.89422,29.5779828 164.033172,29.5779828 C160.361376,29.5779828 158.525506,28.0841374 158.525506,25.0964017 Z M164.802737,21.7314436 C161.674165,21.7314436 160.109903,22.8379957 160.109903,25.0511332 C160.109903,27.1636736 161.417646,28.2199279 164.033172,28.2199279 C165.964638,28.2199279 167.800509,27.7068901 169.540839,26.6807991 L169.540839,22.0332336 C167.860867,21.8320392 166.281515,21.7314436 164.802737,21.7314436 Z M175.953876,29.5779828 L175.953876,13.7340094 L177.085589,13.7340094 L177.281752,15.7560022 C179.303755,14.4080003 181.285489,13.7340094 183.227014,13.7340094 C187.079886,13.7340094 189.006292,15.3988674 189.006292,18.7286334 L189.006292,29.5779828 L187.421895,29.5779828 L187.421895,18.6833649 C187.421895,16.3293914 185.998467,15.1524223 183.151567,15.1524223 C181.250281,15.1524223 179.379202,15.8213833 177.538274,17.1593256 L177.538274,29.5779828 L175.953876,29.5779828 Z M201.379681,29.5779828 L201.379681,8 L210.584275,8 C214.688639,8 216.740791,9.67491758 216.740791,13.024803 C216.740791,15.4793737 215.251975,17.2347678 212.274299,18.2910379 C215.43305,18.8242029 217.012401,20.50918 217.012401,23.3460199 C217.012401,27.5006826 214.764089,29.5779828 210.267396,29.5779828 L201.379681,29.5779828 Z M210.101411,28.2199279 C213.582073,28.2199279 215.322378,26.6103975 215.322378,23.3912884 C215.322378,20.5443888 213.144482,19.1209604 208.788625,19.1209604 L207.581465,19.1209604 L207.581465,18.049606 C212.611323,17.5969187 215.126214,15.9572096 215.126214,13.1304295 C215.126214,10.6155005 213.577041,9.35805486 210.478649,9.35805486 L202.964078,9.35805486 L202.964078,28.2199279 L210.101411,28.2199279 Z M227.831572,13.7340094 C232.167309,13.7340094 234.335146,16.1332157 234.335146,20.9317002 C234.335146,21.2737305 234.325086,21.6308451 234.304967,22.0030546 L222.278636,22.0030546 C222.278636,26.1476575 224.471622,28.2199279 228.857658,28.2199279 C230.658347,28.2199279 232.257818,27.9684388 233.656118,27.465453 L233.656118,28.8235079 C232.257818,29.3264936 230.658347,29.5779828 228.857658,29.5779828 C223.415351,29.5779828 220.694239,26.8769896 220.694239,21.4749221 C220.694239,16.3142878 223.073326,13.7340094 227.831572,13.7340094 Z M222.278636,20.5846417 L232.811106,20.5846417 C232.750748,16.9027857 231.09092,15.0618853 227.831572,15.0618853 C224.310671,15.0618853 222.459711,16.9027857 222.278636,20.5846417 Z M238.40931,29.5779828 L238.40931,8 L239.993708,8 L239.993708,15.4542122 C241.844695,14.3074046 243.740923,13.7340094 245.682449,13.7340094 C249.53532,13.7340094 251.461726,15.7006544 251.461726,19.6340033 L251.461726,29.5779828 L249.877329,29.5779828 L249.877329,18.9851549 C249.877329,16.429987 248.453901,15.1524223 245.607001,15.1524223 C243.705715,15.1524223 241.834636,15.8213833 239.993708,17.1593256 L239.993708,29.5779828 L238.40931,29.5779828 Z M255.384996,25.0964017 C255.384996,21.9477107 257.477386,20.3733887 261.662227,20.3733887 C263.141006,20.3733887 264.720357,20.4739844 266.40033,20.6751787 L266.40033,18.7286334 C266.40033,16.3042419 264.876306,15.0920643 261.828212,15.0920643 C260.097941,15.0920643 258.377755,15.3435534 256.667603,15.8465392 L256.667603,14.4884843 C258.377755,13.9854985 260.097941,13.7340094 261.828212,13.7340094 C265.932576,13.7340094 267.984727,15.3737185 267.984727,18.6531859 L267.984727,29.5779828 L267.018999,29.5779828 L266.656851,28.0086749 C264.675087,29.0548854 262.75371,29.5779828 260.892663,29.5779828 C257.220867,29.5779828 255.384996,28.0841374 255.384996,25.0964017 Z M261.662227,21.7314436 C258.533656,21.7314436 256.969393,22.8379957 256.969393,25.0511332 C256.969393,27.1636736 258.277137,28.2199279 260.892663,28.2199279 C262.824128,28.2199279 264.659999,27.7068901 266.40033,26.6807991 L266.40033,22.0332336 C264.720357,21.8320392 263.141006,21.7314436 261.662227,21.7314436 Z M270.549942,13.7340094 L272.360682,13.7340094 L278.155049,28.2048384 L283.979596,13.7340094 L285.790335,13.7340094 L279.04533,29.5779828 L277.204411,29.5779828 L270.549942,13.7340094 Z M290.392632,8 L290.392632,9.81073981 L288.506445,9.81073981 L288.506445,8 L290.392632,8 Z M290.241737,13.7340094 L290.241737,29.5779828 L288.65734,29.5779828 L288.65734,13.7340094 L290.241737,13.7340094 Z M302.011546,28.3708229 C305.884537,28.3708229 307.821003,26.1124505 307.821003,21.5956381 C307.821003,17.1593034 305.884537,14.9411693 302.011546,14.9411693 C298.138556,14.9411693 296.202089,17.1593034 296.202089,21.5956381 C296.202089,26.1124505 298.138556,28.3708229 302.011546,28.3708229 Z M294.617692,21.6559961 C294.617692,16.2740481 297.082285,13.5831144 302.011546,13.5831144 C306.940807,13.5831144 309.4054,16.2740481 309.4054,21.6559961 C309.4054,27.0278844 306.940807,29.7137883 302.011546,29.7137883 C297.102405,29.7137883 294.637811,27.0278844 294.617692,21.6559961 Z M326.531981,13.7340094 L326.531981,29.5779828 L325.37009,29.5779828 L325.189016,27.55599 C323.368207,28.9039919 321.336175,29.5779828 319.092858,29.5779828 C315.350644,29.5779828 313.479565,27.6113378 313.479565,23.6779889 L313.479565,13.7340094 L315.063962,13.7340094 L315.063962,23.7232574 C315.063962,26.6808139 316.432063,28.1595699 319.168306,28.1595699 C321.170189,28.1595699 323.096596,27.4906088 324.947584,26.1526666 L324.947584,13.7340094 L326.531981,13.7340094 Z M331.360621,29.5779828 L331.360621,13.7340094 L332.492333,13.7340094 L332.688497,16.3595821 C334.277932,14.6091916 336.048415,13.7340094 338,13.7340094 L338,15.0015273 C336.108773,15.0015273 334.423796,15.9219775 332.945018,17.7629055 L332.945018,29.5779828 L331.360621,29.5779828 Z M108.352923,63.940886 C106.391279,64.544469 104.379366,64.8462559 102.317124,64.8462559 C94.7723369,64.8462559 91,61.099068 91,53.6045796 C91,46.5124799 94.7723369,42.9664832 102.317124,42.9664832 C104.379366,42.9664832 106.391279,43.2682702 108.352923,43.8718531 L108.352923,45.229908 C106.391279,44.626325 104.479961,44.3245381 102.618914,44.3245381 C95.9292027,44.3245381 92.5843973,47.4178543 92.5843973,53.6045796 C92.5843973,60.1936935 95.9292027,63.4882011 102.618914,63.4882011 C104.479961,63.4882011 106.391279,63.1864141 108.352923,62.5828312 L108.352923,63.940886 Z M112.95522,64.695361 L112.95522,43.1173782 L114.539618,43.1173782 L114.539618,50.5715904 C116.390605,49.4247828 118.286833,48.8513876 120.228358,48.8513876 C124.08123,48.8513876 126.007636,50.8180326 126.007636,54.7513815 L126.007636,64.695361 L124.423239,64.695361 L124.423239,54.1025331 C124.423239,51.5473652 122.999811,50.2698005 120.152911,50.2698005 C118.251625,50.2698005 116.380546,50.9387615 114.539618,52.2767037 L114.539618,64.695361 L112.95522,64.695361 Z M129.930906,60.2137799 C129.930906,57.0650888 132.023296,55.4907669 136.208137,55.4907669 C137.686916,55.4907669 139.266267,55.5913626 140.94624,55.7925569 L140.94624,53.8460116 C140.94624,51.42162 139.422216,50.2094425 136.374122,50.2094425 C134.643851,50.2094425 132.923665,50.4609316 131.213513,50.9639174 L131.213513,49.6058625 C132.923665,49.1028767 134.643851,48.8513876 136.374122,48.8513876 C140.478486,48.8513876 142.530637,50.4910967 142.530637,53.7705641 L142.530637,64.695361 L141.564909,64.695361 L141.202761,63.1260531 C139.220997,64.1722636 137.29962,64.695361 135.438573,64.695361 C131.766777,64.695361 129.930906,63.2015156 129.930906,60.2137799 Z M136.208137,56.8488218 C133.079566,56.8488218 131.515303,57.9553739 131.515303,60.1685114 C131.515303,62.2810518 132.823047,63.3373061 135.438573,63.3373061 C137.370038,63.3373061 139.205909,62.8242683 140.94624,61.7981773 L140.94624,57.1506117 C139.266267,56.9494174 137.686916,56.8488218 136.208137,56.8488218 Z M147.359277,64.695361 L147.359277,48.8513876 L148.490989,48.8513876 L148.687153,50.8733804 C150.709155,49.5253785 152.69089,48.8513876 154.632415,48.8513876 C158.485286,48.8513876 160.411693,50.5162456 160.411693,53.8460116 L160.411693,64.695361 L158.827295,64.695361 L158.827295,53.8007431 C158.827295,51.4467696 157.403867,50.2698005 154.556967,50.2698005 C152.655681,50.2698005 150.784602,50.9387615 148.943674,52.2767037 L148.943674,64.695361 L147.359277,64.695361 Z M176.73853,50.6319484 C175.279871,50.3905152 173.846383,50.2698005 172.438023,50.2698005 C168.162644,50.2698005 166.024986,52.3973985 166.024986,56.6526583 C166.024986,61.0085153 168.02181,63.1864111 172.015517,63.1864111 C173.464116,63.1864111 175.038438,62.9148029 176.73853,62.3715782 L176.73853,50.6319484 Z M178.322927,64.695361 C178.322927,68.518053 175.994138,70.4293704 171.33649,70.4293704 C169.384905,70.4293704 167.65466,70.1778812 166.145702,69.6748955 L166.145702,68.3168406 C167.684839,68.8198264 169.425144,69.0713155 171.366669,69.0713155 C174.947928,69.0713155 176.73853,67.6126786 176.73853,64.695361 L176.73853,63.940886 C174.947901,64.4438718 173.368549,64.695361 172.000428,64.695361 C166.990689,64.695361 164.485857,62.0245464 164.485857,56.6828373 C164.485857,51.4618447 167.176791,48.8513876 172.558739,48.8513876 C174.600861,48.8513876 176.522238,49.0676682 178.322927,49.500236 L178.322927,64.695361 Z M189.534425,48.8513876 C193.870162,48.8513876 196.037999,51.2505939 196.037999,56.0490784 C196.037999,56.3911087 196.027939,56.7482233 196.00782,57.1204327 L183.981489,57.1204327 C183.981489,61.2650357 186.174475,63.3373061 190.560511,63.3373061 C192.3612,63.3373061 193.960671,63.085817 195.358971,62.5828312 L195.358971,63.940886 C193.960671,64.4438718 192.3612,64.695361 190.560511,64.695361 C185.118204,64.695361 182.397092,61.9943678 182.397092,56.5923003 C182.397092,51.431666 184.776179,48.8513876 189.534425,48.8513876 Z M183.981489,55.7020199 L194.513959,55.7020199 C194.453601,52.0201639 192.793773,50.1792635 189.534425,50.1792635 C186.013524,50.1792635 184.162564,52.0201639 183.981489,55.7020199 Z M207.656912,64.695361 L207.656912,43.1173782 L216.710612,43.1173782 C220.915573,43.1173782 223.018022,45.0940827 223.018022,49.0475511 C223.018022,52.9406611 219.653097,55.4203439 212.923147,56.4866738 L212.651536,55.038082 C218.385575,54.2433644 221.252551,52.286779 221.252551,49.1682671 C221.252551,46.0698746 219.65308,44.5207015 216.45409,44.5207015 L209.24131,44.5207015 L209.24131,64.695361 L207.656912,64.695361 Z M226.714949,64.695361 L226.714949,48.8513876 L227.846661,48.8513876 L228.042825,51.4769603 C229.63226,49.7265698 231.402743,48.8513876 233.354328,48.8513876 L233.354328,50.1189055 C231.463102,50.1189055 229.778125,51.0393557 228.299346,52.8802837 L228.299346,64.695361 L226.714949,64.695361 Z M242.93616,63.4882011 C246.80915,63.4882011 248.745617,61.2298287 248.745617,56.7130163 C248.745617,52.2766816 246.80915,50.0585475 242.93616,50.0585475 C239.063169,50.0585475 237.126703,52.2766816 237.126703,56.7130163 C237.126703,61.2298287 239.063169,63.4882011 242.93616,63.4882011 Z M235.542306,56.7733743 C235.542306,51.3914263 238.006899,48.7004926 242.93616,48.7004926 C247.865421,48.7004926 250.330014,51.3914263 250.330014,56.7733743 C250.330014,62.1452626 247.865421,64.8311665 242.93616,64.8311665 C238.027018,64.8311665 235.562425,62.1452626 235.542306,56.7733743 Z M256.441261,43.1173782 L256.441261,44.928118 L254.555074,44.928118 L254.555074,43.1173782 L256.441261,43.1173782 Z M256.290366,48.8513876 L256.290366,63.4882011 C256.290366,66.6871908 255.51075,68.9405333 253.951494,70.2482964 L252.819781,69.267479 C254.077246,68.1106117 254.705969,66.184205 254.705969,63.4882011 L254.705969,48.8513876 L256.290366,48.8513876 Z M267.803653,48.8513876 C272.139391,48.8513876 274.307227,51.2505939 274.307227,56.0490784 C274.307227,56.3911087 274.297168,56.7482233 274.277048,57.1204327 L262.250718,57.1204327 C262.250718,61.2650357 264.443703,63.3373061 268.829739,63.3373061 C270.630428,63.3373061 272.229899,63.085817 273.6282,62.5828312 L273.6282,63.940886 C272.229899,64.4438718 270.630428,64.695361 268.829739,64.695361 C263.387433,64.695361 260.66632,61.9943678 260.66632,56.5923003 C260.66632,51.431666 263.045408,48.8513876 267.803653,48.8513876 Z M262.250718,55.7020199 L272.783188,55.7020199 C272.722829,52.0201639 271.063001,50.1792635 267.803653,50.1792635 C264.282753,50.1792635 262.431793,52.0201639 262.250718,55.7020199 Z M289.84941,64.242676 C288.541647,64.5444675 287.133308,64.695361 285.624351,64.695361 C280.292701,64.695361 277.626917,61.9541295 277.626917,56.4715843 C277.626917,51.3914278 280.292701,48.8513876 285.624351,48.8513876 C287.133308,48.8513876 288.541647,49.0022811 289.84941,49.3040726 L289.84941,50.6621274 C288.44105,50.3603359 287.083009,50.2094425 285.775246,50.2094425 C281.499867,50.2094425 279.362209,52.2968022 279.362209,56.4715843 C279.362209,61.0487551 281.499867,63.3373061 285.775246,63.3373061 C287.083009,63.3373061 288.44105,63.1864126 289.84941,62.8846212 L289.84941,64.242676 Z M293.48598,46.2861729 L294.602602,46.2861729 L294.889303,48.8513876 L299.642495,48.8513876 L299.642495,50.2094425 L295.025108,50.2094425 L295.025108,60.2137799 C295.025108,62.2961411 295.789635,63.3373061 297.318712,63.3373061 L299.642495,63.3373061 L299.642495,64.695361 L297.348891,64.695361 C294.773604,64.695361 293.48598,63.2719325 293.48598,60.4250329 L293.48598,46.2861729 Z" id="Human-Behaviour-Chan" fill="#0275D8" fill-rule="nonzero"/></g></g></svg>