<?xml version="1.0" encoding="UTF-8"?>
<svg width="24px" height="20px" viewBox="0 0 24 20" version="1.1" xmlns="http://www.w3.org/2000/svg" xmlns:xlink="http://www.w3.org/1999/xlink">
    <!-- Generator: Sketch 49.2 (51160) - http://www.bohemiancoding.com/sketch -->
    <title>twitter-logo-silhouette</title>
    <desc>Created with Sketch.</desc>
    <defs></defs>
    <g id="Symbols" stroke="none" stroke-width="1" fill="none" fill-rule="evenodd">
        <g id="footer" transform="translate(-1456.000000, -68.000000)" fill="#B1DBFF">
            <g id="Group-17" transform="translate(1355.000000, 38.000000)">
                <g id="Group-18">
                    <path d="M125,32.3658396 C124.120694,32.7659165 123.168268,33.0428929 122.172721,33.16407 C123.190766,32.5389498 123.966956,31.5483747 124.340052,30.3673783 C123.387626,30.9463358 122.333958,31.3675707 121.205296,31.592614 C120.312866,30.615503 119.030466,30 117.616827,30 C114.900164,30 112.695336,32.2619735 112.695336,35.0490479 C112.695336,35.4472014 112.740333,35.8299673 112.820951,36.1992691 C108.726271,35.9876899 105.10218,33.9815349 102.670494,30.9232545 C102.244903,31.6676284 102.003047,32.5389498 102.003047,33.4641277 C102.003047,35.2144643 102.874854,36.762839 104.192876,37.6630121 C103.386689,37.6418542 102.632997,37.4091171 101.967424,37.0321216 L101.967424,37.0936719 C101.967424,39.5422197 103.666042,41.5849202 105.913991,42.0523178 C105.503398,42.1638777 105.064682,42.2235045 104.618467,42.2235045 C104.303492,42.2235045 103.996016,42.1946528 103.68854,42.135026 C104.318491,44.141181 106.133349,45.5972302 108.287556,45.643393 C106.602062,46.9955761 104.477853,47.7995768 102.171783,47.7995768 C101.776189,47.7995768 101.388095,47.7764955 101,47.7322562 C103.18233,49.1671475 105.767753,50 108.550035,50 C117.601828,50 122.553316,42.3062127 122.553316,35.6356992 L122.538317,34.9817273 C123.505742,34.2681285 124.340052,33.3814195 125,32.3658396 Z" id="twitter-logo-silhouette"></path>
                </g>
            </g>
        </g>
    </g>
</svg>