<svg width="10" height="9" viewBox="0 0 10 9" version="1.1" xmlns="http://www.w3.org/2000/svg" xmlns:xlink="http://www.w3.org/1999/xlink"><title>menu-button-of-three-horizontal-lines</title><desc>Created with Sketch.</desc><defs><polygon id="path-1" points="4.96295 0.0395604396 0.006 0.0395604396 0.006 8.9012967 9.9199 8.9012967 9.9199 0.0395604396"/></defs><g id="Symbols" stroke="none" stroke-width="1" fill="none" fill-rule="evenodd"><g id="menu" transform="translate(-12.000000, -12.000000)"><g id="Group-3"><g id="menu-button-of-three-horizontal-lines" transform="translate(12.000000, 12.000000)"><mask id="mask-2" fill="#fff"><use xlink:href="#path-1"/></mask><path d="M8.9602,0.0395604396 L0.9602,0.0395604396 C0.432,0.0395604396 0,0.466813187 0,0.989208791 C0,1.51110989 0.432,1.93836264 0.9602,1.93836264 L8.9602,1.93836264 C9.4879,1.93836264 9.9199,1.51110989 9.9199,0.989208791 C9.9199,0.466813187 9.4879,0.0395604396 8.9602,0.0395604396 Z" id="Fill-1" fill="#0F78D1" mask="url(#mask-2)"/><path d="M8.9602,3.52078022 L0.9602,3.52078022 C0.432,3.52078022 0,3.94813187 0,4.47042857 C0,4.99232967 0.432,5.41958242 0.9602,5.41958242 L8.9602,5.41958242 C9.4879,5.41958242 9.9199,4.99232967 9.9199,4.47042857 C9.9199,3.94813187 9.4879,3.52078022 8.9602,3.52078022 Z" id="Fill-3" fill="#0F78D1" mask="url(#mask-2)"/><path d="M8.9602,7.002 L0.9602,7.002 C0.432,7.002 0,7.42935165 0,7.95164835 C0,8.47394505 0.432,8.9012967 0.9602,8.9012967 L8.9602,8.9012967 C9.4879,8.9012967 9.9199,8.47394505 9.9199,7.95164835 C9.9199,7.42935165 9.4879,7.002 8.9602,7.002 Z" id="Fill-4" fill="#0F78D1" mask="url(#mask-2)"/></g></g></g></g></svg>