<svg width="20" height="20" viewBox="0 0 20 20" version="1.1" xmlns="http://www.w3.org/2000/svg" xmlns:xlink="http://www.w3.org/1999/xlink"><title>zoom-in</title><desc>Created with Sketch.</desc><g id="All-Pages" stroke="none" stroke-width="1" fill="none" fill-rule="evenodd"><g id="BS-Diagram" transform="translate(-100.000000, -623.000000)" fill="#9B9B9B"><g id="zoom-in" transform="translate(100.000000, 623.000000)"><path d="M9.29425,6.38630705 C7.78258333,6.38630705 6.55733333,7.60713693 6.55733333,9.11253112 C6.55733333,10.6180083 7.78258333,11.8385062 9.29425,11.8385062 C10.806,11.8385062 12.0315833,10.6180083 12.0315833,9.11253112 C12.0315833,7.60713693 10.8063333,6.38630705 9.29425,6.38630705 Z M10.6168333,9.75767635 L9.81283333,9.75767635 L9.81283333,10.5583402 C9.81283333,10.8436515 9.58075,11.0747718 9.29425,11.0747718 C9.00783333,11.0747718 8.77541667,10.8436515 8.77541667,10.5583402 L8.77541667,9.75767635 L7.97133333,9.75767635 C7.68491667,9.75767635 7.45283333,9.52622407 7.45283333,9.24091286 C7.45283333,8.95568465 7.68491667,8.72456432 7.97133333,8.72456432 L8.77541667,8.72456432 L8.77541667,7.92348548 C8.77541667,7.63825726 9.00783333,7.40713693 9.29425,7.40713693 C9.58075,7.40713693 9.81283333,7.63825726 9.81283333,7.92348548 L9.81283333,8.72456432 L10.6168333,8.72456432 C10.9033333,8.72456432 11.13575,8.95568465 11.13575,9.24091286 C11.13575,9.52622407 10.9036667,9.75767635 10.6168333,9.75767635 Z" id="Fill-1"/><path d="M9.99966667,0.000165975104 C4.47725,0.000165975104 0,4.45875519 0,9.95834025 C0,15.4578423 4.47725,19.9171784 9.99966667,19.9171784 C15.5221667,19.9171784 19.9996667,15.4581743 19.9996667,9.95834025 C19.9996667,4.45842324 15.5225,0.000165975104 9.99966667,0.000165975104 Z M15.029,14.6892946 C14.8710833,14.846805 14.66375,14.9255602 14.4564167,14.9255602 C14.249,14.9255602 14.042,14.846805 13.8835,14.6892946 L11.6074167,12.4223237 C10.9515,12.8777593 10.1543333,13.1455602 9.29425,13.1455602 C7.05758333,13.1455602 5.24483333,11.339917 5.24483333,9.11286307 C5.24483333,6.88547718 7.05758333,5.08016598 9.29425,5.08016598 C11.5305833,5.08016598 13.34375,6.88547718 13.34375,9.11253112 C13.34375,9.89966805 13.1165,10.633527 12.7249167,11.2540249 L15.029,13.5484647 C15.3456667,13.8635685 15.3456667,14.3745228 15.029,14.6892946 Z" id="Fill-2"/></g></g></g></svg>