<svg viewBox="0 0 94 80" version="1.1" xmlns="http://www.w3.org/2000/svg" xmlns:xlink="http://www.w3.org/1999/xlink"><defs><polygon id="path-1" points="46.0128634 0.149828179 0.0163953488 0.149828179 0.0163953488 71.3396564 92.0093314 71.3396564 92.0093314 0.149828179"/></defs><g id="All-Pages" stroke="none" stroke-width="1" fill="none" fill-rule="evenodd"><g id="Home" transform="translate(-673.000000, -2445.000000)"><g id="Group-8" transform="translate(-64.000000, 1946.000000)"><g id="Group-5" transform="translate(414.000000, 499.000000)"><g id="press-realise" transform="translate(323.000000, 0.000000)"><g id="Group-3"><mask id="mask-2" fill="#fff"><use xlink:href="#path-1"/></mask><path d="M78.1533488,66.4514089 C78.0784767,66.3546392 78.006064,66.2581443 77.936657,66.1580756 C77.2384884,65.8457732 76.5810349,65.4633677 75.9714012,65.0218557 L6.2794186,65.0218557 L6.2794186,6.46735395 L71.0112616,6.46735395 L71.0112616,19.305567 C71.0112616,20.6017869 72.0550988,21.6522337 73.3435,21.6522337 L85.7296395,21.6522337 L85.7296395,26.0453608 L86.1141105,26.0453608 C88.2796628,26.0453608 90.3003895,26.6735395 92.0093314,27.7572509 L92.0093314,18.1589003 C92.0093314,17.6560825 91.8106744,17.1749828 91.4573547,16.8186942 L75.4399186,0.704879725 C75.0876919,0.349415808 74.6084012,0.149828179 74.1077965,0.149828179 L5.65202326,0.149828179 C2.53499419,0.149828179 0,2.70020619 0,5.83477663 L0,65.654433 C0,68.7892784 2.53499419,71.3396564 5.65202326,71.3396564 L78.1533488,71.3396564 L78.1533488,66.4514089 Z" id="Fill-1" fill="#FFF" mask="url(#mask-2)"/></g><path d="M50.4326395,31.993677 C50.4326395,30.713677 49.4016453,29.6772509 48.1304593,29.6772509 L15.4261105,29.6772509 C14.1549244,29.6772509 13.123657,30.713677 13.123657,31.993677 C13.123657,33.2725773 14.1549244,34.3101031 15.4261105,34.3101031 L48.1304593,34.3101031 C49.4016453,34.3101031 50.4326395,33.2725773 50.4326395,31.993677 Z" id="Fill-4" fill="#FFF"/><path d="M15.4261105,45.8927835 L33.3863953,45.8927835 C34.6586744,45.8927835 35.6885756,44.8555326 35.6885756,43.5766323 C35.6885756,42.2963574 34.6586744,41.2591065 33.3863953,41.2591065 L15.4261105,41.2591065 C14.1549244,41.2591065 13.123657,42.2963574 13.123657,43.5766323 C13.123657,44.8555326 14.1549244,45.8927835 15.4261105,45.8927835 Z" id="Fill-5" fill="#FFF"/><path d="M15.4261105,57.4757388 L45.2517093,57.4757388 C46.5239884,57.4757388 47.5549826,56.438488 47.5549826,55.158488 C47.5549826,53.8793127 46.5239884,52.8420619 45.2517093,52.8420619 L15.4261105,52.8420619 C14.1549244,52.8420619 13.123657,53.8793127 13.123657,55.158488 C13.123657,56.438488 14.1549244,57.4757388 15.4261105,57.4757388 Z" id="Fill-6" fill="#FFF"/><path d="M88.9543314,74.6493471 L87.1109477,74.6493471 L87.1109477,64.7782818 C87.6970814,64.4357388 88.137843,63.87189 88.322564,63.1997251 C91.5546337,62.3018557 93.9295,59.3239863 93.9295,55.7866667 L93.9295,51.4479725 L89.0876802,51.4479725 L89.0876802,46.8335395 L93.9295,46.8335395 L93.9295,42.0657045 L89.0876802,42.0657045 L89.0876802,37.9117526 L93.9295,37.9117526 L93.9295,37.0485223 C93.9295,32.8 90.5075174,29.3572509 86.2848953,29.3572509 L82.6033198,29.3572509 C78.3817907,29.3572509 74.9595349,32.8 74.9595349,37.0485223 L74.9595349,37.9117526 L79.8002616,37.9117526 L79.8002616,42.0657045 L74.9595349,42.0657045 L74.9595349,46.8335395 L79.8002616,46.8335395 L79.8002616,51.4479725 L74.9595349,51.4479725 L74.9595349,55.7866667 C74.9595349,59.3239863 77.3335814,62.3018557 80.5656512,63.1997251 C80.7503721,63.87189 81.1911337,64.4357388 81.7780872,64.7782818 L81.7780872,74.6493471 L79.9336105,74.6493471 C77.1477674,74.6493471 74.8882151,76.9217869 74.8882151,79.7256357 L94,79.7256357 C94,76.9217869 91.7412674,74.6493471 88.9543314,74.6493471 Z" id="Fill-7" fill="#FFF"/><path d="M14.666186,23.1384192 C15.3643547,23.1384192 15.9321802,22.5660481 15.9321802,21.8636426 L15.9321802,19.8136082 L17.6536919,19.8136082 C20.702407,19.8136082 22.5957965,18.0931959 22.5957965,15.324811 C22.5957965,12.5993127 20.702407,10.9069416 17.6536919,10.9069416 L14.3907442,10.9069416 C13.6914826,10.9069416 13.123657,11.4782131 13.123657,12.1806186 L13.123657,21.8636426 C13.123657,22.5660481 13.6914826,23.1384192 14.3907442,23.1384192 L14.666186,23.1384192 Z M15.9321802,13.731134 L17.6536919,13.731134 C19.7886395,13.731134 19.7886395,14.8898969 19.7886395,15.324811 C19.7886395,15.7800687 19.7886395,16.9883162 17.6536919,16.9883162 L15.9321802,16.9883162 L15.9321802,13.731134 Z" id="Fill-8" fill="#FFF"/><path d="M33.3243663,15.324811 C33.3243663,12.5993127 31.4298837,10.9069416 28.3811686,10.9069416 L25.1182209,10.9069416 C24.4200523,10.9069416 23.8522267,11.4782131 23.8522267,12.1806186 L23.8522267,21.8636426 C23.8522267,22.5660481 24.4200523,23.1384192 25.1182209,23.1384192 L25.3936628,23.1384192 C26.0915581,23.1384192 26.6593837,22.5660481 26.6593837,21.8636426 L26.6593837,19.8136082 L28.3811686,19.8136082 C28.4718895,19.8136082 28.5615174,19.8114089 28.6555174,19.8072852 L30.691,22.6155326 C30.928186,22.9429553 31.3112907,23.1384192 31.7137965,23.1384192 L32.0990872,23.1384192 L32.103186,23.1373196 C32.7822267,23.1158763 33.3287384,22.5531271 33.3287384,21.8636426 C33.3287384,21.5587629 33.2208023,21.2665292 33.0243314,21.0356014 L31.5268895,18.9718213 C32.6915058,18.1877663 33.3243663,16.9173883 33.3243663,15.324811 Z M28.3811686,16.9872165 L26.6593837,16.9872165 L26.6593837,13.731134 L28.3811686,13.731134 C30.5161163,13.731134 30.5161163,14.8887973 30.5161163,15.324811 C30.5161163,15.7800687 30.5161163,16.9872165 28.3811686,16.9872165 Z" id="Fill-9" fill="#FFF"/><path d="M41.7676977,13.731134 C42.465593,13.731134 43.0345116,13.1598625 43.0345116,12.457457 L43.0345116,12.1806186 C43.0345116,11.4782131 42.465593,10.9069416 41.7676977,10.9069416 L35.7506047,10.9069416 C35.052436,10.9069416 34.4846105,11.4782131 34.4846105,12.1806186 L34.4846105,21.8636426 C34.4846105,22.5660481 35.052436,23.1384192 35.7506047,23.1384192 L41.9608895,23.1384192 C42.6587849,23.1384192 43.2266105,22.5660481 43.2266105,21.8636426 L43.2266105,21.5865292 C43.2266105,20.8843986 42.6587849,20.3120275 41.9608895,20.3120275 L37.2920407,20.3120275 L37.2920407,18.2886598 L41.134564,18.2886598 C41.8327326,18.2886598 42.4005581,17.7173883 42.4005581,17.0149828 L42.4005581,16.7381443 C42.4005581,16.0357388 41.8327326,15.4633677 41.134564,15.4633677 L37.2920407,15.4633677 L37.2920407,13.731134 L41.7676977,13.731134 Z" id="Fill-10" fill="#FFF"/><path d="M53.0832209,19.5183505 C53.1045349,16.7156014 50.6602616,15.9722337 49.1988895,15.5276976 C47.4888547,15.00811 47.3276337,14.7857045 47.3276337,14.3271478 C47.3276337,13.9546392 48.1047733,13.731134 48.8562267,13.731134 C49.4732384,13.731134 50.1872558,13.9158763 50.5938605,14.1789691 C50.8777733,14.3637113 51.232186,14.4250172 51.5557209,14.35189 C51.8844477,14.2787629 52.1749186,14.0714777 52.3541744,13.7839175 L52.4918953,13.5626117 C52.8558721,12.9751203 52.6829012,12.1921649 52.1044186,11.8163574 C51.2398372,11.2547079 49.995157,10.9058419 48.8562267,10.9058419 C46.2624826,10.9058419 44.5193837,12.2804124 44.5193837,14.3271478 C44.5193837,17.055945 46.9262209,17.7894158 48.365186,18.2276289 C50.124407,18.7634364 50.2790698,18.9910653 50.2746977,19.5076289 C50.2746977,20.1443299 49.1486105,20.3120275 48.553186,20.3120275 C47.7558256,20.3120275 46.860093,19.9510653 46.3745174,19.4356014 C46.1417035,19.1876289 45.8129767,19.0424742 45.462936,19.0372509 C45.1180872,19.0383505 44.7978314,19.1714089 44.5598256,19.4097595 L44.3666337,19.6041237 C43.8777791,20.0970447 43.8736802,20.9014433 44.3592558,21.3987629 C45.4063721,22.4714777 47.013936,23.1373196 48.553186,23.1373196 C51.220436,23.1384192 53.0832209,21.6478351 53.0832209,19.5183505 Z" id="Fill-11" fill="#FFF"/><path d="M58.5611802,20.3131271 C57.7638198,20.3131271 56.8680872,19.9521649 56.3825116,19.436701 C56.1496977,19.1887285 55.8209709,19.0435739 55.4709302,19.0383505 C55.1271744,19.0394502 54.8058256,19.1725086 54.5678198,19.4108591 L54.3757209,19.6041237 C53.8857733,20.0970447 53.8816744,20.902543 54.36725,21.3998625 C55.4154593,22.4714777 57.0219302,23.1384192 58.5611802,23.1384192 C61.2284302,23.1384192 63.0912151,21.6478351 63.0912151,19.5183505 C63.1125291,16.7156014 60.6682558,15.9722337 59.2079767,15.5276976 C57.4968488,15.00811 57.3356279,14.7857045 57.3356279,14.3271478 C57.3356279,13.9546392 58.1127674,13.731134 58.8642209,13.731134 C59.4801395,13.731134 60.19525,13.9158763 60.6007616,14.1789691 C60.8846744,14.3637113 61.2390872,14.4258419 61.5637151,14.35189 C61.8924419,14.2787629 62.1826395,14.0714777 62.3621686,13.7839175 L62.4998895,13.5626117 C62.8638663,12.9751203 62.6908953,12.1921649 62.1124128,11.8163574 C61.2478314,11.2547079 60.0031512,10.9058419 58.8642209,10.9058419 C56.2704767,10.9058419 54.5273779,12.2804124 54.5273779,14.3271478 C54.5273779,17.055945 56.9353081,17.7894158 58.3742733,18.2276289 C60.1324012,18.7634364 60.287064,18.9910653 60.2826919,19.5076289 C60.2826919,20.1443299 59.1566047,20.3131271 58.5611802,20.3131271 Z" id="Fill-12" fill="#FFF"/></g></g></g></g></g></svg>