<svg width="68" height="65" viewBox="0 0 68 65" version="1.1" xmlns="http://www.w3.org/2000/svg" xmlns:xlink="http://www.w3.org/1999/xlink"><title>dropbox</title><desc>Created with Sketch.</desc><g id="All-Pages" stroke="none" stroke-width="1" fill="none" fill-rule="evenodd"><g id="News-Article" transform="translate(-543.000000, -450.000000)" fill="#4A90E2"><g id="Group-7" transform="translate(543.000000, 450.000000)"><g id="dropbox"><path d="M31.1919827,36.3565474 L13.9635854,25.2464076 C13.4044561,24.8858293 12.6771371,24.9240064 12.1588904,25.3410988 L0.576045813,34.6621752 C-0.244311111,35.3223085 -0.177726627,36.5919228 0.707260835,37.1626255 L17.9356581,48.2727653 C18.4947874,48.6333436 19.2221064,48.5951665 19.7403531,48.178074 L31.3231977,38.857148 C32.1435546,38.1968644 32.0769701,36.9272501 31.1919827,36.3565474" id="Fill-1"/><path d="M36.5759929,38.8569977 L48.1588375,48.1779237 C48.6772345,48.5950162 49.4044032,48.6331933 49.9635325,48.272615 L67.1919297,37.1624752 C68.0769172,36.5917725 68.1435017,35.3221582 67.3231448,34.6620249 L55.7403002,25.3410988 C55.2219032,24.9240064 54.4947344,24.8858293 53.9356051,25.2464076 L36.7072079,36.3565474 C35.8223708,36.9272501 35.755636,38.1968644 36.5759929,38.8569977" id="Fill-3"/><path d="M31.3231977,9.66202486 L19.7403531,0.341098829 C19.2219561,-0.0759935971 18.4947874,-0.114170706 17.9356581,0.246407576 L0.707260835,11.3565474 C-0.177726627,11.9272501 -0.244311111,13.1968644 0.576045813,13.8569977 L12.1588904,23.1779237 C12.6772874,23.5950162 13.4044561,23.6331933 13.9635854,23.272615 L31.1919827,12.1624752 C32.0769701,11.5917725 32.1435546,10.3221582 31.3231977,9.66202486" id="Fill-4"/><path d="M67.1919827,11.3565474 L49.9635854,0.246407576 C49.4044561,-0.114170706 48.6771371,-0.0759935971 48.1588904,0.341098829 L36.5760458,9.66202486 C35.7556889,10.3221582 35.8222734,11.5917725 36.7072608,12.1624752 L53.9358084,23.272615 C54.4949377,23.6331933 55.2222567,23.5950162 55.7405034,23.1779237 L67.323348,13.8569977 C68.1435546,13.1967141 68.0769701,11.9270998 67.1919827,11.3565474" id="Fill-5"/><path d="M32.960315,40.3056619 L19.9891163,50.6527104 C19.5189667,51.0277178 18.8619898,51.0607846 18.3566692,50.7349265 L15.1595618,48.673062 C14.2275293,48.071998 13,48.7411495 13,49.8500893 L13,50.9647406 C13,51.4544297 13.2558167,51.9086471 13.6744122,52.1625098 L32.9857163,63.8687536 C33.4319677,64.1393001 33.9915479,64.1393001 34.4377992,63.8687536 L53.7489531,52.1625098 C54.1676989,51.9086471 54.4235156,51.45458 54.4235156,50.9647406 L54.4235156,49.9698813 C54.4235156,48.8609415 53.1958359,48.1917899 52.2639538,48.792854 L49.2542749,50.733724 C48.7480525,51.0601834 48.0897228,51.0263651 47.6195732,50.6497043 L34.7095481,40.3074655 C34.1985159,39.8981889 33.4720987,39.8974373 32.960315,40.3056619" id="Fill-6"/></g></g></g></g></svg>