<?xml version="1.0" encoding="UTF-8"?>
<svg width="74px" height="74px" viewBox="0 0 74 74" version="1.1" xmlns="http://www.w3.org/2000/svg" xmlns:xlink="http://www.w3.org/1999/xlink">
    <!-- Generator: Sketch 46.2 (44496) - http://www.bohemiancoding.com/sketch -->
    <title>facebook</title>
    <desc>Created with Sketch.</desc>
    <defs></defs>
    <g id="All-Pages" stroke="none" stroke-width="1" fill="none" fill-rule="evenodd">
        <g id="News-Article" transform="translate(-564.000000, -1874.000000)">
            <g id="Group-3" transform="translate(564.000000, 1872.000000)">
                <g id="Group-5">
                    <g id="facebook" transform="translate(0.000000, 2.000000)">
                        <path d="M74,37 C74,57.4337218 57.4337218,74 37,74 C16.5662782,74 0,57.4337218 0,37 C0,16.5662782 16.5662782,0 37,0 C57.4337218,0 74,16.5662782 74,37 Z" id="Fill-1" fill="#3B5998"></path>
                        <path d="M46.11498,38.9553302 L39.5889761,38.9553302 L39.5889761,63 L29.7021781,63 L29.7021781,38.9553302 L25,38.9553302 L25,30.5024845 L29.7021781,30.5024845 L29.7021781,25.0347318 C29.7021781,21.1250961 31.5480071,15 39.6786191,15 L47,15.0319656 L47,23.234824 L41.6874352,23.234824 C40.8146392,23.234824 39.5889761,23.6733262 39.5889761,25.5371651 L39.5889761,30.5123201 L46.9812565,30.5123201 L46.11498,38.9553302 Z" id="Fill-2" fill="#FFFFFF"></path>
                    </g>
                </g>
            </g>
        </g>
    </g>
</svg>