<svg width="71" height="59" viewBox="0 0 71 59" version="1.1" xmlns="http://www.w3.org/2000/svg" xmlns:xlink="http://www.w3.org/1999/xlink"><title>twitter</title><desc>Created with Sketch.</desc><g id="All-Pages" stroke="none" stroke-width="1" fill="none" fill-rule="evenodd"><g id="News-Article" transform="translate(-690.000000, -1882.000000)" fill="#76A9EA"><g id="Group-3" transform="translate(564.000000, 1872.000000)"><g id="Group-5"><path d="M195.870973,16.8633055 C194.2929,17.5623899 192.655755,18.1138321 190.975334,18.5124443 C192.827346,16.7552219 194.21933,14.5563702 195.00458,12.1024412 C195.228751,11.4024922 194.467088,10.7961434 193.833954,11.1711934 C191.496165,12.5568245 188.97813,13.5952912 186.349307,14.2600051 C186.197191,14.298699 186.040098,14.318154 185.881923,14.318154 C185.402637,14.318154 184.937849,14.140897 184.571082,13.8183757 C181.774996,11.3560162 178.177648,10 174.443331,10 C172.827175,10 171.195873,10.2516185 169.594214,10.7481543 C164.630848,12.2857509 160.801107,16.3760648 159.599106,21.4220534 C159.148599,23.3143802 159.026992,25.209301 159.236666,27.0525579 C159.260252,27.2646178 159.1605,27.41226 159.098831,27.4816496 C158.989774,27.6031355 158.835927,27.6731737 158.676237,27.6731737 C147.757394,26.6617278 137.960059,21.433078 131.035191,12.9467899 C130.682705,12.5138072 130.004781,12.5669843 129.723269,13.049037 C128.36742,15.373698 127.650764,18.0319048 127.650764,20.7372361 C127.650764,24.8824564 129.318418,28.7894606 132.214256,31.6376783 C130.996243,31.348879 129.817178,30.894712 128.722503,30.2866339 C128.192584,29.9928628 127.540842,30.3711552 127.533268,30.9766393 C127.457967,37.1348077 131.067216,42.615076 136.474165,45.0824073 C136.365108,45.0847851 136.256052,45.0856498 136.147212,45.0856498 C135.290123,45.0856498 134.422,45.0037225 133.568373,44.8398678 C132.971592,44.7268124 132.470236,45.291657 132.655458,45.8692555 C134.410964,51.3434712 139.128304,55.378014 144.773706,56.2934816 C140.08839,59.4354705 134.631674,61.0930398 128.953166,61.0930398 L127.183379,61.0921751 C126.637231,61.0921751 126.175689,61.44777 126.037204,61.9754339 C125.900235,62.4946673 126.152103,63.0435155 126.617757,63.3137244 C133.016383,67.0341764 140.315807,69 147.728616,69 C154.217474,69 160.2872,67.7140219 165.769449,65.1766525 C170.79535,62.8511268 175.236154,59.526693 178.969606,55.2954381 C182.447727,51.3536311 185.166997,46.8039621 187.052548,41.7713758 C188.849599,36.9752763 189.799732,31.8564394 189.799732,26.9706306 L189.799732,26.7376025 C189.799732,25.953132 190.154598,25.2151376 190.774315,24.7119005 C193.125737,22.8044421 195.173791,20.5591144 196.860703,18.038606 C197.306233,17.3732436 196.603858,16.5390548 195.870973,16.8633055 Z" id="twitter"/></g></g></g></g></svg>