<svg viewBox="0 0 87 87" version="1.1" xmlns="http://www.w3.org/2000/svg" xmlns:xlink="http://www.w3.org/1999/xlink"><defs><polygon id="path-1" points="0 87 87 87 87 0 0 0"/></defs><g id="All-Pages" stroke="none" stroke-width="1" fill="none" fill-rule="evenodd"><g id="Home" transform="translate(-668.000000, -2024.000000)"><g id="Group-8" transform="translate(-64.000000, 1946.000000)"><g id="team" transform="translate(732.000000, 78.000000)"><mask id="mask-2" fill="#fff"><use xlink:href="#path-1"/></mask><path d="M79.4821465,84.2527031 L61.6204688,84.2527031 L61.6204688,79.4685527 C61.6204688,77.6755371 61.2247207,76.1698594 60.6192891,74.9255215 L63.8267344,73.669459 L66.5792988,76.3508262 C66.8358809,76.6007813 67.1799727,76.740627 67.5378281,76.740627 C67.5449648,76.740627 67.5522715,76.740627 67.5594082,76.740457 C67.9250801,76.7346797 68.27325,76.5834492 68.5269434,76.3200703 L71.1275977,73.6213711 L76.2974707,75.694418 C76.3217695,75.7042734 76.3350234,75.7093711 76.360002,75.7178672 C76.4874434,75.7630664 79.4821465,76.873166 79.4821465,80.7030352 L79.4821465,84.2527031 Z M55.6631777,70.3223379 L48.5584043,67.472918 L48.5584043,66.0639258 C50.5075781,64.9798242 51.9923555,63.1601309 52.6368691,60.9820723 C55.0679414,60.9147832 57.0254414,58.9176914 57.0254414,56.4709863 C57.0254414,55.0045605 56.3219648,53.6995605 55.2354844,52.8744199 L55.2354844,49.6545703 C55.2354844,47.945666 54.8502715,46.325291 54.1642969,44.8734785 L66.3957832,44.8734785 C66.3781113,45.8029512 66.3415781,46.7310645 66.2887324,47.6518711 C61.6148613,48.1155879 57.9521953,52.0693301 57.9521953,56.8629961 L57.9521953,59.2940684 C57.0714902,60.0068906 56.5066699,61.0950703 56.5066699,62.3135801 C56.5066699,64.3672559 58.109373,66.0491426 60.1292344,66.18525 C60.675873,67.8608496 61.8257344,69.2655938 63.3215566,70.1430703 L63.3215566,70.9167246 L59.0196445,72.6013301 C57.8801484,71.3829902 56.5936699,70.6436602 55.6631777,70.3223379 Z M43.5603223,70.8479063 L41.4096211,68.7531094 L41.4096211,67.0246641 C41.870959,67.1014688 42.3440215,67.1434395 42.8271094,67.1434395 L44.3941289,67.1434395 C44.8770469,67.1434395 45.3499395,67.1014688 45.8111074,67.024834 L45.8111074,68.4238008 C45.8111074,68.4255 45.8111074,68.4273691 45.8111074,68.4288984 L45.8111074,68.5121602 L43.5603223,70.8479063 Z M31.3713164,70.3202988 C30.4428633,70.639752 29.1577441,71.376873 28.0180781,72.5919844 L23.8605996,70.9247109 L23.8605996,70.1434102 C25.3572715,69.2655938 26.5073027,67.8598301 27.0539414,66.1828711 C29.0525625,66.0250137 30.6313066,64.351793 30.6313066,62.3135801 C30.6313066,61.1015273 30.0724336,60.0179355 29.1998848,59.3047734 L29.1998848,56.863166 C29.1998848,52.0171641 25.4565059,48.0316465 20.710248,47.6401465 C20.6577422,46.7237578 20.6217188,45.7993828 20.6042168,44.8736484 L33.0185391,44.8736484 C32.3329043,46.3254609 31.9475215,47.945666 31.9475215,49.6549102 L31.9475215,52.8603164 C30.8503359,53.6844375 30.1392129,54.9962344 30.1392129,56.4713262 C30.1392129,58.9367227 32.1267891,60.9460488 34.5838594,60.9837715 C35.228543,63.1611504 36.7134902,64.9801641 38.6623242,66.0640957 L38.6623242,67.4651016 L31.3713164,70.3202988 Z M16.7707793,84.2527031 L7.54741992,84.2527031 L7.54741992,80.7028652 C7.54741992,76.8729961 10.5414434,75.7630664 10.6578398,75.7216055 C10.6790801,75.7144688 10.7003203,75.7068223 10.7212207,75.698666 L15.9023086,73.6696289 L18.6553828,76.3509961 C18.9119648,76.6009512 19.2558867,76.740627 19.6135723,76.740627 C19.620709,76.740627 19.6281855,76.740627 19.6354922,76.740457 C20.0009941,76.7346797 20.3491641,76.5834492 20.6026875,76.3200703 L23.2031719,73.6213711 L26.417584,74.9102285 C25.8080742,76.157625 25.4087578,77.6684004 25.4087578,79.4687227 L25.4087578,84.2527031 L16.7707793,84.2527031 Z M2.77295508,44.8736484 L17.8560703,44.8736484 C17.8732324,45.8199434 17.9097656,46.764709 17.9619316,47.701998 C13.4826211,48.3461719 10.0284492,52.2081563 10.0284492,56.863166 L10.0284492,59.2938984 C9.1474043,60.0068906 8.58241406,61.0950703 8.58241406,62.3135801 C8.58241406,64.366916 10.1852871,66.0489727 12.2051484,66.18525 C12.7516172,67.8608496 13.9013086,69.2655938 15.3971309,70.1430703 L15.3971309,70.9167246 L13.8965508,71.5043145 C7.02151172,64.2399844 3.1032832,54.838377 2.77295508,44.8736484 Z M32.2533809,4.32655078 C29.6335254,6.47776172 27.2293008,9.39922852 25.138582,13.0262109 C23.5849863,15.7213418 22.2635039,18.7078887 21.1880684,21.9117656 C17.2966875,21.1523848 13.8120996,20.1919863 10.909834,19.0601367 C16.1709551,12.0619043 23.6305254,6.80588086 32.2533809,4.32655078 Z M59.4811523,14.3981602 C60.8838574,16.8316113 62.0884336,19.5202852 63.081627,22.4040293 C57.5430234,23.3109023 51.3276211,23.8329023 44.8736484,23.8976426 L44.8736484,2.8235918 C50.3402051,3.40744336 55.4834004,7.46347852 59.4811523,14.3981602 Z M77.719377,21.3673359 C81.6984375,27.5145996 83.9769199,34.6705195 84.226875,42.1263516 L69.1434199,42.1263516 C69.0317813,35.9430645 68.1678984,29.9793164 66.6272168,24.5481035 C70.850625,23.7090293 74.6162637,22.6369922 77.719377,21.3673359 Z M66.0690234,71.0693145 C66.350584,71.1031289 66.6367324,71.1226699 66.9271289,71.1226699 L68.1799629,71.1226699 C68.4705293,71.1226699 68.756168,71.1031289 69.0378984,71.0693145 L69.0378984,71.8309043 L67.5072422,73.4189941 L66.0690234,72.0183281 L66.0690234,71.0693145 Z M62.5249629,60.3390879 C64.3144102,60.1450371 67.4839629,59.5195547 69.9259102,57.4801523 C70.4727188,58.418291 71.3190996,59.4328945 72.5816191,60.0254121 L72.5816191,63.9737168 C72.5816191,66.4007109 70.606957,68.375373 68.179793,68.375373 L66.926959,68.375373 C64.499625,68.375373 62.5249629,66.4007109 62.5249629,63.9737168 L62.5249629,60.3390879 Z M75.328916,61.3881855 C75.618123,61.5944707 75.8077559,61.9322754 75.8077559,62.31375 C75.8077559,62.6953945 75.618123,63.0328594 75.328916,63.2393145 L75.328916,61.3881855 Z M67.2100488,50.3532891 L67.8669668,50.3532891 C71.4565664,50.3532891 74.3765039,53.2735664 74.3765039,56.863166 L74.3765039,57.7472695 C74.3506758,57.7391133 74.3245078,57.7324863 74.298,57.7258594 C74.2854258,57.7224609 74.2728516,57.7182129 74.2601074,57.7149844 C72.344918,57.2794746 71.7187559,54.7236797 71.714168,54.7043086 C71.5950527,54.1778906 71.1785742,53.7700781 70.6496074,53.6620078 C70.1206406,53.5535977 69.5779102,53.7653203 69.2613457,54.2026992 C66.7736895,57.6415781 61.228459,57.681 61.1557324,57.681 C61.1542031,57.681 61.1525039,57.681 61.1511445,57.681 C61.1039063,57.681 61.0570078,57.6835488 61.010959,57.6881367 C60.9961758,57.689666 60.9817324,57.6927246 60.9669492,57.6947637 C60.9360234,57.6988418 60.9050977,57.7025801 60.8748516,57.7088672 C60.854291,57.7129453 60.8342402,57.7192324 60.8138496,57.7243301 C60.7902305,57.7302773 60.7664414,57.735375 60.743502,57.7425117 C60.7285488,57.7470996 60.7144453,57.7533867 60.699832,57.7584844 L60.699832,56.863166 C60.699832,53.2735664 63.6202793,50.3532891 67.2100488,50.3532891 Z M52.3320293,42.1265215 C50.4579609,40.054834 47.8234922,38.6861133 44.8736484,38.458418 L44.8736484,26.6454492 C51.6146191,26.5783301 58.1199082,26.0177578 63.9154336,25.0435957 C65.4319863,30.2962207 66.283125,36.096334 66.3957832,42.1265215 L52.3362773,42.1265215 C52.334748,42.1263516 52.3333887,42.1265215 52.3320293,42.1265215 Z M52.9903066,54.7719375 C53.7323555,54.9816211 54.2781445,55.6630078 54.2781445,56.4709863 C54.2781445,57.2789648 53.7323555,57.9603516 52.9903066,58.1698652 L52.9903066,54.7719375 Z M42.1263516,2.8235918 L42.1263516,23.8976426 C35.687502,23.8325625 29.4671719,23.3085234 23.9199023,22.3997813 C24.9127559,19.5177363 26.1168223,16.8307617 27.5188477,14.3981602 C31.5165996,7.46347852 36.6597949,3.40744336 42.1263516,2.8235918 Z M52.4881875,49.6549102 L52.4881875,51.3333984 C52.4790117,51.3260918 52.4691562,51.3198047 52.4599805,51.312498 C52.4399297,51.2968652 52.419709,51.2814023 52.3989785,51.266959 C52.3828359,51.2557441 52.3661836,51.2453789 52.3495312,51.2350137 C52.3289707,51.2219297 52.3084102,51.2090156 52.2871699,51.1969512 C52.2676289,51.1860762 52.2474082,51.1763906 52.2273574,51.1661953 C52.2079863,51.1566797 52.1889551,51.1469941 52.1694141,51.1381582 C52.1452852,51.127623 52.1203066,51.1186172 52.095668,51.1092715 C52.0783359,51.1028145 52.0615137,51.0963574 52.0441816,51.0904102 C52.0164844,51.0812344 51.9879375,51.0739277 51.9595605,51.0666211 C51.9468164,51.0632227 51.934582,51.0588047 51.921668,51.0557461 C49.3121777,50.4623789 48.4853379,47.0600332 48.4783711,47.0306367 C48.3594258,46.5042188 47.9427773,46.0962363 47.4138105,45.988166 C46.8851836,45.879416 46.3421133,46.0914785 46.0255488,46.5288574 C42.8087578,50.9762227 35.7027949,51.0215918 35.608998,51.0215918 C35.6088281,51.0215918 35.6086582,51.0215918 35.6086582,51.0215918 C35.6067891,51.0215918 35.6052598,51.0215918 35.6037305,51.0215918 C35.5564922,51.0215918 35.5095938,51.0239707 35.4635449,51.0285586 C35.4491016,51.0302578 35.435168,51.0331465 35.4207246,51.0351855 C35.3896289,51.0392637 35.3580234,51.0431719 35.3274375,51.0492891 C35.3078965,51.0531973 35.2888652,51.0594844 35.2694941,51.0642422 C35.2448555,51.0703594 35.2200469,51.0757969 35.1960879,51.0831035 C35.1738281,51.0900703 35.1525879,51.0990762 35.1308379,51.1070625 C35.1107871,51.1143691 35.0900566,51.1208262 35.0705156,51.1291523 C35.0453672,51.1396875 35.0214082,51.1524316 34.9974492,51.1641563 C34.9818164,51.1718027 34.9660137,51.1784297 34.9507207,51.1865859 C34.926082,51.1998398 34.9028027,51.2151328 34.8790137,51.2297461 C34.8654199,51.2384121 34.8511465,51.2460586 34.8375527,51.2550645 C34.8154629,51.2701875 34.7945625,51.2868398 34.7731523,51.3031523 C34.7593887,51.3135176 34.7451152,51.3230332 34.7316914,51.3340781 C34.7191172,51.3444434 34.7073926,51.356168 34.6949883,51.367043 L34.6949883,49.6547402 C34.6949883,44.9752617 38.5015781,41.1686719 43.1807168,41.1686719 L44.002459,41.1686719 C48.6815977,41.168502 52.4881875,44.9756016 52.4881875,49.6549102 Z M2.773125,42.1263516 C3.0271582,34.4958398 5.38822266,27.3902168 9.29302734,21.373793 C12.3884941,22.6386914 16.1546426,23.7066504 20.3739727,24.5447051 C18.8322715,29.9765977 17.9682187,35.9417051 17.8564102,42.1263516 L2.773125,42.1263516 Z M26.4525879,57.7476094 C26.42625,57.7391133 26.3988926,57.7324863 26.3720449,57.7255195 C26.3599805,57.7224609 26.3482559,57.7182129 26.3358516,57.7153242 C24.4213418,57.2798145 23.7950098,54.7235098 23.7904219,54.7043086 C23.6713066,54.1778906 23.2548281,53.7700781 22.7258613,53.6620078 C22.1968945,53.5535977 21.6538242,53.7653203 21.3377695,54.2026992 C18.8484141,57.6434473 13.2987656,57.6811699 13.2316465,57.6811699 C13.2301172,57.6811699 13.2285879,57.6811699 13.2270586,57.6811699 C13.1798203,57.6811699 13.1329219,57.6835488 13.087043,57.6881367 C13.0725996,57.6898359 13.058666,57.6927246 13.0442227,57.6947637 C13.012957,57.6988418 12.9815215,57.70275 12.9509355,57.7088672 C12.9313945,57.7129453 12.9121934,57.7190625 12.8928223,57.7238203 C12.8683535,57.7299375 12.8435449,57.735375 12.8195859,57.7426816 C12.8048027,57.7472695 12.7908691,57.7535566 12.7762559,57.7586543 L12.7762559,56.8633359 C12.7762559,53.2737363 15.6963633,50.3532891 19.2861328,50.3532891 L19.9433906,50.3532891 C23.5328203,50.3532891 26.4529277,53.2737363 26.4529277,56.8633359 L26.4529277,57.7476094 L26.4525879,57.7476094 Z M27.4048301,61.3876758 C27.694207,61.5943008 27.8840098,61.9321055 27.8840098,62.31375 C27.8840098,62.6955645 27.694207,63.0330293 27.4048301,63.2394844 L27.4048301,61.3876758 Z M11.3297109,62.31375 C11.3297109,61.9129043 11.5388848,61.5604863 11.8532402,61.3575996 L11.8532402,63.2695605 C11.5388848,63.0670137 11.3297109,62.7145957 11.3297109,62.31375 Z M20.255877,68.375373 L19.002873,68.375373 C16.5753691,68.375373 14.600877,66.4007109 14.600877,63.9735469 L14.600877,60.3406172 C16.3898145,60.1470762 19.5583477,59.5205742 22.0016543,57.4801523 C22.5488027,58.4184609 23.3950137,59.4330645 24.6573633,60.025582 L24.6573633,63.9737168 C24.6573633,66.4007109 22.6828711,68.375373 20.255877,68.375373 Z M18.1445977,71.0694844 C18.4261582,71.1032988 18.7121367,71.1228398 19.002873,71.1228398 L20.255877,71.1228398 C20.5461035,71.1228398 20.832082,71.1032988 21.1133027,71.0694844 L21.1133027,71.8309043 L19.5829863,73.4189941 L18.1447676,72.018498 L18.1447676,71.0694844 L18.1445977,71.0694844 Z M34.6914199,42.1263516 L20.6042168,42.1263516 C20.716875,36.0951445 21.5683535,30.2938418 23.0852461,25.0405371 C28.8890977,26.0160586 35.4011836,26.5778203 42.1263516,26.6454492 L42.1263516,38.4723516 C39.2466855,38.7418477 36.6795059,40.1017324 34.8436699,42.1353574 C34.793543,42.12975 34.7429063,42.1263516 34.6914199,42.1263516 Z M32.8866797,56.4709863 C32.8866797,55.642957 33.4599961,54.9483164 34.230252,54.7576641 L34.230252,58.1843086 C33.4599961,57.9938262 32.8866797,57.2991855 32.8866797,56.4709863 Z M44.3941289,64.3963125 L42.8271094,64.3963125 C39.6016523,64.3963125 36.9775488,61.7723789 36.9775488,58.5469219 L36.9775488,53.6971816 C39.1698809,53.4953145 43.5049277,52.7332148 46.6714219,49.8905918 C47.3397246,51.1553203 48.4598496,52.6236152 50.2431797,53.3852051 L50.2431797,58.5469219 C50.2430098,61.7723789 47.6192461,64.3963125 44.3941289,64.3963125 Z M59.2541367,62.31375 C59.2541367,61.9129043 59.4633105,61.5603164 59.777666,61.3575996 L59.777666,63.2695605 C59.4631406,63.0670137 59.2541367,62.7145957 59.2541367,62.31375 Z M71.7850254,70.9247109 L71.7850254,70.1430703 C73.2816973,69.2654238 74.4317285,67.8596602 74.9781973,66.1828711 C76.9766484,66.0250137 78.5553926,64.351793 78.5553926,62.3135801 C78.5553926,61.1015273 77.9966895,60.0179355 77.1241406,59.3047734 L77.1241406,56.863166 C77.1241406,52.1559902 73.5918047,48.2608711 69.0390879,47.6827969 C69.0909141,46.7514551 69.1269375,45.8131465 69.1440996,44.8736484 L84.2272148,44.8736484 C83.8970566,54.8169668 79.9912324,64.2090586 73.1391328,71.4677813 L71.7850254,70.9247109 Z M77.2955918,73.1345449 L75.866209,72.5613984 C83.0544141,64.5652148 87,54.294457 87,43.5 C87,34.6689902 84.3301875,26.171877 79.465834,19.0288711 C79.4068711,18.9126445 79.3338047,18.8083125 79.2486738,18.7170645 C77.1176836,15.6457266 74.5809199,12.8287617 71.6698184,10.3524902 C71.0919141,9.86090625 70.2251426,9.93074414 69.7335586,10.5088184 C69.2419746,11.0867227 69.3118125,11.953834 69.8897168,12.445248 C72.225123,14.4318047 74.3037773,16.6523437 76.1069883,19.0555488 C73.1994551,20.1919863 69.7090898,21.1544238 65.8127812,21.9148242 C64.7371758,18.7100977 63.4153535,15.7221914 61.861248,13.0263809 C59.7666211,9.39260156 57.3571289,6.46654687 54.7314961,4.31448633 C58.8182871,5.48286914 62.7111973,7.2932168 66.2839746,9.70661719 C66.9126855,10.131082 67.766373,9.96591797 68.1911777,9.33720703 C68.6156426,8.70866602 68.4504785,7.85463867 67.8217676,7.43000391 C60.6274453,2.56921875 52.2169922,0 43.5,0 C31.8805723,0 20.9569746,4.52467969 12.741082,12.741082 C4.52467969,20.9569746 0,31.8807422 0,43.5 C0,54.3083906 3.95102344,64.5805078 11.1509531,72.5795801 L9.73958203,73.1323359 C9.21979102,73.3200996 4.79995312,75.0830391 4.79995312,80.7028652 L4.79995312,85.6249922 C4.79995312,86.3838633 5.41490039,87 6.17377148,87 L26.3934551,87 C26.4597246,87 26.5242949,86.9937129 26.5881855,86.9845371 C26.6520762,86.9937129 26.7164766,87 26.7827461,87 L32.3721562,87 C33.1310273,87 33.7459746,86.3852227 33.7459746,85.6263516 C33.7459746,84.8674805 33.1310273,84.2527031 32.3721562,84.2527031 L28.1565645,84.2527031 L28.1565645,79.4685527 C28.1565645,74.4211934 32.1211816,72.9693809 32.281248,72.9129668 C32.3024883,72.9058301 32.3235586,72.8981836 32.3446289,72.8898574 L39.0341133,70.270002 C39.0485566,70.2856348 39.0621504,70.3017773 39.0774434,70.3169004 L42.6325488,73.7795684 C42.8893008,74.0293535 43.2333926,74.1690293 43.5910781,74.1690293 C43.5982148,74.1690293 43.6055215,74.1690293 43.6126582,74.1688594 C43.9781602,74.163252 44.3266699,74.0118516 44.5800234,73.7484727 L47.993584,70.2066211 L54.6740625,72.8856094 C54.6985312,72.8956348 54.714334,72.901582 54.7391426,72.9099082 C54.907875,72.9692109 58.873002,74.4213633 58.873002,79.4685527 L58.873002,84.2527031 L36.6652324,84.2527031 C35.9065312,84.2527031 35.291584,84.8674805 35.291584,85.6263516 C35.291584,86.3852227 35.9065312,87 36.6652324,87 L80.855625,87 C81.6144961,87 82.2292734,86.3753672 82.2292734,85.616666 L82.2292734,80.7028652 C82.2294434,75.1046191 77.8429102,73.3335234 77.2955918,73.1345449 L77.2955918,73.1345449 Z" id="Fill-1" fill="#FFF" mask="url(#mask-2)"/></g></g></g></g></svg>