<svg width="17" height="17" viewBox="0 0 17 17" version="1.1" xmlns="http://www.w3.org/2000/svg" xmlns:xlink="http://www.w3.org/1999/xlink"><title>globe</title><desc>Created with Sketch.</desc><g id="All-Pages" stroke="none" stroke-width="1" fill="none" fill-rule="evenodd"><g id="Grant-Holders-and-Project-Team" transform="translate(-481.000000, -1475.000000)" fill-rule="nonzero" fill="#9B9B9B"><g id="John-Copy" transform="translate(223.000000, 1397.000000)"><g id="Group" transform="translate(257.000000, 0.000000)"><g id="button-blue-text" transform="translate(1.000000, 71.000000)"><g id="globe" transform="translate(0.000000, 7.000000)"><path d="M8.5,0 C10.0421007,0 11.4643012,0.379991319 12.7666016,1.13997396 C14.0689019,1.8999566 15.1000434,2.93109809 15.860026,4.23339844 C16.6200087,5.53569878 17,6.95789931 17,8.5 C17,10.0421007 16.6200087,11.4643012 15.860026,12.7666016 C15.1000434,14.0689019 14.0689019,15.1000434 12.7666016,15.860026 C11.4643012,16.6200087 10.0421007,17 8.5,17 C6.95789931,17 5.53569878,16.6200087 4.23339844,15.860026 C2.93109809,15.1000434 1.8999566,14.0689019 1.13997396,12.7666016 C0.379991319,11.4643012 0,10.0421007 0,8.5 C0,6.95789931 0.379991319,5.53569878 1.13997396,4.23339844 C1.8999566,2.93109809 2.93109809,1.8999566 4.23339844,1.13997396 C5.53569878,0.379991319 6.95789931,0 8.5,0 Z M11.5766211,5.84059189 C11.5619489,5.84803359 11.5271023,5.88338164 11.4720815,5.94663605 C11.4170607,6.00989046 11.3675419,6.04523851 11.3235253,6.05268021 C11.3381975,6.05268021 11.3547037,6.03407597 11.373044,5.99686749 C11.3913843,5.95965902 11.4097246,5.91872969 11.4280648,5.87407952 C11.4464051,5.82942935 11.4592433,5.80338341 11.4665794,5.79594172 C11.5105961,5.74384985 11.5912933,5.68803713 11.7086711,5.62850357 C11.8113766,5.5838534 12.0021155,5.53920322 12.2808877,5.49455305 C12.5303154,5.43501949 12.7173862,5.47594881 12.8421001,5.61734103 C12.8274279,5.60245764 12.8622744,5.55408662 12.9466396,5.47222797 C13.0310049,5.39036932 13.0841917,5.34571914 13.1062,5.33827745 C13.1282084,5.32339406 13.1832292,5.30665024 13.2712625,5.288046 C13.3592958,5.26944176 13.4143167,5.24153541 13.436325,5.20432693 L13.4583333,4.95875098 C13.3703,4.96619267 13.306109,4.94014674 13.2657604,4.88061318 C13.2254118,4.82107961 13.2015695,4.74294181 13.1942334,4.64619977 C13.1942334,4.66108316 13.172225,4.69084994 13.1282084,4.73550012 C13.1282084,4.68340825 13.1117021,4.65364147 13.0786896,4.64619977 C13.0456771,4.63875808 13.0034945,4.64247892 12.9521417,4.65736231 C12.900789,4.6722457 12.8677765,4.67596655 12.8531042,4.66852486 C12.7797431,4.64619977 12.7247223,4.61829341 12.6880418,4.58480578 C12.6513612,4.55131815 12.6220168,4.48992417 12.6000084,4.40062382 C12.5780001,4.31132348 12.5633279,4.25551076 12.5559918,4.23318567 C12.5413196,4.1959772 12.506473,4.15504787 12.4514522,4.1103977 C12.3964314,4.06574753 12.3615849,4.02853905 12.3469126,3.99877227 C12.3395765,3.98388888 12.3304064,3.96342421 12.3194022,3.93737828 C12.3083981,3.91133235 12.2973939,3.88714684 12.2863897,3.86482175 C12.2753856,3.84249666 12.2607133,3.822032 12.2423731,3.80342776 C12.2240328,3.78482352 12.2038585,3.7755214 12.1818502,3.7755214 C12.1598418,3.7755214 12.1341654,3.79412564 12.104821,3.83133412 C12.0754766,3.8685426 12.0479662,3.90575107 12.0222898,3.94295955 C11.9966134,3.98016803 11.9801071,3.99877227 11.972771,3.99877227 C11.9507627,3.98388888 11.9287544,3.9783076 11.906746,3.98202845 C11.8847377,3.9857493 11.8682315,3.98947015 11.8572273,3.993191 C11.8462231,3.99691184 11.8297169,4.00807439 11.8077085,4.02667862 C11.7857002,4.04528286 11.7673599,4.05830583 11.7526877,4.06574753 C11.7306794,4.08063092 11.6995009,4.09179346 11.6591523,4.09923516 C11.6188037,4.10667685 11.5876252,4.11411855 11.5656169,4.12156024 C11.6756586,4.08435176 11.6719905,4.04342244 11.5546127,3.99877227 C11.4812516,3.96900549 11.4225628,3.95784294 11.3785461,3.96528464 C11.4445711,3.93551786 11.4720815,3.89086768 11.4610773,3.83133412 C11.4500732,3.77180056 11.4188947,3.71970869 11.3675419,3.67505852 L11.4225628,3.67505852 C11.4152267,3.64529173 11.3840482,3.61366453 11.3290274,3.5801769 C11.2740065,3.54668927 11.2098156,3.51506206 11.1364545,3.48529528 C11.0630934,3.4555285 11.0154086,3.43320341 10.9934003,3.41832002 C10.9347114,3.38111155 10.8099976,3.34576349 10.6192587,3.31227586 C10.4285198,3.27878823 10.307474,3.27692781 10.2561212,3.30669459 C10.2194407,3.35134476 10.2029344,3.39041366 10.2066025,3.42390129 C10.2102706,3.45738892 10.2249428,3.50948079 10.2506192,3.5801769 C10.2762955,3.650873 10.2891337,3.6973836 10.2891337,3.71970869 C10.2964698,3.76435886 10.2762955,3.81272988 10.2286108,3.86482175 C10.1809261,3.91691362 10.1570838,3.96156379 10.1570838,3.99877227 C10.1570838,4.05086414 10.2084365,4.10853727 10.3111421,4.17179169 C10.4138476,4.2350461 10.4505282,4.31504432 10.4211837,4.41178636 C10.3991754,4.47131993 10.3404865,4.53085349 10.2451171,4.59038705 C10.1497476,4.64992062 10.0910588,4.69457079 10.0690504,4.72433757 C10.0323699,4.78387114 10.0268678,4.85270682 10.0525442,4.93084462 C10.0782206,5.00898242 10.1167351,5.07037641 10.1680879,5.11502658 C10.1827601,5.12990997 10.1882622,5.14479337 10.1845942,5.15967676 C10.1809261,5.17456015 10.1680879,5.19130396 10.1460796,5.2099082 C10.1240713,5.22851244 10.103897,5.24339583 10.0855567,5.25455837 C10.0672164,5.26572092 10.043374,5.27874388 10.0140296,5.29362727 L9.98101711,5.31595236 C9.9003199,5.35316084 9.82512477,5.33083575 9.75543172,5.2489771 C9.68573868,5.16711845 9.63621993,5.07037641 9.60687549,4.95875098 C9.55552272,4.77270859 9.49683384,4.66108316 9.43080885,4.62387468 C9.26207831,4.56434112 9.15570472,4.56806197 9.11168806,4.63503723 C9.0750075,4.53829519 8.92461725,4.44155315 8.66051728,4.34481111 C8.47711453,4.27783585 8.26436733,4.26295246 8.0222757,4.30016093 C8.06629236,4.29271924 8.06629236,4.23690652 8.0222757,4.13272279 C7.97092292,4.02109735 7.90122988,3.97644718 7.81319656,3.99877227 C7.83520489,3.95412209 7.84987711,3.88900726 7.85721322,3.80342776 C7.86454933,3.71784826 7.86821738,3.66761682 7.86821738,3.65273343 C7.89022571,3.55599139 7.93424237,3.47041189 8.00026736,3.39599494 C8.00760347,3.38855324 8.03327986,3.35692603 8.07729652,3.30111332 C8.12131318,3.2453006 8.15615971,3.19506916 8.18183609,3.15041899 C8.20751248,3.10576881 8.2093465,3.08344373 8.18733817,3.08344373 C8.44410203,3.11321051 8.62750478,3.07228118 8.73754644,2.96065575 C8.77422699,2.92344728 8.81640962,2.86019286 8.86409434,2.77089252 C8.91177905,2.68159217 8.95029363,2.61833776 8.97963807,2.58112928 C9.04566306,2.53647911 9.09701584,2.51601445 9.13369639,2.5197353 C9.17037694,2.52345614 9.22356374,2.54392081 9.29325678,2.58112928 C9.36294983,2.61833776 9.41613663,2.636942 9.45281718,2.636942 C9.55552272,2.6443837 9.61237758,2.60345437 9.62338174,2.51415403 C9.63438591,2.42485368 9.60687549,2.35043673 9.5408505,2.29090316 C9.62888382,2.29834486 9.63988799,2.23509045 9.573863,2.10113993 C9.54451856,2.04904806 9.51517412,2.01556043 9.48582967,2.00067704 C9.39779635,1.97091026 9.29875887,1.9895145 9.18871721,2.05648976 C9.13002833,2.08625654 9.13736444,2.11602332 9.21072554,2.1457901 C9.20338943,2.13834841 9.16854291,2.17741731 9.10618597,2.2629968 C9.04382904,2.3485763 8.98330613,2.41369114 8.92461725,2.45834131 C8.86592837,2.50299148 8.80723948,2.48438724 8.7485506,2.40252859 C8.74121449,2.3950869 8.72104019,2.34485545 8.68802769,2.25183426 C8.6550152,2.15881307 8.62016867,2.10858162 8.58348812,2.10113993 C8.52479924,2.10113993 8.46611036,2.15695264 8.40742148,2.26857808 C8.42942981,2.20904451 8.3890812,2.1532318 8.28637566,2.10113993 C8.18367012,2.04904806 8.0956368,2.01928128 8.0222757,2.01183958 C8.16166179,1.92253924 8.13231735,1.82207635 7.93424237,1.71045092 C7.8828896,1.68068414 7.80769447,1.6620799 7.70865699,1.6546382 C7.6096195,1.64719651 7.53809242,1.6620799 7.49407576,1.69928837 C7.45739521,1.75138024 7.43722091,1.79416999 7.43355285,1.82765762 C7.4298848,1.86114525 7.44822507,1.89091203 7.48857368,1.91695797 C7.52892229,1.9430039 7.56743686,1.96346856 7.60411742,1.97835195 C7.64079797,1.99323534 7.6829806,2.00811874 7.73066532,2.02300213 C7.77835003,2.03788552 7.8095285,2.04904806 7.82420072,2.05648976 C7.92690626,2.13090671 7.9562507,2.18299858 7.91223404,2.21276536 C7.89756182,2.22020706 7.86638335,2.23323002 7.81869864,2.25183426 C7.77101392,2.2704385 7.72883129,2.28718231 7.69215074,2.30206571 C7.65547019,2.3169491 7.63346186,2.33183249 7.62612575,2.34671588 C7.60411742,2.37648266 7.60411742,2.42857453 7.62612575,2.50299148 C7.64813408,2.57740844 7.64079797,2.62950031 7.60411742,2.65926709 C7.56743686,2.62205861 7.53442437,2.55694377 7.50507993,2.46392258 C7.47573549,2.37090139 7.4500591,2.3095074 7.42805077,2.27974062 C7.47940354,2.34671588 7.38770217,2.36904096 7.15294664,2.34671588 L7.04290499,2.33555333 C7.01356055,2.33555333 6.95487166,2.34299503 6.86683834,2.35787842 C6.77880502,2.37276181 6.70360989,2.37648266 6.64125296,2.36904096 C6.57889602,2.36159927 6.52937727,2.33183249 6.49269672,2.27974062 C6.46335228,2.22020706 6.46335228,2.1457901 6.49269672,2.05648976 C6.50003283,2.02672297 6.51470505,2.01928128 6.53671339,2.03416467 C6.50736894,2.01183958 6.46702034,1.97649153 6.41566757,1.92812051 C6.3643148,1.87974949 6.32763425,1.84812228 6.30562591,1.83323889 C5.96816485,1.94486432 5.62336767,2.09741908 5.27123438,2.29090316 C5.31525104,2.29834486 5.3592677,2.29462401 5.40328436,2.27974062 C5.43996491,2.26485723 5.48764963,2.24067172 5.54633851,2.20718409 C5.60502739,2.17369646 5.64170794,2.1532318 5.65638016,2.1457901 C5.90580791,2.04160636 6.05986622,2.01556043 6.11855511,2.0676523 L6.17357593,2.01183958 C6.27628147,2.13090671 6.34964258,2.2239279 6.39365924,2.29090316 C6.34230647,2.26113638 6.23226481,2.25741553 6.06353428,2.27974062 C5.91681208,2.32439079 5.83611486,2.36904096 5.82144264,2.41369114 C5.87279541,2.50299148 5.89113569,2.56996674 5.87646347,2.61461691 C5.84711903,2.59229183 5.8049364,2.55508335 5.74991557,2.50299148 C5.69489474,2.45089961 5.64170794,2.40997029 5.59035517,2.38020351 C5.5390024,2.35043673 5.48398158,2.33183249 5.42529269,2.32439079 C5.30791493,2.32439079 5.22721772,2.32811164 5.18320106,2.33555333 C4.11212897,2.93088897 3.25013603,3.75691717 2.59722222,4.81363792 C2.64857499,4.86572979 2.69259165,4.89549657 2.72927221,4.90293826 C2.75861665,4.91037996 2.77695692,4.94386759 2.78429303,5.00340115 C2.79162914,5.06293472 2.80079928,5.10386404 2.81180344,5.12618913 C2.82280761,5.14851421 2.86499024,5.13735167 2.93835135,5.0927015 C3.00437634,5.15223506 3.0153805,5.22293117 2.97136384,5.30478982 C2.97869995,5.29734812 3.14009438,5.39781101 3.45554711,5.60617848 C3.59493321,5.73268731 3.67196236,5.81082511 3.68663458,5.84059189 C3.70864291,5.92245054 3.67196236,5.9894258 3.57659293,6.04151767 C3.56925682,6.02663428 3.53624432,5.99314665 3.47755544,5.94105478 C3.41886656,5.88896291 3.38585407,5.87407952 3.37851796,5.89640461 C3.35650963,5.93361308 3.35834365,6.00244877 3.38402004,6.10291165 C3.40969642,6.20337454 3.448211,6.24988514 3.49956377,6.24244344 C3.448211,6.24244344 3.41336448,6.30197701 3.3950242,6.42104413 C3.37668393,6.54011126 3.36751379,6.67220136 3.36751379,6.81731442 C3.36751379,6.96242748 3.36384574,7.0498674 3.35650963,7.07963418 L3.37851796,7.09079672 C3.35650963,7.18009707 3.37668393,7.30846632 3.43904086,7.47590446 C3.5013978,7.64334261 3.58026099,7.71589914 3.67563042,7.69357406 C3.58026099,7.71589914 3.65362209,7.87589559 3.89571372,8.17356341 C3.93973038,8.23309698 3.96907482,8.26658461 3.98374704,8.2740263 C4.00575538,8.28890969 4.04977204,8.31681605 4.11579703,8.35774537 C4.18182202,8.3986747 4.23684285,8.43588318 4.28085951,8.46937081 C4.32487617,8.50285844 4.36155672,8.54192734 4.39090116,8.58657751 C4.4202456,8.62378599 4.45692615,8.70750506 4.50094281,8.83773473 C4.54495947,8.9679644 4.59631224,9.05540432 4.65500113,9.1000545 C4.64032891,9.14470467 4.67517543,9.21912162 4.7595407,9.32330536 C4.84390596,9.42748909 4.88242054,9.51306859 4.87508443,9.58004385 C4.86774832,9.58004385 4.85857818,9.5837647 4.84757402,9.59120639 C4.83656985,9.59864809 4.82739971,9.60236894 4.8200636,9.60236894 C4.84207194,9.65446081 4.89892679,9.70655267 4.99062817,9.75864454 C5.08232954,9.81073641 5.1391844,9.85910743 5.16119273,9.9037576 C5.16852884,9.92608269 5.17586495,9.96329117 5.18320106,10.015383 C5.19053717,10.0674749 5.20154133,10.1084042 5.21621355,10.138171 C5.23088577,10.1679378 5.26023022,10.1753795 5.30424688,10.1604961 C5.3189191,10.0116622 5.23088577,9.78096963 5.04014691,9.46841842 C4.93010526,9.28237603 4.86774832,9.17447145 4.8530761,9.14470467 C4.83106777,9.10749619 4.81089347,9.04982305 4.79255319,8.97168525 C4.77421292,8.89354745 4.75770667,8.83959515 4.74303445,8.80982837 C4.75770667,8.80982837 4.779715,8.81540964 4.80905944,8.82657219 C4.83840388,8.83773473 4.86958235,8.8507577 4.90259484,8.86564109 C4.93560734,8.88052448 4.96311775,8.89540787 4.98512608,8.91029126 C5.00713441,8.92517465 5.01447052,8.9363372 5.00713441,8.94377889 C4.98512608,8.99587076 4.99246219,9.06098559 5.02914274,9.1391234 C5.0658233,9.2172612 5.10983996,9.28609688 5.16119273,9.34563044 C5.2125455,9.40516401 5.27490244,9.47586012 5.34826354,9.55771876 C5.42162464,9.63957741 5.4656413,9.68794844 5.48031352,9.70283183 C5.52433018,9.747482 5.57568295,9.82003853 5.63437183,9.92050142 C5.69306072,10.0209643 5.69306072,10.0711958 5.63437183,10.0711958 C5.70039683,10.0711958 5.77375793,10.1102647 5.85445514,10.1884025 C5.93515235,10.2665403 5.99750929,10.3390968 6.04152595,10.406072 C6.0782065,10.4656056 6.10755094,10.5623477 6.12955927,10.6962982 C6.1515676,10.8302487 6.16990788,10.919549 6.1845801,10.9641992 C6.19925232,11.0162911 6.23043079,11.0665225 6.2781155,11.1148935 C6.32580022,11.1632646 6.37165091,11.1986126 6.41566757,11.2209377 L6.59173421,11.310238 L6.73478836,11.3883758 C6.77146891,11.4032592 6.83932793,11.4423281 6.93836542,11.5055825 C7.0374029,11.568837 7.11626609,11.6116267 7.17495497,11.6339518 C7.24831607,11.6637186 7.30700495,11.678602 7.35102161,11.678602 C7.39503828,11.678602 7.44822507,11.6692998 7.51058201,11.6506956 C7.57293895,11.6320914 7.62245769,11.6190684 7.65913824,11.6116267 C7.76917989,11.5967433 7.87555349,11.652556 7.97825903,11.7790649 C8.08096458,11.9055737 8.15799373,11.9837115 8.2093465,12.0134783 C8.47344647,12.1548705 8.6751895,12.1957998 8.81457559,12.1362662 C8.79990337,12.1437079 8.8017374,12.1716143 8.82007768,12.2199853 C8.83841795,12.2683563 8.86776239,12.3260295 8.908111,12.3930047 C8.9484596,12.45998 8.9814721,12.5139323 9.00714849,12.5548616 C9.03282487,12.5957909 9.05299917,12.6274181 9.06767139,12.6497432 C9.10435195,12.6943934 9.17037694,12.7502061 9.26574637,12.8171814 C9.3611158,12.8841566 9.42714079,12.9399693 9.46382134,12.9846195 C9.50783801,12.9548527 9.53351439,12.9213651 9.5408505,12.8841566 C9.51884217,12.9436902 9.54451856,13.0181071 9.61787966,13.1074075 C9.69124076,13.1967078 9.75726575,13.2339163 9.81595463,13.2190329 C9.91866017,13.1967078 9.97001295,13.0776407 9.97001295,12.8618315 C9.74259353,12.973457 9.56285883,12.9064817 9.43080885,12.6609058 C9.43080885,12.6534641 9.42163871,12.6329994 9.40329844,12.5995118 C9.38495816,12.5660241 9.37028594,12.5343969 9.35928177,12.5046302 C9.34827761,12.4748634 9.33910747,12.4432362 9.33177136,12.4097485 C9.32443525,12.3762609 9.32443525,12.3483546 9.33177136,12.3260295 C9.33910747,12.3037044 9.35744775,12.2925418 9.38679219,12.2925418 C9.45281718,12.2925418 9.48949773,12.2795189 9.49683384,12.2534729 C9.50416995,12.227427 9.49683384,12.1809164 9.47482551,12.1139412 C9.45281718,12.0469659 9.43814496,11.9985949 9.43080885,11.9688281 C9.42347274,11.9092945 9.38312413,11.8348776 9.30976303,11.7455772 C9.23640193,11.6562769 9.19238527,11.6004642 9.17771305,11.5781391 C9.1410325,11.6451143 9.08234362,11.6748811 9.0016464,11.6674394 C8.92094919,11.6599977 8.86226031,11.6265101 8.82557976,11.5669765 C8.82557976,11.5744182 8.82007768,11.5948829 8.80907351,11.6283705 C8.79806935,11.6618582 8.79256726,11.6860437 8.79256726,11.7009271 C8.69719783,11.7009271 8.642177,11.6972062 8.62750478,11.6897645 C8.63484089,11.6674394 8.64401103,11.6023246 8.6550152,11.49442 C8.66601936,11.3865154 8.67885756,11.3027963 8.69352978,11.2432628 C8.70086589,11.213496 8.72104019,11.1688458 8.75405268,11.1093123 C8.78706518,11.0497787 8.81457559,10.9958264 8.83658392,10.9474554 C8.85859225,10.8990844 8.87326448,10.8525738 8.88060059,10.8079236 C8.8879367,10.7632734 8.87143045,10.7279254 8.83108184,10.7018794 C8.79073324,10.6758335 8.72654227,10.6665314 8.63850895,10.6739731 C8.49912286,10.6814148 8.40375342,10.7558317 8.35240065,10.8972239 C8.34506454,10.919549 8.33406038,10.9586179 8.31938816,11.0144306 C8.30471594,11.0702434 8.28637566,11.1130331 8.26436733,11.1427999 C8.242359,11.1725667 8.2093465,11.1986126 8.16532984,11.2209377 C8.11397707,11.2432628 8.02594375,11.2507045 7.90122988,11.2432628 C7.776516,11.2358211 7.68848268,11.2172168 7.63712991,11.1874501 C7.54176048,11.1279165 7.45922924,11.0200119 7.38953619,10.8637363 C7.31984315,10.7074607 7.28499662,10.5697893 7.28499662,10.4507222 C7.28499662,10.3763053 7.29416676,10.2777028 7.31250704,10.1549148 C7.33084731,10.0321268 7.34185148,9.93910566 7.34551953,9.87585125 C7.34918759,9.81259683 7.32901328,9.72143606 7.28499662,9.60236894 C7.30700495,9.58748555 7.34001745,9.55213749 7.38403411,9.49632478 C7.42805077,9.44051206 7.46473132,9.40144316 7.49407576,9.37911807 C7.50874798,9.37167638 7.52525423,9.36609511 7.54359451,9.36237426 C7.56193478,9.35865341 7.57844103,9.35865341 7.59311325,9.36237426 C7.60778547,9.36609511 7.62245769,9.36051384 7.63712991,9.34563044 C7.65180213,9.33074705 7.6628063,9.30842197 7.67014241,9.27865519 C7.6628063,9.27121349 7.64813408,9.26005095 7.62612575,9.24516756 C7.60411742,9.22284247 7.58944519,9.21167993 7.58210908,9.21167993 C7.63346186,9.23400501 7.73800143,9.22842374 7.89572779,9.19493611 C8.05345416,9.16144848 8.15432568,9.16702975 8.19834234,9.21167993 C8.30838399,9.29353858 8.3890812,9.28609688 8.44043398,9.18935484 C8.44043398,9.18191314 8.43126384,9.14656509 8.41292356,9.08331068 C8.39458329,9.02005627 8.39274926,8.96982482 8.40742148,8.93261635 C8.44410203,9.13354212 8.55047563,9.16702975 8.72654227,9.03307924 C8.7485506,9.05540432 8.80540546,9.07400856 8.89710683,9.08889195 C8.98880821,9.10377534 9.05299917,9.12237958 9.08967973,9.14470467 C9.11168806,9.15958806 9.13736444,9.18005272 9.16670888,9.20609866 C9.19605332,9.23214459 9.21622763,9.2488884 9.22723179,9.2563301 C9.23823596,9.26377179 9.25657623,9.26191137 9.28225262,9.25074883 C9.307929,9.23958628 9.33910747,9.21540077 9.37578802,9.1781923 C9.44914912,9.28237603 9.49316578,9.37167638 9.50783801,9.44609333 C9.58853522,9.74376115 9.65822826,9.90747845 9.71691715,9.93724523 C9.76826992,9.95957032 9.80861852,9.96701201 9.83796296,9.95957032 C9.8673074,9.95212862 9.88381365,9.91678057 9.88748171,9.85352616 C9.89114976,9.79027175 9.89114976,9.73817988 9.88748171,9.69725055 C9.88381365,9.65632123 9.87831157,9.60981063 9.87097546,9.55771876 L9.85997129,9.46841842 L9.85997129,9.26749264 L9.84896713,9.1781923 C9.73892548,9.15586721 9.67106646,9.11121704 9.64539007,9.04424178 C9.61971369,8.97726652 9.62521577,8.90843084 9.66189632,8.83773473 C9.69857687,8.76703862 9.7535977,8.69820294 9.8269588,8.63122768 C9.83429491,8.62378599 9.86363935,8.61076302 9.91499212,8.59215878 C9.96634489,8.57355454 10.0231997,8.54936903 10.0855567,8.51960225 C10.1479136,8.48983547 10.1937643,8.46006869 10.2231087,8.4303019 C10.3771671,8.28890969 10.4321879,8.15868002 10.3881712,8.03961289 C10.439524,8.03961289 10.4798726,8.00612526 10.509217,7.93915001 C10.5018809,7.93915001 10.4835407,7.92798746 10.4541962,7.90566238 C10.4248518,7.88333729 10.3973414,7.86473305 10.371665,7.84984966 C10.3459886,7.83496627 10.3294823,7.82752457 10.3221462,7.82752457 C10.3881712,7.7903161 10.3955073,7.73078253 10.3441546,7.64892388 C10.3808351,7.6265988 10.4083455,7.58566947 10.4266858,7.52613591 C10.4450261,7.46660234 10.4725365,7.42939387 10.509217,7.41451048 C10.575242,7.50381082 10.6522712,7.51125252 10.7403045,7.43683556 C10.7989934,7.377302 10.8026615,7.31776844 10.7513087,7.25823487 C10.7879892,7.206143 10.8631844,7.1670741 10.9768941,7.14102817 C11.0906038,7.11498223 11.1584628,7.07963418 11.1804711,7.03498401 C11.2318239,7.0498674 11.2611683,7.0424257 11.2685044,7.01265892 C11.2758406,6.98289214 11.2795086,6.93824197 11.2795086,6.8787084 C11.2795086,6.81917484 11.2905128,6.77452467 11.3125211,6.74475789 C11.3418655,6.70754941 11.3968864,6.67406178 11.4775836,6.644295 C11.5582808,6.61452822 11.6059655,6.59592398 11.6206377,6.58848228 L11.8077085,6.46569431 C11.8297169,6.43592753 11.8297169,6.42104413 11.8077085,6.42104413 C11.9397585,6.43592753 12.0534682,6.3949982 12.1488377,6.29825616 C12.2221988,6.21639751 12.2001904,6.14198056 12.0828127,6.0750053 C12.104821,6.03035512 12.0938168,5.99500707 12.0498002,5.96896114 C12.0057835,5.9429152 11.9507627,5.92245054 11.8847377,5.90756715 C11.906746,5.90012545 11.9489287,5.89826503 12.0112856,5.90198588 C12.0736425,5.90570672 12.1121571,5.90012545 12.1268293,5.88524206 C12.236871,5.81082511 12.2111946,5.75129154 12.0498002,5.70664137 C11.9250863,5.66943289 11.7673599,5.71408307 11.5766211,5.84059189 Z M9.704553,15.5833333 C11.2656501,15.3086334 12.5956139,14.5875462 13.6944444,13.4200716 C13.67171,13.3971799 13.6243466,13.3800112 13.5523543,13.3685653 C13.480362,13.3571195 13.4329986,13.343766 13.4102641,13.3285049 C13.2738576,13.2750911 13.1829199,13.2445688 13.1374511,13.2369383 C13.1450292,13.1835244 13.1355565,13.1339258 13.109033,13.0881425 C13.0825095,13.0423592 13.052197,13.0080217 13.0180953,12.98513 C12.9839937,12.9622384 12.9366303,12.9317162 12.8760052,12.8935634 C12.81538,12.8554106 12.7737003,12.8287037 12.7509658,12.8134426 C12.7358096,12.7981815 12.7092861,12.7752898 12.6713954,12.7447676 C12.6335047,12.7142454 12.6069812,12.6932614 12.5918249,12.6818156 C12.5766686,12.6703697 12.5482506,12.653201 12.5065708,12.6303093 C12.464891,12.6074177 12.4326839,12.5997871 12.4099495,12.6074177 C12.3872151,12.6150482 12.3493243,12.6188635 12.2962774,12.6188635 L12.2621757,12.6303093 C12.2394413,12.6379399 12.2186014,12.6474781 12.1996561,12.6589239 C12.1807107,12.6703697 12.1598708,12.6818156 12.1371364,12.6932614 C12.114402,12.7047072 12.0992457,12.716153 12.0916675,12.7275989 C12.0840894,12.7390447 12.0840894,12.7485829 12.0916675,12.7562135 C11.9325266,12.626494 11.79612,12.542558 11.6824479,12.5044052 C11.6445572,12.4967746 11.6028774,12.4757906 11.5574086,12.4414531 C11.5119397,12.4071157 11.4721545,12.3804087 11.4380528,12.3613323 C11.4039512,12.342256 11.3660605,12.336533 11.3243807,12.3441636 C11.2827009,12.3517941 11.2391266,12.3785011 11.1936578,12.4242844 C11.1557671,12.4624372 11.1330327,12.5196663 11.1254545,12.5959718 C11.1178764,12.6722774 11.1102982,12.721876 11.1027201,12.7447676 C11.0496731,12.7066149 11.0496731,12.6398475 11.1027201,12.5444656 C11.1557671,12.4490837 11.1633452,12.3785011 11.1254545,12.3327178 C11.1027201,12.2869344 11.0629348,12.2697657 11.0060988,12.2812115 C10.9492627,12.2926574 10.9037939,12.3098261 10.8696922,12.3327178 C10.8355906,12.3556094 10.7920163,12.3880393 10.7389693,12.4300073 C10.6859223,12.4719754 10.6518207,12.4967746 10.6366644,12.5044052 C10.6215081,12.5120358 10.589301,12.5330198 10.5400431,12.5673573 C10.4907852,12.6016948 10.4585781,12.6303093 10.4434218,12.653201 C10.4206874,12.6837232 10.3979529,12.7295065 10.3752185,12.7905509 C10.3524841,12.8515954 10.3335387,12.8935634 10.3183825,12.9164551 C10.3032262,12.8859329 10.2596519,12.8611336 10.1876595,12.8420572 C10.1156672,12.8229808 10.079671,12.8019968 10.079671,12.7791051 C10.0948273,12.8554106 10.1099836,12.9889453 10.1251399,13.1797091 C10.1402961,13.370473 10.1592415,13.5154535 10.1819759,13.6146507 C10.2350229,13.8511978 10.1895541,14.0343311 10.0455694,14.1640505 C9.84095955,14.3548143 9.7310765,14.5074254 9.71592022,14.6218837 C9.68560765,14.7897558 9.7310765,14.888953 9.85232676,14.9194752 C9.85232676,14.9728891 9.82201419,15.0511023 9.76138906,15.1541147 C9.70076393,15.2571272 9.67424044,15.3391556 9.68181858,15.4002001 C9.68181858,15.4459834 9.68939672,15.5070278 9.704553,15.5833333 Z" id="Shape"/></g></g></g></g></g></g></svg>